<?xml version="1.0" standalone="no"?>
 <!DOCTYPE svg PUBLIC "-//W3C//DTD SVG 1.1//EN" 
 "http://www.w3.org/Graphics/SVG/1.1/DTD/svg11.dtd"> 
<svg xmlns="http://www.w3.org/2000/svg" version="1.1" 
    width="29.7002cm" height="21.0007cm" viewBox="0 0 116930 82680 ">
<title>SVG Picture created as serial_optical_adaptor-brd.svg date 2016/04/06 19:07:17 </title>
  <desc>Picture generated by PCBNEW </desc>
<g style="fill:#000000; fill-opacity:1;stroke:#000000; stroke-opacity:1;
stroke-linecap:round; stroke-linejoin:round; "
 transform="translate(0 0) scale(1 1)">
</g>
<g style="fill:#000000; fill-opacity:0.0; 
stroke:#000000; stroke-width:-0.000393701; stroke-opacity:1; 
stroke-linecap:round; stroke-linejoin:round;">
</g>
<g style="fill:#000000; fill-opacity:0.0; 
stroke:#000000; stroke-width:39.3701; stroke-opacity:1; 
stroke-linecap:round; stroke-linejoin:round;">
</g>
<g style="fill:#000000; fill-opacity:0.0; 
stroke:#000000; stroke-width:59.0551; stroke-opacity:1; 
stroke-linecap:round; stroke-linejoin:round;">
<rect x="69685.9" y="65357.2" width="42519.7" height="12598.4" rx="0" />
</g>
<g style="fill:#000000; fill-opacity:0.0; 
stroke:#000000; stroke-width:39.3701; stroke-opacity:1; 
stroke-linecap:round; stroke-linejoin:round;">
</g>
<g style="fill:#000000; fill-opacity:0.0; 
stroke:#000000; stroke-width:59.0551; stroke-opacity:1; 
stroke-linecap:round; stroke-linejoin:round;">
<rect x="3937.01" y="3937.01" width="109056" height="74806" rx="0" />
</g>
<g style="fill:#000000; fill-opacity:0.0; 
stroke:#000000; stroke-width:39.3701; stroke-opacity:1; 
stroke-linecap:round; stroke-linejoin:round;">
</g>
<g style="fill:#000000; fill-opacity:0.0; 
stroke:#000000; stroke-width:59.0551; stroke-opacity:1; 
stroke-linecap:round; stroke-linejoin:round;">
<rect x="4724.41" y="4724.41" width="107481" height="73231.2" rx="0" />
</g>
<g style="fill:#000000; fill-opacity:0.0; 
stroke:#000000; stroke-width:39.3701; stroke-opacity:1; 
stroke-linecap:round; stroke-linejoin:round;">
</g>
<g style="fill:#000000; fill-opacity:0.0; 
stroke:#000000; stroke-width:59.0551; stroke-opacity:1; 
stroke-linecap:round; stroke-linejoin:round;">
<path d="M23622 4724
L23622 3937
" />
</g>
<g style="fill:#000000; fill-opacity:0.0; 
stroke:#000000; stroke-width:39.3701; stroke-opacity:1; 
stroke-linecap:round; stroke-linejoin:round;">
</g>
<g style="fill:#000000; fill-opacity:0.0; 
stroke:#000000; stroke-width:59.0551; stroke-opacity:1; 
stroke-linecap:round; stroke-linejoin:round;">
<path d="M43307 4724
L43307 3937
" />
</g>
<g style="fill:#000000; fill-opacity:0.0; 
stroke:#000000; stroke-width:39.3701; stroke-opacity:1; 
stroke-linecap:round; stroke-linejoin:round;">
</g>
<g style="fill:#000000; fill-opacity:0.0; 
stroke:#000000; stroke-width:59.0551; stroke-opacity:1; 
stroke-linecap:round; stroke-linejoin:round;">
<path d="M62992 4724
L62992 3937
" />
</g>
<g style="fill:#000000; fill-opacity:0.0; 
stroke:#000000; stroke-width:39.3701; stroke-opacity:1; 
stroke-linecap:round; stroke-linejoin:round;">
</g>
<g style="fill:#000000; fill-opacity:0.0; 
stroke:#000000; stroke-width:59.0551; stroke-opacity:1; 
stroke-linecap:round; stroke-linejoin:round;">
<path d="M82677 4724
L82677 3937
" />
</g>
<g style="fill:#000000; fill-opacity:0.0; 
stroke:#000000; stroke-width:39.3701; stroke-opacity:1; 
stroke-linecap:round; stroke-linejoin:round;">
</g>
<g style="fill:#000000; fill-opacity:0.0; 
stroke:#000000; stroke-width:59.0551; stroke-opacity:1; 
stroke-linecap:round; stroke-linejoin:round;">
<path d="M102362 4724
L102362 3937
" />
</g>
<g style="fill:#000000; fill-opacity:0.0; 
stroke:#000000; stroke-width:39.3701; stroke-opacity:1; 
stroke-linecap:round; stroke-linejoin:round;">
</g>
<g style="fill:#000000; fill-opacity:0.0; 
stroke:#000000; stroke-width:59.0551; stroke-opacity:1; 
stroke-linecap:round; stroke-linejoin:round;">
<path d="M14169 4562
L13877 4562
" />
<path d="M14023 4562
L14023 4050
L13974 4123
L13925 4172
L13877 4196
" />
</g>
<g style="fill:#000000; fill-opacity:0.0; 
stroke:#000000; stroke-width:39.3701; stroke-opacity:1; 
stroke-linecap:round; stroke-linejoin:round;">
</g>
<g style="fill:#000000; fill-opacity:0.0; 
stroke:#000000; stroke-width:59.0551; stroke-opacity:1; 
stroke-linecap:round; stroke-linejoin:round;">
<path d="M33562 4099
L33586 4074
L33635 4050
L33757 4050
L33805 4074
L33830 4099
L33854 4147
L33854 4196
L33830 4269
L33537 4562
L33854 4562
" />
</g>
<g style="fill:#000000; fill-opacity:0.0; 
stroke:#000000; stroke-width:39.3701; stroke-opacity:1; 
stroke-linecap:round; stroke-linejoin:round;">
</g>
<g style="fill:#000000; fill-opacity:0.0; 
stroke:#000000; stroke-width:59.0551; stroke-opacity:1; 
stroke-linecap:round; stroke-linejoin:round;">
<path d="M53222 4050
L53539 4050
L53368 4245
L53442 4245
L53490 4269
L53515 4294
L53539 4342
L53539 4464
L53515 4513
L53490 4537
L53442 4562
L53295 4562
L53247 4537
L53222 4513
" />
</g>
<g style="fill:#000000; fill-opacity:0.0; 
stroke:#000000; stroke-width:39.3701; stroke-opacity:1; 
stroke-linecap:round; stroke-linejoin:round;">
</g>
<g style="fill:#000000; fill-opacity:0.0; 
stroke:#000000; stroke-width:59.0551; stroke-opacity:1; 
stroke-linecap:round; stroke-linejoin:round;">
<path d="M73175 4221
L73175 4562
" />
<path d="M73053 4026
L72932 4391
L73248 4391
" />
</g>
<g style="fill:#000000; fill-opacity:0.0; 
stroke:#000000; stroke-width:39.3701; stroke-opacity:1; 
stroke-linecap:round; stroke-linejoin:round;">
</g>
<g style="fill:#000000; fill-opacity:0.0; 
stroke:#000000; stroke-width:59.0551; stroke-opacity:1; 
stroke-linecap:round; stroke-linejoin:round;">
<path d="M92885 4050
L92641 4050
L92617 4294
L92641 4269
L92690 4245
L92812 4245
L92860 4269
L92885 4294
L92909 4342
L92909 4464
L92885 4513
L92860 4537
L92812 4562
L92690 4562
L92641 4537
L92617 4513
" />
</g>
<g style="fill:#000000; fill-opacity:0.0; 
stroke:#000000; stroke-width:39.3701; stroke-opacity:1; 
stroke-linecap:round; stroke-linejoin:round;">
</g>
<g style="fill:#000000; fill-opacity:0.0; 
stroke:#000000; stroke-width:59.0551; stroke-opacity:1; 
stroke-linecap:round; stroke-linejoin:round;">
<path d="M112545 4050
L112448 4050
L112399 4074
L112375 4099
L112326 4172
L112302 4269
L112302 4464
L112326 4513
L112350 4537
L112399 4562
L112497 4562
L112545 4537
L112570 4513
L112594 4464
L112594 4342
L112570 4294
L112545 4269
L112497 4245
L112399 4245
L112350 4269
L112326 4294
L112302 4342
" />
</g>
<g style="fill:#000000; fill-opacity:0.0; 
stroke:#000000; stroke-width:39.3701; stroke-opacity:1; 
stroke-linecap:round; stroke-linejoin:round;">
</g>
<g style="fill:#000000; fill-opacity:0.0; 
stroke:#000000; stroke-width:59.0551; stroke-opacity:1; 
stroke-linecap:round; stroke-linejoin:round;">
<path d="M23622 77955
L23622 78742
" />
</g>
<g style="fill:#000000; fill-opacity:0.0; 
stroke:#000000; stroke-width:39.3701; stroke-opacity:1; 
stroke-linecap:round; stroke-linejoin:round;">
</g>
<g style="fill:#000000; fill-opacity:0.0; 
stroke:#000000; stroke-width:59.0551; stroke-opacity:1; 
stroke-linecap:round; stroke-linejoin:round;">
<path d="M43307 77955
L43307 78742
" />
</g>
<g style="fill:#000000; fill-opacity:0.0; 
stroke:#000000; stroke-width:39.3701; stroke-opacity:1; 
stroke-linecap:round; stroke-linejoin:round;">
</g>
<g style="fill:#000000; fill-opacity:0.0; 
stroke:#000000; stroke-width:59.0551; stroke-opacity:1; 
stroke-linecap:round; stroke-linejoin:round;">
<path d="M62992 77955
L62992 78742
" />
</g>
<g style="fill:#000000; fill-opacity:0.0; 
stroke:#000000; stroke-width:39.3701; stroke-opacity:1; 
stroke-linecap:round; stroke-linejoin:round;">
</g>
<g style="fill:#000000; fill-opacity:0.0; 
stroke:#000000; stroke-width:59.0551; stroke-opacity:1; 
stroke-linecap:round; stroke-linejoin:round;">
<path d="M82677 77955
L82677 78742
" />
</g>
<g style="fill:#000000; fill-opacity:0.0; 
stroke:#000000; stroke-width:39.3701; stroke-opacity:1; 
stroke-linecap:round; stroke-linejoin:round;">
</g>
<g style="fill:#000000; fill-opacity:0.0; 
stroke:#000000; stroke-width:59.0551; stroke-opacity:1; 
stroke-linecap:round; stroke-linejoin:round;">
<path d="M102362 77955
L102362 78742
" />
</g>
<g style="fill:#000000; fill-opacity:0.0; 
stroke:#000000; stroke-width:39.3701; stroke-opacity:1; 
stroke-linecap:round; stroke-linejoin:round;">
</g>
<g style="fill:#000000; fill-opacity:0.0; 
stroke:#000000; stroke-width:59.0551; stroke-opacity:1; 
stroke-linecap:round; stroke-linejoin:round;">
<path d="M14169 78580
L13877 78580
" />
<path d="M14023 78580
L14023 78069
L13974 78142
L13925 78190
L13877 78215
" />
</g>
<g style="fill:#000000; fill-opacity:0.0; 
stroke:#000000; stroke-width:39.3701; stroke-opacity:1; 
stroke-linecap:round; stroke-linejoin:round;">
</g>
<g style="fill:#000000; fill-opacity:0.0; 
stroke:#000000; stroke-width:59.0551; stroke-opacity:1; 
stroke-linecap:round; stroke-linejoin:round;">
<path d="M33562 78117
L33586 78093
L33635 78069
L33757 78069
L33805 78093
L33830 78117
L33854 78166
L33854 78215
L33830 78288
L33537 78580
L33854 78580
" />
</g>
<g style="fill:#000000; fill-opacity:0.0; 
stroke:#000000; stroke-width:39.3701; stroke-opacity:1; 
stroke-linecap:round; stroke-linejoin:round;">
</g>
<g style="fill:#000000; fill-opacity:0.0; 
stroke:#000000; stroke-width:59.0551; stroke-opacity:1; 
stroke-linecap:round; stroke-linejoin:round;">
<path d="M53222 78069
L53539 78069
L53368 78263
L53442 78263
L53490 78288
L53515 78312
L53539 78361
L53539 78483
L53515 78532
L53490 78556
L53442 78580
L53295 78580
L53247 78556
L53222 78532
" />
</g>
<g style="fill:#000000; fill-opacity:0.0; 
stroke:#000000; stroke-width:39.3701; stroke-opacity:1; 
stroke-linecap:round; stroke-linejoin:round;">
</g>
<g style="fill:#000000; fill-opacity:0.0; 
stroke:#000000; stroke-width:59.0551; stroke-opacity:1; 
stroke-linecap:round; stroke-linejoin:round;">
<path d="M73175 78239
L73175 78580
" />
<path d="M73053 78044
L72932 78410
L73248 78410
" />
</g>
<g style="fill:#000000; fill-opacity:0.0; 
stroke:#000000; stroke-width:39.3701; stroke-opacity:1; 
stroke-linecap:round; stroke-linejoin:round;">
</g>
<g style="fill:#000000; fill-opacity:0.0; 
stroke:#000000; stroke-width:59.0551; stroke-opacity:1; 
stroke-linecap:round; stroke-linejoin:round;">
<path d="M92885 78069
L92641 78069
L92617 78312
L92641 78288
L92690 78263
L92812 78263
L92860 78288
L92885 78312
L92909 78361
L92909 78483
L92885 78532
L92860 78556
L92812 78580
L92690 78580
L92641 78556
L92617 78532
" />
</g>
<g style="fill:#000000; fill-opacity:0.0; 
stroke:#000000; stroke-width:39.3701; stroke-opacity:1; 
stroke-linecap:round; stroke-linejoin:round;">
</g>
<g style="fill:#000000; fill-opacity:0.0; 
stroke:#000000; stroke-width:59.0551; stroke-opacity:1; 
stroke-linecap:round; stroke-linejoin:round;">
<path d="M112545 78069
L112448 78069
L112399 78093
L112375 78117
L112326 78190
L112302 78288
L112302 78483
L112326 78532
L112350 78556
L112399 78580
L112497 78580
L112545 78556
L112570 78532
L112594 78483
L112594 78361
L112570 78312
L112545 78288
L112497 78263
L112399 78263
L112350 78288
L112326 78312
L112302 78361
" />
</g>
<g style="fill:#000000; fill-opacity:0.0; 
stroke:#000000; stroke-width:39.3701; stroke-opacity:1; 
stroke-linecap:round; stroke-linejoin:round;">
</g>
<g style="fill:#000000; fill-opacity:0.0; 
stroke:#000000; stroke-width:59.0551; stroke-opacity:1; 
stroke-linecap:round; stroke-linejoin:round;">
<path d="M3937 23622
L4724 23622
" />
</g>
<g style="fill:#000000; fill-opacity:0.0; 
stroke:#000000; stroke-width:39.3701; stroke-opacity:1; 
stroke-linecap:round; stroke-linejoin:round;">
</g>
<g style="fill:#000000; fill-opacity:0.0; 
stroke:#000000; stroke-width:59.0551; stroke-opacity:1; 
stroke-linecap:round; stroke-linejoin:round;">
<path d="M3937 43307
L4724 43307
" />
</g>
<g style="fill:#000000; fill-opacity:0.0; 
stroke:#000000; stroke-width:39.3701; stroke-opacity:1; 
stroke-linecap:round; stroke-linejoin:round;">
</g>
<g style="fill:#000000; fill-opacity:0.0; 
stroke:#000000; stroke-width:59.0551; stroke-opacity:1; 
stroke-linecap:round; stroke-linejoin:round;">
<path d="M3937 62992
L4724 62992
" />
</g>
<g style="fill:#000000; fill-opacity:0.0; 
stroke:#000000; stroke-width:39.3701; stroke-opacity:1; 
stroke-linecap:round; stroke-linejoin:round;">
</g>
<g style="fill:#000000; fill-opacity:0.0; 
stroke:#000000; stroke-width:59.0551; stroke-opacity:1; 
stroke-linecap:round; stroke-linejoin:round;">
<path d="M4208 13864
L4452 13864
" />
<path d="M4160 14011
L4330 13499
L4501 14011
" />
</g>
<g style="fill:#000000; fill-opacity:0.0; 
stroke:#000000; stroke-width:39.3701; stroke-opacity:1; 
stroke-linecap:round; stroke-linejoin:round;">
</g>
<g style="fill:#000000; fill-opacity:0.0; 
stroke:#000000; stroke-width:59.0551; stroke-opacity:1; 
stroke-linecap:round; stroke-linejoin:round;">
<path d="M4367 33428
L4440 33452
L4464 33476
L4489 33525
L4489 33598
L4464 33647
L4440 33671
L4391 33696
L4196 33696
L4196 33184
L4367 33184
L4416 33208
L4440 33233
L4464 33281
L4464 33330
L4440 33379
L4416 33403
L4367 33428
L4196 33428
" />
</g>
<g style="fill:#000000; fill-opacity:0.0; 
stroke:#000000; stroke-width:39.3701; stroke-opacity:1; 
stroke-linecap:round; stroke-linejoin:round;">
</g>
<g style="fill:#000000; fill-opacity:0.0; 
stroke:#000000; stroke-width:59.0551; stroke-opacity:1; 
stroke-linecap:round; stroke-linejoin:round;">
<path d="M4489 53332
L4464 53356
L4391 53381
L4342 53381
L4269 53356
L4221 53308
L4196 53259
L4172 53161
L4172 53088
L4196 52991
L4221 52942
L4269 52893
L4342 52869
L4391 52869
L4464 52893
L4489 52918
" />
</g>
<g style="fill:#000000; fill-opacity:0.0; 
stroke:#000000; stroke-width:39.3701; stroke-opacity:1; 
stroke-linecap:round; stroke-linejoin:round;">
</g>
<g style="fill:#000000; fill-opacity:0.0; 
stroke:#000000; stroke-width:59.0551; stroke-opacity:1; 
stroke-linecap:round; stroke-linejoin:round;">
<path d="M4196 73066
L4196 72554
L4318 72554
L4391 72578
L4440 72627
L4464 72676
L4489 72773
L4489 72846
L4464 72944
L4440 72993
L4391 73041
L4318 73066
L4196 73066
" />
</g>
<g style="fill:#000000; fill-opacity:0.0; 
stroke:#000000; stroke-width:39.3701; stroke-opacity:1; 
stroke-linecap:round; stroke-linejoin:round;">
</g>
<g style="fill:#000000; fill-opacity:0.0; 
stroke:#000000; stroke-width:59.0551; stroke-opacity:1; 
stroke-linecap:round; stroke-linejoin:round;">
<path d="M112992 23622
L112205 23622
" />
</g>
<g style="fill:#000000; fill-opacity:0.0; 
stroke:#000000; stroke-width:39.3701; stroke-opacity:1; 
stroke-linecap:round; stroke-linejoin:round;">
</g>
<g style="fill:#000000; fill-opacity:0.0; 
stroke:#000000; stroke-width:59.0551; stroke-opacity:1; 
stroke-linecap:round; stroke-linejoin:round;">
<path d="M112992 43307
L112205 43307
" />
</g>
<g style="fill:#000000; fill-opacity:0.0; 
stroke:#000000; stroke-width:39.3701; stroke-opacity:1; 
stroke-linecap:round; stroke-linejoin:round;">
</g>
<g style="fill:#000000; fill-opacity:0.0; 
stroke:#000000; stroke-width:59.0551; stroke-opacity:1; 
stroke-linecap:round; stroke-linejoin:round;">
<path d="M112992 62992
L112205 62992
" />
</g>
<g style="fill:#000000; fill-opacity:0.0; 
stroke:#000000; stroke-width:39.3701; stroke-opacity:1; 
stroke-linecap:round; stroke-linejoin:round;">
</g>
<g style="fill:#000000; fill-opacity:0.0; 
stroke:#000000; stroke-width:59.0551; stroke-opacity:1; 
stroke-linecap:round; stroke-linejoin:round;">
<path d="M112477 13864
L112721 13864
" />
<path d="M112428 14011
L112599 13499
L112769 14011
" />
</g>
<g style="fill:#000000; fill-opacity:0.0; 
stroke:#000000; stroke-width:39.3701; stroke-opacity:1; 
stroke-linecap:round; stroke-linejoin:round;">
</g>
<g style="fill:#000000; fill-opacity:0.0; 
stroke:#000000; stroke-width:59.0551; stroke-opacity:1; 
stroke-linecap:round; stroke-linejoin:round;">
<path d="M112635 33428
L112708 33452
L112733 33476
L112757 33525
L112757 33598
L112733 33647
L112708 33671
L112660 33696
L112465 33696
L112465 33184
L112635 33184
L112684 33208
L112708 33233
L112733 33281
L112733 33330
L112708 33379
L112684 33403
L112635 33428
L112465 33428
" />
</g>
<g style="fill:#000000; fill-opacity:0.0; 
stroke:#000000; stroke-width:39.3701; stroke-opacity:1; 
stroke-linecap:round; stroke-linejoin:round;">
</g>
<g style="fill:#000000; fill-opacity:0.0; 
stroke:#000000; stroke-width:59.0551; stroke-opacity:1; 
stroke-linecap:round; stroke-linejoin:round;">
<path d="M112757 53332
L112733 53356
L112660 53381
L112611 53381
L112538 53356
L112489 53308
L112465 53259
L112440 53161
L112440 53088
L112465 52991
L112489 52942
L112538 52893
L112611 52869
L112660 52869
L112733 52893
L112757 52918
" />
</g>
<g style="fill:#000000; fill-opacity:0.0; 
stroke:#000000; stroke-width:39.3701; stroke-opacity:1; 
stroke-linecap:round; stroke-linejoin:round;">
</g>
<g style="fill:#000000; fill-opacity:0.0; 
stroke:#000000; stroke-width:59.0551; stroke-opacity:1; 
stroke-linecap:round; stroke-linejoin:round;">
<path d="M112465 73066
L112465 72554
L112587 72554
L112660 72578
L112708 72627
L112733 72676
L112757 72773
L112757 72846
L112733 72944
L112708 72993
L112660 73041
L112587 73066
L112465 73066
" />
</g>
<g style="fill:#000000; fill-opacity:0.0; 
stroke:#000000; stroke-width:39.3701; stroke-opacity:1; 
stroke-linecap:round; stroke-linejoin:round;">
</g>
<g style="fill:#000000; fill-opacity:0.0; 
stroke:#000000; stroke-width:59.0551; stroke-opacity:1; 
stroke-linecap:round; stroke-linejoin:round;">
<path d="M78881 76293
L78881 75703
L79022 75703
L79106 75731
L79162 75787
L79190 75843
L79219 75956
L79219 76040
L79190 76153
L79162 76209
L79106 76265
L79022 76293
L78881 76293
" />
<path d="M79725 76293
L79725 75984
L79697 75928
L79640 75899
L79528 75899
L79472 75928
" />
<path d="M79725 76265
L79669 76293
L79528 76293
L79472 76265
L79444 76209
L79444 76153
L79472 76096
L79528 76068
L79669 76068
L79725 76040
" />
<path d="M79922 75899
L80147 75899
" />
<path d="M80006 75703
L80006 76209
L80034 76265
L80090 76293
L80147 76293
" />
<path d="M80568 76265
L80512 76293
L80400 76293
L80343 76265
L80315 76209
L80315 75984
L80343 75928
L80400 75899
L80512 75899
L80568 75928
L80597 75984
L80597 76040
L80315 76096
" />
<path d="M80850 76237
L80878 76265
L80850 76293
L80822 76265
L80850 76237
L80850 76293
" />
<path d="M80850 75928
L80878 75956
L80850 75984
L80822 75956
L80850 75928
L80850 75984
" />
</g>
<g style="fill:#000000; fill-opacity:0.0; 
stroke:#000000; stroke-width:39.3701; stroke-opacity:1; 
stroke-linecap:round; stroke-linejoin:round;">
</g>
<g style="fill:#000000; fill-opacity:0.0; 
stroke:#000000; stroke-width:59.0551; stroke-opacity:1; 
stroke-linecap:round; stroke-linejoin:round;">
<path d="M69685 76577
L112205 76577
" />
</g>
<g style="fill:#000000; fill-opacity:0.0; 
stroke:#000000; stroke-width:39.3701; stroke-opacity:1; 
stroke-linecap:round; stroke-linejoin:round;">
</g>
<g style="fill:#000000; fill-opacity:0.0; 
stroke:#000000; stroke-width:59.0551; stroke-opacity:1; 
stroke-linecap:round; stroke-linejoin:round;">
<path d="M70220 77395
L70220 76805
" />
<path d="M70557 77395
L70304 77058
" />
<path d="M70557 76805
L70220 77142
" />
<path d="M70810 77395
L70810 77002
" />
<path d="M70810 76805
L70782 76833
L70810 76861
L70838 76833
L70810 76805
L70810 76861
" />
<path d="M71429 77339
L71401 77367
L71316 77395
L71260 77395
L71176 77367
L71120 77311
L71091 77255
L71063 77142
L71063 77058
L71091 76946
L71120 76889
L71176 76833
L71260 76805
L71316 76805
L71401 76833
L71429 76861
" />
<path d="M71935 77395
L71935 77086
L71907 77030
L71851 77002
L71738 77002
L71682 77030
" />
<path d="M71935 77367
L71879 77395
L71738 77395
L71682 77367
L71654 77311
L71654 77255
L71682 77199
L71738 77171
L71879 77171
L71935 77142
" />
<path d="M72469 77395
L72469 76805
" />
<path d="M72469 77367
L72413 77395
L72301 77395
L72244 77367
L72216 77339
L72188 77283
L72188 77114
L72216 77058
L72244 77030
L72301 77002
L72413 77002
L72469 77030
" />
<path d="M73201 77086
L73397 77086
" />
<path d="M73482 77395
L73201 77395
L73201 76805
L73482 76805
" />
<path d="M73735 77339
L73763 77367
L73735 77395
L73707 77367
L73735 77339
L73735 77395
" />
<path d="M74016 77395
L74016 76805
L74157 76805
L74241 76833
L74297 76889
L74325 76946
L74354 77058
L74354 77142
L74325 77255
L74297 77311
L74241 77367
L74157 77395
L74016 77395
" />
<path d="M74607 77339
L74635 77367
L74607 77395
L74579 77367
L74607 77339
L74607 77395
" />
<path d="M74860 77227
L75141 77227
" />
<path d="M74804 77395
L75000 76805
L75197 77395
" />
<path d="M75394 77339
L75422 77367
L75394 77395
L75366 77367
L75394 77339
L75394 77395
" />
<path d="M76575 77395
L76575 76805
" />
<path d="M76631 77171
L76800 77395
" />
<path d="M76800 77002
L76575 77227
" />
<path d="M77053 77395
L77053 77002
" />
<path d="M77053 76805
L77025 76833
L77053 76861
L77081 76833
L77053 76805
L77053 76861
" />
<path d="M77588 77367
L77531 77395
L77419 77395
L77363 77367
L77334 77339
L77306 77283
L77306 77114
L77334 77058
L77363 77030
L77419 77002
L77531 77002
L77588 77030
" />
<path d="M78094 77395
L78094 77086
L78066 77030
L78009 77002
L77897 77002
L77841 77030
" />
<path d="M78094 77367
L78037 77395
L77897 77395
L77841 77367
L77813 77311
L77813 77255
L77841 77199
L77897 77171
L78037 77171
L78094 77142
" />
<path d="M78628 77395
L78628 76805
" />
<path d="M78628 77367
L78572 77395
L78459 77395
L78403 77367
L78375 77339
L78347 77283
L78347 77114
L78375 77058
L78403 77030
L78459 77002
L78572 77002
L78628 77030
" />
<path d="M79612 77002
L79612 77395
" />
<path d="M79472 76777
L79331 77199
L79697 77199
" />
<path d="M79922 77339
L79950 77367
L79922 77395
L79894 77367
L79922 77339
L79922 77395
" />
<path d="M80315 76805
L80372 76805
L80428 76833
L80456 76861
L80484 76917
L80512 77030
L80512 77171
L80484 77283
L80456 77339
L80428 77367
L80372 77395
L80315 77395
L80259 77367
L80231 77339
L80203 77283
L80175 77171
L80175 77030
L80203 76917
L80231 76861
L80259 76833
L80315 76805
" />
<path d="M80765 77339
L80793 77367
L80765 77395
L80737 77367
L80765 77339
L80765 77395
" />
<path d="M81018 76861
L81046 76833
L81103 76805
L81243 76805
L81300 76833
L81328 76861
L81356 76917
L81356 76974
L81328 77058
L80990 77395
L81356 77395
" />
<path d="M81609 77171
L82059 77171
" />
<path d="M82312 77367
L82368 77395
L82481 77395
L82537 77367
L82565 77311
L82565 77283
L82537 77227
L82481 77199
L82396 77199
L82340 77171
L82312 77114
L82312 77086
L82340 77030
L82396 77002
L82481 77002
L82537 77030
" />
<path d="M82734 77002
L82959 77002
" />
<path d="M82818 76805
L82818 77311
L82846 77367
L82903 77395
L82959 77395
" />
<path d="M83409 77395
L83409 77086
L83381 77030
L83324 77002
L83212 77002
L83156 77030
" />
<path d="M83409 77367
L83352 77395
L83212 77395
L83156 77367
L83127 77311
L83127 77255
L83156 77199
L83212 77171
L83352 77171
L83409 77142
" />
<path d="M83690 77395
L83690 76805
" />
<path d="M83690 77030
L83746 77002
L83859 77002
L83915 77030
L83943 77058
L83971 77114
L83971 77283
L83943 77339
L83915 77367
L83859 77395
L83746 77395
L83690 77367
" />
<path d="M84309 77395
L84252 77367
L84224 77311
L84224 76805
" />
<path d="M84759 77367
L84702 77395
L84590 77395
L84534 77367
L84505 77311
L84505 77086
L84534 77030
L84590 77002
L84702 77002
L84759 77030
L84787 77086
L84787 77142
L84505 77199
" />
</g>
<g style="fill:#000000; fill-opacity:0.0; 
stroke:#000000; stroke-width:39.3701; stroke-opacity:1; 
stroke-linecap:round; stroke-linejoin:round;">
</g>
<g style="fill:#000000; fill-opacity:0.0; 
stroke:#000000; stroke-width:59.0551; stroke-opacity:1; 
stroke-linecap:round; stroke-linejoin:round;">
<path d="M69685 75396
L112205 75396
" />
</g>
<g style="fill:#000000; fill-opacity:0.0; 
stroke:#000000; stroke-width:39.3701; stroke-opacity:1; 
stroke-linecap:round; stroke-linejoin:round;">
</g>
<g style="fill:#000000; fill-opacity:0.0; 
stroke:#000000; stroke-width:118.11; stroke-opacity:1; 
stroke-linecap:round; stroke-linejoin:round;">
<path d="M104022 76293
L103825 76012
" />
<path d="M103684 76293
L103684 75703
L103909 75703
L103965 75731
L103994 75759
L104022 75815
L104022 75899
L103994 75956
L103965 75984
L103909 76012
L103684 76012
" />
<path d="M104500 76265
L104444 76293
L104331 76293
L104275 76265
L104247 76209
L104247 75984
L104275 75928
L104331 75899
L104444 75899
L104500 75928
L104528 75984
L104528 76040
L104247 76096
" />
<path d="M104725 75899
L104865 76293
L105006 75899
" />
<path d="M105231 76237
L105259 76265
L105231 76293
L105203 76265
L105231 76237
L105231 76293
" />
<path d="M105231 75928
L105259 75956
L105231 75984
L105203 75956
L105231 75928
L105231 75984
" />
</g>
<g style="fill:#000000; fill-opacity:0.0; 
stroke:#000000; stroke-width:39.3701; stroke-opacity:1; 
stroke-linecap:round; stroke-linejoin:round;">
</g>
<g style="fill:#000000; fill-opacity:0.0; 
stroke:#000000; stroke-width:59.0551; stroke-opacity:1; 
stroke-linecap:round; stroke-linejoin:round;">
<path d="M70192 76265
L70276 76293
L70417 76293
L70473 76265
L70501 76237
L70529 76181
L70529 76124
L70501 76068
L70473 76040
L70417 76012
L70304 75984
L70248 75956
L70220 75928
L70192 75871
L70192 75815
L70220 75759
L70248 75731
L70304 75703
L70445 75703
L70529 75731
" />
<path d="M70782 76293
L70782 75899
" />
<path d="M70782 75703
L70754 75731
L70782 75759
L70810 75731
L70782 75703
L70782 75759
" />
<path d="M71007 75899
L71316 75899
L71007 76293
L71316 76293
" />
<path d="M71766 76265
L71710 76293
L71598 76293
L71541 76265
L71513 76209
L71513 75984
L71541 75928
L71598 75899
L71710 75899
L71766 75928
L71795 75984
L71795 76040
L71513 76096
" />
<path d="M72048 76237
L72076 76265
L72048 76293
L72019 76265
L72048 76237
L72048 76293
" />
<path d="M72048 75928
L72076 75956
L72048 75984
L72019 75956
L72048 75928
L72048 75984
" />
<path d="M72751 76124
L73032 76124
" />
<path d="M72694 76293
L72891 75703
L73088 76293
" />
<path d="M73538 75899
L73538 76293
" />
<path d="M73397 75674
L73257 76096
L73622 76096
" />
</g>
<g style="fill:#000000; fill-opacity:0.0; 
stroke:#000000; stroke-width:39.3701; stroke-opacity:1; 
stroke-linecap:round; stroke-linejoin:round;">
</g>
<g style="fill:#000000; fill-opacity:0.0; 
stroke:#000000; stroke-width:59.0551; stroke-opacity:1; 
stroke-linecap:round; stroke-linejoin:round;">
<path d="M103684 77395
L103684 76805
" />
<path d="M104219 77395
L104219 76805
" />
<path d="M104219 77367
L104162 77395
L104050 77395
L103994 77367
L103965 77339
L103937 77283
L103937 77114
L103965 77058
L103994 77030
L104050 77002
L104162 77002
L104219 77030
" />
<path d="M104500 77339
L104528 77367
L104500 77395
L104472 77367
L104500 77339
L104500 77395
" />
<path d="M104500 77030
L104528 77058
L104500 77086
L104472 77058
L104500 77030
L104500 77086
" />
<path d="M105540 77395
L105203 77395
" />
<path d="M105372 77395
L105372 76805
L105315 76889
L105259 76946
L105203 76974
" />
<path d="M106215 76777
L105709 77536
" />
<path d="M106721 77395
L106384 77395
" />
<path d="M106553 77395
L106553 76805
L106496 76889
L106440 76946
L106384 76974
" />
</g>
<g style="fill:#000000; fill-opacity:0.0; 
stroke:#000000; stroke-width:39.3701; stroke-opacity:1; 
stroke-linecap:round; stroke-linejoin:round;">
</g>
<g style="fill:#000000; fill-opacity:0.0; 
stroke:#000000; stroke-width:59.0551; stroke-opacity:1; 
stroke-linecap:round; stroke-linejoin:round;">
<path d="M69685 73821
L112205 73821
" />
</g>
<g style="fill:#000000; fill-opacity:0.0; 
stroke:#000000; stroke-width:39.3701; stroke-opacity:1; 
stroke-linecap:round; stroke-linejoin:round;">
</g>
<g style="fill:#000000; fill-opacity:0.0; 
stroke:#000000; stroke-width:157.48; stroke-opacity:1; 
stroke-linecap:round; stroke-linejoin:round;">
<path d="M70257 74099
L70707 74099
" />
<path d="M70384 74886
L70482 74099
" />
<path d="M70871 74886
L70937 74361
" />
<path d="M70970 74099
L70927 74136
L70960 74174
L71002 74136
L70970 74099
L70960 74174
" />
<path d="M71199 74361
L71499 74361
" />
<path d="M71345 74099
L71260 74774
L71288 74849
L71359 74886
L71434 74886
" />
<path d="M71809 74886
L71738 74849
L71710 74774
L71795 74099
" />
<path d="M72413 74849
L72334 74886
L72184 74886
L72113 74849
L72085 74774
L72123 74474
L72169 74399
L72249 74361
L72399 74361
L72469 74399
L72498 74474
L72488 74549
L72104 74624
" />
<path d="M72793 74811
L72826 74849
L72783 74886
L72751 74849
L72793 74811
L72783 74886
" />
<path d="M72844 74399
L72877 74436
L72835 74474
L72802 74436
L72844 74399
L72835 74474
" />
</g>
<g style="fill:#000000; fill-opacity:0.0; 
stroke:#000000; stroke-width:39.3701; stroke-opacity:1; 
stroke-linecap:round; stroke-linejoin:round;">
</g>
<g style="fill:#000000; fill-opacity:0.0; 
stroke:#000000; stroke-width:59.0551; stroke-opacity:1; 
stroke-linecap:round; stroke-linejoin:round;">
<path d="M70417 73070
L70220 73070
" />
<path d="M70220 73380
L70220 72789
L70501 72789
" />
<path d="M70726 73380
L70726 72986
" />
<path d="M70726 72789
L70698 72817
L70726 72845
L70754 72817
L70726 72789
L70726 72845
" />
<path d="M71091 73380
L71035 73352
L71007 73295
L71007 72789
" />
<path d="M71541 73352
L71485 73380
L71373 73380
L71316 73352
L71288 73295
L71288 73070
L71316 73014
L71373 72986
L71485 72986
L71541 73014
L71570 73070
L71570 73127
L71288 73183
" />
<path d="M71823 73323
L71851 73352
L71823 73380
L71795 73352
L71823 73323
L71823 73380
" />
<path d="M71823 73014
L71851 73042
L71823 73070
L71795 73042
L71823 73014
L71823 73070
" />
<path d="M72526 73352
L72582 73380
L72694 73380
L72751 73352
L72779 73295
L72779 73267
L72751 73211
L72694 73183
L72610 73183
L72554 73155
L72526 73099
L72526 73070
L72554 73014
L72610 72986
L72694 72986
L72751 73014
" />
<path d="M73257 73352
L73201 73380
L73088 73380
L73032 73352
L73004 73295
L73004 73070
L73032 73014
L73088 72986
L73201 72986
L73257 73014
L73285 73070
L73285 73127
L73004 73183
" />
<path d="M73538 73380
L73538 72986
" />
<path d="M73538 73099
L73566 73042
L73594 73014
L73651 72986
L73707 72986
" />
<path d="M73904 73380
L73904 72986
" />
<path d="M73904 72789
L73876 72817
L73904 72845
L73932 72817
L73904 72789
L73904 72845
" />
<path d="M74438 73380
L74438 73070
L74410 73014
L74354 72986
L74241 72986
L74185 73014
" />
<path d="M74438 73352
L74382 73380
L74241 73380
L74185 73352
L74157 73295
L74157 73239
L74185 73183
L74241 73155
L74382 73155
L74438 73127
" />
<path d="M74804 73380
L74747 73352
L74719 73295
L74719 72789
" />
<path d="M74888 73436
L75338 73436
" />
<path d="M75563 73380
L75507 73352
L75478 73323
L75450 73267
L75450 73099
L75478 73042
L75507 73014
L75563 72986
L75647 72986
L75703 73014
L75732 73042
L75760 73099
L75760 73267
L75732 73323
L75703 73352
L75647 73380
L75563 73380
" />
<path d="M76013 72986
L76013 73577
" />
<path d="M76013 73014
L76069 72986
L76181 72986
L76238 73014
L76266 73042
L76294 73099
L76294 73267
L76266 73323
L76238 73352
L76181 73380
L76069 73380
L76013 73352
" />
<path d="M76463 72986
L76688 72986
" />
<path d="M76547 72789
L76547 73295
L76575 73352
L76631 73380
L76688 73380
" />
<path d="M76885 73380
L76885 72986
" />
<path d="M76885 72789
L76856 72817
L76885 72845
L76913 72817
L76885 72789
L76885 72845
" />
<path d="M77419 73352
L77363 73380
L77250 73380
L77194 73352
L77166 73323
L77138 73267
L77138 73099
L77166 73042
L77194 73014
L77250 72986
L77363 72986
L77419 73014
" />
<path d="M77925 73380
L77925 73070
L77897 73014
L77841 72986
L77728 72986
L77672 73014
" />
<path d="M77925 73352
L77869 73380
L77728 73380
L77672 73352
L77644 73295
L77644 73239
L77672 73183
L77728 73155
L77869 73155
L77925 73127
" />
<path d="M78291 73380
L78234 73352
L78206 73295
L78206 72789
" />
<path d="M78375 73436
L78825 73436
" />
<path d="M79219 73380
L79219 73070
L79190 73014
L79134 72986
L79022 72986
L78965 73014
" />
<path d="M79219 73352
L79162 73380
L79022 73380
L78965 73352
L78937 73295
L78937 73239
L78965 73183
L79022 73155
L79162 73155
L79219 73127
" />
<path d="M79753 73380
L79753 72789
" />
<path d="M79753 73352
L79697 73380
L79584 73380
L79528 73352
L79500 73323
L79472 73267
L79472 73099
L79500 73042
L79528 73014
L79584 72986
L79697 72986
L79753 73014
" />
<path d="M80287 73380
L80287 73070
L80259 73014
L80203 72986
L80090 72986
L80034 73014
" />
<path d="M80287 73352
L80231 73380
L80090 73380
L80034 73352
L80006 73295
L80006 73239
L80034 73183
L80090 73155
L80231 73155
L80287 73127
" />
<path d="M80568 72986
L80568 73577
" />
<path d="M80568 73014
L80625 72986
L80737 72986
L80793 73014
L80822 73042
L80850 73099
L80850 73267
L80822 73323
L80793 73352
L80737 73380
L80625 73380
L80568 73352
" />
<path d="M81018 72986
L81243 72986
" />
<path d="M81103 72789
L81103 73295
L81131 73352
L81187 73380
L81243 73380
" />
<path d="M81525 73380
L81468 73352
L81440 73323
L81412 73267
L81412 73099
L81440 73042
L81468 73014
L81525 72986
L81609 72986
L81665 73014
L81693 73042
L81721 73099
L81721 73267
L81693 73323
L81665 73352
L81609 73380
L81525 73380
" />
<path d="M81974 73380
L81974 72986
" />
<path d="M81974 73099
L82003 73042
L82031 73014
L82087 72986
L82143 72986
" />
<path d="M82340 73323
L82368 73352
L82340 73380
L82312 73352
L82340 73323
L82340 73380
" />
<path d="M82621 73380
L82621 72789
" />
<path d="M82678 73155
L82846 73380
" />
<path d="M82846 72986
L82621 73211
" />
<path d="M83099 73380
L83099 72986
" />
<path d="M83099 72789
L83071 72817
L83099 72845
L83127 72817
L83099 72789
L83099 72845
" />
<path d="M83634 73352
L83577 73380
L83465 73380
L83409 73352
L83381 73323
L83352 73267
L83352 73099
L83381 73042
L83409 73014
L83465 72986
L83577 72986
L83634 73014
" />
<path d="M84140 73380
L84140 73070
L84112 73014
L84055 72986
L83943 72986
L83887 73014
" />
<path d="M84140 73352
L84084 73380
L83943 73380
L83887 73352
L83859 73295
L83859 73239
L83887 73183
L83943 73155
L84084 73155
L84140 73127
" />
<path d="M84674 73380
L84674 72789
" />
<path d="M84674 73352
L84618 73380
L84505 73380
L84449 73352
L84421 73323
L84393 73267
L84393 73099
L84421 73042
L84449 73014
L84505 72986
L84618 72986
L84674 73014
" />
<path d="M84815 73436
L85265 73436
" />
<path d="M85405 72986
L85405 73577
" />
<path d="M85405 73014
L85462 72986
L85574 72986
L85630 73014
L85658 73042
L85687 73099
L85687 73267
L85658 73323
L85630 73352
L85574 73380
L85462 73380
L85405 73352
" />
<path d="M86193 73352
L86136 73380
L86024 73380
L85968 73352
L85940 73323
L85912 73267
L85912 73099
L85940 73042
L85968 73014
L86024 72986
L86136 72986
L86193 73014
" />
<path d="M86446 73380
L86446 72789
" />
<path d="M86446 73014
L86502 72986
L86615 72986
L86671 73014
L86699 73042
L86727 73099
L86727 73267
L86699 73323
L86671 73352
L86615 73380
L86502 73380
L86446 73352
" />
</g>
<g style="fill:#000000; fill-opacity:0.0; 
stroke:#000000; stroke-width:39.3701; stroke-opacity:1; 
stroke-linecap:round; stroke-linejoin:round;">
</g>
<g style="fill:#000000; fill-opacity:0.0; 
stroke:#000000; stroke-width:59.0551; stroke-opacity:1; 
stroke-linecap:round; stroke-linejoin:round;">
<path d="M69685 71459
L112205 71459
" />
</g>
<g style="fill:#000000; fill-opacity:0.0; 
stroke:#000000; stroke-width:39.3701; stroke-opacity:1; 
stroke-linecap:round; stroke-linejoin:round;">
</g>
<g style="fill:#000000; fill-opacity:0.0; 
stroke:#000000; stroke-width:59.0551; stroke-opacity:1; 
stroke-linecap:round; stroke-linejoin:round;">
<path d="M70192 72289
L70276 72317
L70417 72317
L70473 72289
L70501 72260
L70529 72204
L70529 72148
L70501 72092
L70473 72064
L70417 72036
L70304 72007
L70248 71979
L70220 71951
L70192 71895
L70192 71839
L70220 71782
L70248 71754
L70304 71726
L70445 71726
L70529 71754
" />
<path d="M70782 72317
L70782 71726
" />
<path d="M71035 72317
L71035 72007
L71007 71951
L70951 71923
L70867 71923
L70810 71951
L70782 71979
" />
<path d="M71541 72289
L71485 72317
L71373 72317
L71316 72289
L71288 72232
L71288 72007
L71316 71951
L71373 71923
L71485 71923
L71541 71951
L71570 72007
L71570 72064
L71288 72120
" />
<path d="M72048 72289
L71991 72317
L71879 72317
L71823 72289
L71795 72232
L71795 72007
L71823 71951
L71879 71923
L71991 71923
L72048 71951
L72076 72007
L72076 72064
L71795 72120
" />
<path d="M72244 71923
L72469 71923
" />
<path d="M72329 71726
L72329 72232
L72357 72289
L72413 72317
L72469 72317
" />
<path d="M72666 72260
L72694 72289
L72666 72317
L72638 72289
L72666 72260
L72666 72317
" />
<path d="M72666 71951
L72694 71979
L72666 72007
L72638 71979
L72666 71951
L72666 72007
" />
</g>
<g style="fill:#000000; fill-opacity:0.0; 
stroke:#000000; stroke-width:39.3701; stroke-opacity:1; 
stroke-linecap:round; stroke-linejoin:round;">
</g>
<g style="fill:#000000; fill-opacity:0.0; 
stroke:#000000; stroke-width:59.0551; stroke-opacity:1; 
stroke-linecap:round; stroke-linejoin:round;">
<path d="M77559 75396
L77559 76577
" />
</g>
<g style="fill:#000000; fill-opacity:0.0; 
stroke:#000000; stroke-width:39.3701; stroke-opacity:1; 
stroke-linecap:round; stroke-linejoin:round;">
</g>
<g style="fill:#000000; fill-opacity:0.0; 
stroke:#000000; stroke-width:59.0551; stroke-opacity:1; 
stroke-linecap:round; stroke-linejoin:round;">
<path d="M102756 75396
L102756 77955
" />
</g>
<g style="fill:#000000; fill-opacity:0.0; 
stroke:#000000; stroke-width:0; stroke-opacity:1; 
stroke-linecap:round; stroke-linejoin:round;">
</g>
<g style="fill:#000000; fill-opacity:1.0; 
stroke:#000000; stroke-width:0; stroke-opacity:1; 
stroke-linecap:round; stroke-linejoin:round;">
<polyline style="fill-rule:evenodd;"
points="38069,31222
38069,31577
37596,31577
37596,31222
38069,31222
" /> 
<polyline style="fill-rule:evenodd;"
points="37203,31222
37203,31577
36730,31577
36730,31222
37203,31222
" /> 
<polyline style="fill-rule:evenodd;"
points="46999,27111
46999,28488
45975,28488
45975,27111
46999,27111
" /> 
<polyline style="fill-rule:evenodd;"
points="35424,27111
35424,28488
34400,28488
34400,27111
35424,27111
" /> 
<polyline style="fill-rule:evenodd;"
points="47547,31560
47252,31560
47252,31087
47547,31087
47547,31560
" /> 
<polyline style="fill-rule:evenodd;"
points="47547,30812
47252,30812
47252,30339
47547,30339
47547,30812
" /> 
<polyline style="fill-rule:evenodd;"
points="46747,31560
46452,31560
46452,31087
46747,31087
46747,31560
" /> 
<polyline style="fill-rule:evenodd;"
points="46747,30812
46452,30812
46452,30339
46747,30339
46747,30812
" /> 
<polyline style="fill-rule:evenodd;"
points="41639,21147
41639,20852
42112,20852
42112,21147
41639,21147
" /> 
<polyline style="fill-rule:evenodd;"
points="42387,21147
42387,20852
42860,20852
42860,21147
42387,21147
" /> 
<polyline style="fill-rule:evenodd;"
points="35310,18952
35310,19247
34837,19247
34837,18952
35310,18952
" /> 
<polyline style="fill-rule:evenodd;"
points="34562,18952
34562,19247
34089,19247
34089,18952
34562,18952
" /> 
<polyline style="fill-rule:evenodd;"
points="39789,20147
39789,19852
40262,19852
40262,20147
39789,20147
" /> 
<polyline style="fill-rule:evenodd;"
points="40537,20147
40537,19852
41010,19852
41010,20147
40537,20147
" /> 
<polyline style="fill-rule:evenodd;"
points="42497,23410
42202,23410
42202,22937
42497,22937
42497,23410
" /> 
<polyline style="fill-rule:evenodd;"
points="42497,22662
42202,22662
42202,22189
42497,22189
42497,22662
" /> 
<circle cx="40503.9" cy="14257.9" r="295.276" /> 
</g>
<g style="fill:#000000; fill-opacity:1.0; 
stroke:#000000; stroke-width:39.3701; stroke-opacity:1; 
stroke-linecap:round; stroke-linejoin:round;">
</g>
<g style="fill:#000000; fill-opacity:1.0; 
stroke:#000000; stroke-width:0; stroke-opacity:1; 
stroke-linecap:round; stroke-linejoin:round;">
<circle cx="39503.9" cy="14257.9" r="295.276" /> 
</g>
<g style="fill:#000000; fill-opacity:1.0; 
stroke:#000000; stroke-width:39.3701; stroke-opacity:1; 
stroke-linecap:round; stroke-linejoin:round;">
</g>
<g style="fill:#000000; fill-opacity:1.0; 
stroke:#000000; stroke-width:0; stroke-opacity:1; 
stroke-linecap:round; stroke-linejoin:round;">
<circle cx="36003.9" cy="14257.9" r="295.276" /> 
</g>
<g style="fill:#000000; fill-opacity:1.0; 
stroke:#000000; stroke-width:39.3701; stroke-opacity:1; 
stroke-linecap:round; stroke-linejoin:round;">
</g>
<g style="fill:#000000; fill-opacity:1.0; 
stroke:#000000; stroke-width:0; stroke-opacity:1; 
stroke-linecap:round; stroke-linejoin:round;">
<circle cx="35003.9" cy="14257.9" r="295.276" /> 
</g>
<g style="fill:#000000; fill-opacity:1.0; 
stroke:#000000; stroke-width:39.3701; stroke-opacity:1; 
stroke-linecap:round; stroke-linejoin:round;">
</g>
<g style="fill:#000000; fill-opacity:1.0; 
stroke:#000000; stroke-width:0; stroke-opacity:1; 
stroke-linecap:round; stroke-linejoin:round;">
<polyline style="fill-rule:evenodd;"
points="42505,20238
42289,20238
42289,19608
42505,19608
42505,20238
" /> 
<polyline style="fill-rule:evenodd;"
points="42820,20238
42604,20238
42604,19608
42820,19608
42820,20238
" /> 
<polyline style="fill-rule:evenodd;"
points="43135,20238
42919,20238
42919,19608
43135,19608
43135,20238
" /> 
<polyline style="fill-rule:evenodd;"
points="43450,20238
43234,20238
43234,19608
43450,19608
43450,20238
" /> 
<polyline style="fill-rule:evenodd;"
points="43765,20238
43549,20238
43549,19608
43765,19608
43765,20238
" /> 
<polyline style="fill-rule:evenodd;"
points="44080,20238
43864,20238
43864,19608
44080,19608
44080,20238
" /> 
<polyline style="fill-rule:evenodd;"
points="44395,20238
44179,20238
44179,19608
44395,19608
44395,20238
" /> 
<polyline style="fill-rule:evenodd;"
points="44710,20238
44494,20238
44494,19608
44710,19608
44710,20238
" /> 
<polyline style="fill-rule:evenodd;"
points="45488,19244
45488,19460
44858,19460
44858,19244
45488,19244
" /> 
<polyline style="fill-rule:evenodd;"
points="45488,18929
45488,19145
44858,19145
44858,18929
45488,18929
" /> 
<polyline style="fill-rule:evenodd;"
points="45488,18614
45488,18830
44858,18830
44858,18614
45488,18614
" /> 
<polyline style="fill-rule:evenodd;"
points="45488,18299
45488,18515
44858,18515
44858,18299
45488,18299
" /> 
<polyline style="fill-rule:evenodd;"
points="45488,17984
45488,18200
44858,18200
44858,17984
45488,17984
" /> 
<polyline style="fill-rule:evenodd;"
points="45488,17669
45488,17885
44858,17885
44858,17669
45488,17669
" /> 
<polyline style="fill-rule:evenodd;"
points="45488,17354
45488,17570
44858,17570
44858,17354
45488,17354
" /> 
<polyline style="fill-rule:evenodd;"
points="45488,17039
45488,17255
44858,17255
44858,17039
45488,17039
" /> 
<polyline style="fill-rule:evenodd;"
points="44710,16891
44494,16891
44494,16261
44710,16261
44710,16891
" /> 
<polyline style="fill-rule:evenodd;"
points="44395,16891
44179,16891
44179,16261
44395,16261
44395,16891
" /> 
<polyline style="fill-rule:evenodd;"
points="44080,16891
43864,16891
43864,16261
44080,16261
44080,16891
" /> 
<polyline style="fill-rule:evenodd;"
points="43765,16891
43549,16891
43549,16261
43765,16261
43765,16891
" /> 
<polyline style="fill-rule:evenodd;"
points="43450,16891
43234,16891
43234,16261
43450,16261
43450,16891
" /> 
<polyline style="fill-rule:evenodd;"
points="43135,16891
42919,16891
42919,16261
43135,16261
43135,16891
" /> 
<polyline style="fill-rule:evenodd;"
points="42820,16891
42604,16891
42604,16261
42820,16261
42820,16891
" /> 
<polyline style="fill-rule:evenodd;"
points="42505,16891
42289,16891
42289,16261
42505,16261
42505,16891
" /> 
<polyline style="fill-rule:evenodd;"
points="42141,17039
42141,17255
41511,17255
41511,17039
42141,17039
" /> 
<polyline style="fill-rule:evenodd;"
points="42141,17354
42141,17570
41511,17570
41511,17354
42141,17354
" /> 
<polyline style="fill-rule:evenodd;"
points="42141,17669
42141,17885
41511,17885
41511,17669
42141,17669
" /> 
<polyline style="fill-rule:evenodd;"
points="42141,17984
42141,18200
41511,18200
41511,17984
42141,17984
" /> 
<polyline style="fill-rule:evenodd;"
points="42141,18299
42141,18515
41511,18515
41511,18299
42141,18299
" /> 
<polyline style="fill-rule:evenodd;"
points="42141,18614
42141,18830
41511,18830
41511,18614
42141,18614
" /> 
<polyline style="fill-rule:evenodd;"
points="42141,18929
42141,19145
41511,19145
41511,18929
42141,18929
" /> 
<polyline style="fill-rule:evenodd;"
points="42141,19244
42141,19460
41511,19460
41511,19244
42141,19244
" /> 
<polyline style="fill-rule:evenodd;"
points="47950,28390
47950,27209
48550,27209
48550,28390
47950,28390
" /> 
<polyline style="fill-rule:evenodd;"
points="37250,31859
37250,33040
36650,33040
36650,31859
37250,31859
" /> 
<polyline style="fill-rule:evenodd;"
points="36250,31859
36250,33040
35650,33040
35650,31859
36250,31859
" /> 
<polyline style="fill-rule:evenodd;"
points="35250,31859
35250,33040
34650,33040
34650,31859
35250,31859
" /> 
<polyline style="fill-rule:evenodd;"
points="34250,31859
34250,33040
33650,33040
33650,31859
34250,31859
" /> 
<polyline style="fill-rule:evenodd;"
points="36169,18072
36169,18427
35696,18427
35696,18072
36169,18072
" /> 
<polyline style="fill-rule:evenodd;"
points="35303,18072
35303,18427
34830,18427
34830,18072
35303,18072
" /> 
<polyline style="fill-rule:evenodd;"
points="34072,16580
34427,16580
34427,17053
34072,17053
34072,16580
" /> 
<polyline style="fill-rule:evenodd;"
points="34072,17446
34427,17446
34427,17919
34072,17919
34072,17446
" /> 
<polyline style="fill-rule:evenodd;"
points="35330,16427
35330,16072
35803,16072
35803,16427
35330,16427
" /> 
<polyline style="fill-rule:evenodd;"
points="36196,16427
36196,16072
36669,16072
36669,16427
36196,16427
" /> 
<polyline style="fill-rule:evenodd;"
points="38080,19677
38080,19322
38553,19322
38553,19677
38080,19677
" /> 
<polyline style="fill-rule:evenodd;"
points="38946,19677
38946,19322
39419,19322
39419,19677
38946,19677
" /> 
<polyline style="fill-rule:evenodd;"
points="39419,20322
39419,20677
38946,20677
38946,20322
39419,20322
" /> 
<polyline style="fill-rule:evenodd;"
points="38553,20322
38553,20677
38080,20677
38080,20322
38553,20322
" /> 
<polyline style="fill-rule:evenodd;"
points="37927,16669
37572,16669
37572,16196
37927,16196
37927,16669
" /> 
<polyline style="fill-rule:evenodd;"
points="37927,15803
37572,15803
37572,15330
37927,15330
37927,15803
" /> 
<polyline style="fill-rule:evenodd;"
points="43169,15072
43169,15427
42696,15427
42696,15072
43169,15072
" /> 
<polyline style="fill-rule:evenodd;"
points="42303,15072
42303,15427
41830,15427
41830,15072
42303,15072
" /> 
<polyline style="fill-rule:evenodd;"
points="36169,31222
36169,31577
35696,31577
35696,31222
36169,31222
" /> 
<polyline style="fill-rule:evenodd;"
points="35303,31222
35303,31577
34830,31577
34830,31222
35303,31222
" /> 
<polyline style="fill-rule:evenodd;"
points="34683,16757
35076,16757
35076,17053
34683,17053
34683,16757
" /> 
<polyline style="fill-rule:evenodd;"
points="34683,17446
35076,17446
35076,17742
34683,17742
34683,17446
" /> 
<polyline style="fill-rule:evenodd;"
points="35903,17053
36297,17053
36297,17446
35903,17446
35903,17053
" /> 
<polyline style="fill-rule:evenodd;"
points="39025,17150
39475,17150
39475,17350
39025,17350
39025,17150
" /> 
<polyline style="fill-rule:evenodd;"
points="39025,17650
39475,17650
39475,17850
39025,17850
39025,17650
" /> 
<polyline style="fill-rule:evenodd;"
points="39025,18150
39475,18150
39475,18350
39025,18350
39025,18150
" /> 
<polyline style="fill-rule:evenodd;"
points="39025,18650
39475,18650
39475,18850
39025,18850
39025,18650
" /> 
<polyline style="fill-rule:evenodd;"
points="36525,18650
36975,18650
36975,18850
36525,18850
36525,18650
" /> 
<polyline style="fill-rule:evenodd;"
points="36525,18150
36975,18150
36975,18350
36525,18350
36525,18150
" /> 
<polyline style="fill-rule:evenodd;"
points="36525,17650
36975,17650
36975,17850
36525,17850
36525,17650
" /> 
<polyline style="fill-rule:evenodd;"
points="36525,17150
36975,17150
36975,17350
36525,17350
36525,17150
" /> 
<polyline style="fill-rule:evenodd;"
points="40846,20958
41101,20958
41101,21375
40846,21375
40846,20958
" /> 
<polyline style="fill-rule:evenodd;"
points="40472,20958
40727,20958
40727,21375
40472,21375
40472,20958
" /> 
<polyline style="fill-rule:evenodd;"
points="40098,20958
40353,20958
40353,21375
40098,21375
40098,20958
" /> 
<polyline style="fill-rule:evenodd;"
points="40098,21824
40353,21824
40353,22241
40098,22241
40098,21824
" /> 
<polyline style="fill-rule:evenodd;"
points="40846,21824
41101,21824
41101,22241
40846,22241
40846,21824
" /> 
<polyline style="fill-rule:evenodd;"
points="43963,21212
43845,21212
43845,20582
43963,20582
43963,21212
" /> 
<polyline style="fill-rule:evenodd;"
points="43707,21212
43589,21212
43589,20582
43707,20582
43707,21212
" /> 
<polyline style="fill-rule:evenodd;"
points="44219,21212
44101,21212
44101,20582
44219,20582
44219,21212
" /> 
<polyline style="fill-rule:evenodd;"
points="44475,21212
44357,21212
44357,20582
44475,20582
44475,21212
" /> 
<polyline style="fill-rule:evenodd;"
points="44731,21212
44612,21212
44612,20582
44731,20582
44731,21212
" /> 
<polyline style="fill-rule:evenodd;"
points="44987,21212
44868,21212
44868,20582
44987,20582
44987,21212
" /> 
<polyline style="fill-rule:evenodd;"
points="45242,21212
45124,21212
45124,20582
45242,20582
45242,21212
" /> 
<polyline style="fill-rule:evenodd;"
points="45498,21212
45380,21212
45380,20582
45498,20582
45498,21212
" /> 
<polyline style="fill-rule:evenodd;"
points="46010,23417
45892,23417
45892,22787
46010,22787
46010,23417
" /> 
<polyline style="fill-rule:evenodd;"
points="45754,23417
45636,23417
45636,22787
45754,22787
45754,23417
" /> 
<polyline style="fill-rule:evenodd;"
points="45498,23417
45380,23417
45380,22787
45498,22787
45498,23417
" /> 
<polyline style="fill-rule:evenodd;"
points="45242,23417
45124,23417
45124,22787
45242,22787
45242,23417
" /> 
<polyline style="fill-rule:evenodd;"
points="43707,23417
43589,23417
43589,22787
43707,22787
43707,23417
" /> 
<polyline style="fill-rule:evenodd;"
points="43963,23417
43845,23417
43845,22787
43963,22787
43963,23417
" /> 
<polyline style="fill-rule:evenodd;"
points="44219,23417
44101,23417
44101,22787
44219,22787
44219,23417
" /> 
<polyline style="fill-rule:evenodd;"
points="44475,23417
44357,23417
44357,22787
44475,22787
44475,23417
" /> 
<polyline style="fill-rule:evenodd;"
points="44731,23417
44612,23417
44612,22787
44731,22787
44731,23417
" /> 
<polyline style="fill-rule:evenodd;"
points="44987,23417
44868,23417
44868,22787
44987,22787
44987,23417
" /> 
<polyline style="fill-rule:evenodd;"
points="45754,21212
45636,21212
45636,20582
45754,20582
45754,21212
" /> 
<polyline style="fill-rule:evenodd;"
points="46010,21212
45892,21212
45892,20582
46010,20582
46010,21212
" /> 
<polyline style="fill-rule:evenodd;"
points="45050,11409
45050,12590
44450,12590
44450,11409
45050,11409
" /> 
<polyline style="fill-rule:evenodd;"
points="45050,13409
45050,14590
44450,14590
44450,13409
45050,13409
" /> 
<polyline style="fill-rule:evenodd;"
points="44050,11409
44050,12590
43450,12590
43450,11409
44050,11409
" /> 
<polyline style="fill-rule:evenodd;"
points="44050,13409
44050,14590
43450,14590
43450,13409
44050,13409
" /> 
<polyline style="fill-rule:evenodd;"
points="43050,11409
43050,12590
42450,12590
42450,11409
43050,11409
" /> 
<polyline style="fill-rule:evenodd;"
points="43050,13409
43050,14590
42450,14590
42450,13409
43050,13409
" /> 
<polyline style="fill-rule:evenodd;"
points="46230,19627
46230,19272
46703,19272
46703,19627
46230,19627
" /> 
<polyline style="fill-rule:evenodd;"
points="47096,19627
47096,19272
47569,19272
47569,19627
47096,19627
" /> 
<polyline style="fill-rule:evenodd;"
points="36430,20677
36430,20322
36903,20322
36903,20677
36430,20677
" /> 
<polyline style="fill-rule:evenodd;"
points="37296,20677
37296,20322
37769,20322
37769,20677
37296,20677
" /> 
<circle cx="46466.9" cy="19450" r="118.11" /> 
</g>
<g style="fill:#000000; fill-opacity:1.0; 
stroke:#000000; stroke-width:39.3701; stroke-opacity:1; 
stroke-linecap:round; stroke-linejoin:round;">
</g>
<g style="fill:#000000; fill-opacity:1.0; 
stroke:#000000; stroke-width:0; stroke-opacity:1; 
stroke-linecap:round; stroke-linejoin:round;">
<circle cx="47400" cy="19450" r="118.11" /> 
</g>
<g style="fill:#000000; fill-opacity:1.0; 
stroke:#000000; stroke-width:39.3701; stroke-opacity:1; 
stroke-linecap:round; stroke-linejoin:round;">
</g>
<g style="fill:#000000; fill-opacity:1.0; 
stroke:#000000; stroke-width:0; stroke-opacity:1; 
stroke-linecap:round; stroke-linejoin:round;">
<circle cx="36666.9" cy="20500" r="118.11" /> 
</g>
<g style="fill:#000000; fill-opacity:1.0; 
stroke:#000000; stroke-width:39.3701; stroke-opacity:1; 
stroke-linecap:round; stroke-linejoin:round;">
</g>
<g style="fill:#000000; fill-opacity:1.0; 
stroke:#000000; stroke-width:0; stroke-opacity:1; 
stroke-linecap:round; stroke-linejoin:round;">
<circle cx="37550" cy="20500" r="118.11" /> 
</g>
<g style="fill:#000000; fill-opacity:1.0; 
stroke:#000000; stroke-width:39.3701; stroke-opacity:1; 
stroke-linecap:round; stroke-linejoin:round;">
</g>
<g style="fill:#000000; fill-opacity:1.0; 
stroke:#000000; stroke-width:196.85; stroke-opacity:1; 
stroke-linecap:round; stroke-linejoin:round;">
</g>
<g style="fill:#000000; fill-opacity:0.0; 
stroke:#000000; stroke-width:196.85; stroke-opacity:1; 
stroke-linecap:round; stroke-linejoin:round;">
<path d="M45951 20897
L46466 20382
" />
<path d="M46466 19450
L46466 20382
" />
</g>
<g style="fill:#000000; fill-opacity:0.0; 
stroke:#000000; stroke-width:118.11; stroke-opacity:1; 
stroke-linecap:round; stroke-linejoin:round;">
<path d="M47400 19450
L47333 19450
" />
</g>
<g style="fill:#000000; fill-opacity:0.0; 
stroke:#000000; stroke-width:196.85; stroke-opacity:1; 
stroke-linecap:round; stroke-linejoin:round;">
<path d="M37533 20500
L37550 20500
" />
<path d="M41800 21075
L41875 21000
" />
<path d="M35066 18250
L35066 19092
" />
<path d="M35066 19092
L35074 19100
" />
<path d="M34879 17594
L34879 18062
" />
<path d="M34879 18062
L35066 18250
" />
</g>
<g style="fill:#000000; fill-opacity:0.0; 
stroke:#000000; stroke-width:118.11; stroke-opacity:1; 
stroke-linecap:round; stroke-linejoin:round;">
<path d="M43027 19923
L43027 20372
" />
</g>
<g style="fill:#000000; fill-opacity:0.0; 
stroke:#000000; stroke-width:196.85; stroke-opacity:1; 
stroke-linecap:round; stroke-linejoin:round;">
<path d="M42200 20600
L42800 20600
" />
<path d="M42200 20600
L41875 20924
" />
</g>
<g style="fill:#000000; fill-opacity:0.0; 
stroke:#000000; stroke-width:118.11; stroke-opacity:1; 
stroke-linecap:round; stroke-linejoin:round;">
<path d="M43027 20372
L42800 20600
" />
</g>
<g style="fill:#000000; fill-opacity:0.0; 
stroke:#000000; stroke-width:196.85; stroke-opacity:1; 
stroke-linecap:round; stroke-linejoin:round;">
<path d="M41875 21000
L41875 20924
" />
<path d="M40600 21166
L40600 20600
" />
<path d="M40600 20600
L40025 20025
" />
<path d="M40025 20025
L40025 20000
" />
<path d="M40025 20000
L40025 20574
" />
<path d="M38316 20916
L38316 20500
" />
<path d="M38400 21000
L38316 20916
" />
<path d="M39600 21000
L38400 21000
" />
<path d="M40025 20574
L39600 21000
" />
<path d="M40000 19974
L40000 19600
" />
<path d="M40200 19400
L40000 19600
" />
<path d="M41000 19400
L40200 19400
" />
<path d="M41200 19600
L41000 19400
" />
<path d="M41200 20400
L41200 19600
" />
<path d="M41200 20400
L41800 21000
" />
<path d="M40000 19974
L40025 20000
" />
<path d="M41875 21000
L41800 21000
" />
<path d="M38316 20500
L38316 20566
" />
<path d="M38250 20566
L38316 20500
" />
<path d="M43342 16576
L43342 16092
" />
<path d="M42500 15750
L42500 14500
" />
<path d="M43000 15750
L42500 15750
" />
<path d="M43342 16092
L43000 15750
" />
<path d="M42500 14500
L42750 14000
" />
<path d="M40974 21600
L43600 21600
" />
<path d="M46487 27800
L48250 27800
" />
<path d="M46487 27800
L46487 30463
" />
<path d="M46487 30463
L46600 30575
" />
<path d="M46600 30575
L47400 30575
" />
<path d="M38316 19500
L37450 19500
" />
<path d="M37750 21600
L40251 21600
" />
<path d="M37100 20950
L37750 21600
" />
<path d="M37100 19850
L37100 20950
" />
<path d="M37450 19500
L37100 19850
" />
</g>
<g style="fill:#000000; fill-opacity:0.0; 
stroke:#000000; stroke-width:118.11; stroke-opacity:1; 
stroke-linecap:round; stroke-linejoin:round;">
<path d="M43904 20897
L43904 21295
" />
<path d="M43904 21295
L43600 21600
" />
</g>
<g style="fill:#000000; fill-opacity:0.0; 
stroke:#000000; stroke-width:196.85; stroke-opacity:1; 
stroke-linecap:round; stroke-linejoin:round;">
<path d="M43400 21500
L43500 21500
" />
<path d="M43500 21500
L43600 21600
" />
<path d="M42900 21000
L43400 21500
" />
<path d="M42900 21000
L42624 21000
" />
<path d="M44000 22000
L46900 22000
" />
<path d="M43600 21600
L44000 22000
" />
<path d="M46487 27800
L46487 22512
" />
<path d="M46800 22200
L46800 22253
" />
<path d="M46487 22512
L46800 22200
" />
<path d="M35003 14257
L35003 14096
" />
<path d="M35003 14096
L35400 13700
" />
<path d="M46900 21300
L46900 22000
" />
<path d="M46900 12400
L46900 21300
" />
<path d="M45200 10700
L46900 12400
" />
<path d="M42400 10700
L45200 10700
" />
<path d="M41700 11400
L42400 10700
" />
<path d="M41700 13700
L41700 11400
" />
<path d="M41500 13900
L41700 13700
" />
<path d="M41200 13900
L41500 13900
" />
<path d="M40400 13100
L41200 13900
" />
<path d="M38700 13100
L40400 13100
" />
<path d="M38100 13700
L38700 13100
" />
<path d="M35400 13700
L38100 13700
" />
<path d="M46900 22153
L46800 22253
" />
<path d="M46900 22000
L46900 22153
" />
<path d="M46800 22253
L45951 23102
" />
</g>
<g style="fill:#000000; fill-opacity:0.0; 
stroke:#000000; stroke-width:118.11; stroke-opacity:1; 
stroke-linecap:round; stroke-linejoin:round;">
<path d="M43904 20897
L43904 20495
" />
<path d="M43972 20427
L43972 19923
" />
<path d="M43904 20495
L43972 20427
" />
</g>
<g style="fill:#000000; fill-opacity:0.0; 
stroke:#000000; stroke-width:196.85; stroke-opacity:1; 
stroke-linecap:round; stroke-linejoin:round;">
<path d="M35003 14257
L35003 14196
" />
<path d="M38316 19583
L38316 19500
" />
<path d="M34325 19100
L34325 18825
" />
<path d="M33883 16816
L34250 16816
" />
<path d="M33600 17100
L33883 16816
" />
<path d="M33600 18100
L33600 17100
" />
<path d="M34325 18825
L33600 18100
" />
<path d="M40974 21166
L40974 21600
" />
<path d="M40251 21600
L41000 21600
" />
<path d="M40974 21600
L41000 21600
" />
<path d="M42624 21000
L42842 21000
" />
<path d="M42842 21000
L43342 20500
" />
<path d="M40225 21166
L40225 21574
" />
<path d="M40225 21574
L40251 21600
" />
<path d="M42600 21024
L42624 21000
" />
<path d="M40774 20000
L40774 20374
" />
<path d="M40974 20574
L40974 21166
" />
<path d="M40774 20374
L40974 20574
" />
<path d="M43342 20500
L43342 19923
" />
<path d="M43972 19923
L43972 19100
" />
<path d="M43972 19100
L43972 18027
" />
<path d="M43972 18027
L44287 17712
" />
<path d="M44287 17712
L44287 16576
" />
<path d="M44250 16000
L44250 15000
" />
<path d="M44250 15000
L44750 14500
" />
<path d="M44750 14500
L44750 14000
" />
<path d="M42933 15250
L43000 15250
" />
<path d="M43000 15250
L43500 15750
" />
<path d="M43500 15750
L44000 15750
" />
<path d="M44000 15750
L44250 16000
" />
<path d="M44250 16000
L44287 16037
" />
<path d="M44287 16037
L44287 16576
" />
<path d="M35566 16250
L35257 16250
" />
<path d="M35257 16250
L35003 15996
" />
<path d="M38316 17750
L38316 17000
" />
<path d="M38316 17000
L37750 16433
" />
<path d="M38316 19500
L38316 17750
" />
<path d="M38316 17750
L38316 17683
" />
<path d="M38750 17250
L39250 17250
" />
<path d="M38316 17683
L38750 17250
" />
<path d="M35003 14257
L35003 15996
" />
<path d="M35003 15996
L34250 16750
" />
<path d="M34250 16750
L34250 16816
" />
</g>
<g style="fill:#000000; fill-opacity:0.0; 
stroke:#000000; stroke-width:118.11; stroke-opacity:1; 
stroke-linecap:round; stroke-linejoin:round;">
<path d="M43904 23102
L43904 23845
" />
</g>
<g style="fill:#000000; fill-opacity:0.0; 
stroke:#000000; stroke-width:196.85; stroke-opacity:1; 
stroke-linecap:round; stroke-linejoin:round;">
<path d="M43900 24060
L43900 23850
" />
<path d="M37811 30148
L43900 24060
" />
<path d="M36828 30148
L37811 30148
" />
<path d="M36077 30900
L36828 30148
" />
<path d="M35650 30900
L36077 30900
" />
<path d="M35500 31050
L35650 30900
" />
<path d="M35500 31400
L35500 31050
" />
<path d="M35500 31450
L35500 31400
" />
<path d="M35500 31700
L35500 31450
" />
<path d="M35500 31700
L34950 32250
" />
</g>
<g style="fill:#000000; fill-opacity:0.0; 
stroke:#000000; stroke-width:118.11; stroke-opacity:1; 
stroke-linecap:round; stroke-linejoin:round;">
<path d="M43904 23845
L43900 23850
" />
</g>
<g style="fill:#000000; fill-opacity:0.0; 
stroke:#000000; stroke-width:196.85; stroke-opacity:1; 
stroke-linecap:round; stroke-linejoin:round;">
<path d="M34950 32450
L34950 32250
" />
<path d="M42350 22425
L43774 22425
" />
</g>
<g style="fill:#000000; fill-opacity:0.0; 
stroke:#000000; stroke-width:118.11; stroke-opacity:1; 
stroke-linecap:round; stroke-linejoin:round;">
<path d="M43904 22604
L43904 23102
" />
<path d="M43848 22548
L43904 22604
" />
<path d="M43848 22500
L43848 22548
" />
</g>
<g style="fill:#000000; fill-opacity:0.0; 
stroke:#000000; stroke-width:196.85; stroke-opacity:1; 
stroke-linecap:round; stroke-linejoin:round;">
<path d="M43774 22425
L43848 22500
" />
<path d="M40974 22033
L41583 22033
" />
<path d="M41975 22425
L42350 22425
" />
<path d="M41583 22033
L41975 22425
" />
</g>
<g style="fill:#000000; fill-opacity:0.0; 
stroke:#000000; stroke-width:118.11; stroke-opacity:1; 
stroke-linecap:round; stroke-linejoin:round;">
<path d="M40974 22033
L40966 22033
" />
</g>
<g style="fill:#000000; fill-opacity:0.0; 
stroke:#000000; stroke-width:196.85; stroke-opacity:1; 
stroke-linecap:round; stroke-linejoin:round;">
<path d="M37750 15566
L37750 15260
" />
<path d="M40503 13903
L40503 14257
" />
<path d="M40024 13424
L40503 13903
" />
<path d="M38975 13424
L40024 13424
" />
<path d="M38500 13900
L38975 13424
" />
<path d="M38500 14224
L38500 13900
" />
<path d="M38500 14510
L38500 14224
" />
<path d="M37750 15260
L38500 14510
" />
<path d="M40500 14253
L40503 14257
" />
<path d="M39503 14257
L39503 16503
" />
<path d="M39750 17750
L39250 17750
" />
<path d="M40000 17500
L39750 17750
" />
<path d="M40000 17000
L40000 17500
" />
<path d="M39503 16503
L40000 17000
" />
<path d="M35933 18250
L35933 18183
" />
<path d="M35933 18183
L35500 17750
" />
<path d="M36003 16746
L36003 14257
" />
<path d="M36000 16750
L36003 16746
" />
<path d="M35750 16750
L36000 16750
" />
<path d="M35500 17000
L35750 16750
" />
<path d="M35500 17750
L35500 17000
" />
<path d="M35933 18250
L36750 18250
" />
<path d="M43750 14000
L43750 13500
" />
<path d="M43750 13500
L43250 13000
" />
<path d="M45787 17462
L45173 17462
" />
<path d="M46500 16750
L45787 17462
" />
<path d="M46500 12500
L46500 16750
" />
<path d="M45000 11000
L46500 12500
" />
<path d="M43500 11000
L45000 11000
" />
<path d="M43250 11250
L43500 11000
" />
<path d="M43250 13000
L43250 11250
" />
<path d="M44000 13750
L43750 14000
" />
<path d="M44750 12000
L45000 12000
" />
<path d="M45000 12000
L46000 13000
" />
<path d="M46000 13000
L46000 15250
" />
<path d="M46000 15250
L45173 16076
" />
<path d="M45173 16076
L45173 17147
" />
<path d="M43750 12000
L43750 12500
" />
<path d="M43750 12500
L44250 13000
" />
<path d="M44250 13000
L45250 13000
" />
<path d="M45250 13000
L45500 13250
" />
<path d="M45500 13250
L45500 15000
" />
<path d="M45500 15000
L44602 15897
" />
<path d="M44602 15897
L44602 16576
" />
</g>
<g style="fill:#000000; fill-opacity:0.0; 
stroke:#000000; stroke-width:118.11; stroke-opacity:1; 
stroke-linecap:round; stroke-linejoin:round;">
<path d="M44287 20387
L44287 19923
" />
<path d="M44300 20400
L44287 20387
" />
<path d="M44500 20400
L44300 20400
" />
<path d="M44672 20572
L44500 20400
" />
<path d="M44672 20897
L44672 20572
" />
<path d="M44927 20327
L44927 20897
" />
<path d="M44602 19923
L44602 20002
" />
<path d="M44602 20002
L44927 20327
" />
<path d="M44627 19948
L44602 19923
" />
</g>
<g style="fill:#000000; fill-opacity:0.0; 
stroke:#000000; stroke-width:196.85; stroke-opacity:1; 
stroke-linecap:round; stroke-linejoin:round;">
<path d="M42066 15250
L42066 12683
" />
<path d="M42066 12683
L42750 12000
" />
<path d="M41826 18407
L41157 18407
" />
<path d="M42066 15683
L42066 15250
" />
<path d="M41750 16000
L42066 15683
" />
<path d="M41500 16000
L41750 16000
" />
<path d="M41000 16500
L41500 16000
" />
<path d="M41000 18250
L41000 16500
" />
<path d="M41157 18407
L41000 18250
" />
<path d="M41826 18722
L40722 18722
" />
<path d="M36750 16250
L36433 16250
" />
<path d="M37000 16000
L36750 16250
" />
<path d="M38200 16000
L37000 16000
" />
<path d="M38300 15900
L38200 16000
" />
<path d="M38300 15100
L38300 15900
" />
<path d="M38600 14800
L38300 15100
" />
<path d="M38700 14800
L38600 14800
" />
<path d="M38900 14600
L38700 14800
" />
<path d="M38900 14000
L38900 14600
" />
<path d="M39200 13700
L38900 14000
" />
<path d="M39800 13700
L39200 13700
" />
<path d="M40000 13900
L39800 13700
" />
<path d="M40000 15600
L40000 13900
" />
<path d="M40500 16100
L40000 15600
" />
<path d="M40500 18500
L40500 16100
" />
<path d="M40722 18722
L40500 18500
" />
<path d="M36433 16250
L36500 16250
" />
<path d="M36433 16250
L36433 16433
" />
<path d="M36750 16750
L36750 17250
" />
<path d="M36433 16433
L36750 16750
" />
<path d="M41826 19037
L40287 19037
" />
<path d="M39750 18250
L39250 18250
" />
<path d="M40000 18500
L39750 18250
" />
<path d="M40000 18750
L40000 18500
" />
<path d="M40287 19037
L40000 18750
" />
<path d="M36966 31400
L36966 32433
" />
<path d="M36966 32433
L36950 32450
" />
<path d="M36966 31400
L36966 31183
" />
<path d="M44927 23822
L38050 30700
" />
</g>
<g style="fill:#000000; fill-opacity:0.0; 
stroke:#000000; stroke-width:118.11; stroke-opacity:1; 
stroke-linecap:round; stroke-linejoin:round;">
<path d="M44927 23822
L44927 23102
" />
</g>
<g style="fill:#000000; fill-opacity:0.0; 
stroke:#000000; stroke-width:196.85; stroke-opacity:1; 
stroke-linecap:round; stroke-linejoin:round;">
<path d="M37450 30700
L38050 30700
" />
<path d="M36966 31183
L37450 30700
" />
<path d="M35950 32450
L35950 31416
" />
<path d="M35950 31416
L36942 30424
" />
<path d="M36942 30424
L37925 30424
" />
<path d="M37925 30424
L44500 23850
" />
<path d="M44500 23850
L44505 23855
" />
</g>
<g style="fill:#000000; fill-opacity:0.0; 
stroke:#000000; stroke-width:118.11; stroke-opacity:1; 
stroke-linecap:round; stroke-linejoin:round;">
<path d="M44505 23855
L44505 23844
" />
<path d="M44505 23844
L44672 23677
" />
<path d="M44672 23677
L44672 23102
" />
</g>
<g style="fill:#000000; fill-opacity:0.0; 
stroke:#000000; stroke-width:196.85; stroke-opacity:1; 
stroke-linecap:round; stroke-linejoin:round;">
<path d="M34250 17683
L34250 17500
" />
<path d="M34250 17500
L34844 16905
" />
<path d="M34844 16905
L34879 16905
" />
<path d="M39183 19500
L39183 20500
" />
<path d="M39183 19500
L39183 18816
" />
<path d="M39183 18816
L39250 18750
" />
<path d="M36100 17250
L36100 17600
" />
<path d="M36250 17750
L36750 17750
" />
<path d="M36100 17600
L36250 17750
" />
</g>
<g style="fill:#000000; fill-opacity:1.0; 
stroke:#000000; stroke-width:100; stroke-opacity:1; 
stroke-linecap:round; stroke-linejoin:round;">
<polyline style="fill-rule:evenodd;"
points="48920,33120
37351,33120
37370,33091
37381,33040
37381,31859
37372,31811
37344,31767
37301,31738
37250,31728
37194,31728
37194,31708
37203,31708
37250,31699
37294,31671
37324,31628
37334,31577
37334,31512
37346,31512
37346,31626
37384,31718
37455,31789
37547,31827
37720,31827
37783,31764
37783,31450
37883,31450
37883,31764
37945,31827
38119,31827
38210,31789
38281,31718
38319,31626
38319,31512
38256,31450
37883,31450
37783,31450
37409,31450
37346,31512
37334,31512
37334,31436
46202,31436
46202,31609
46240,31701
46310,31772
46402,31810
46487,31810
46550,31747
46550,31374
46650,31374
46650,31747
46712,31810
46797,31810
46889,31772
46959,31701
46997,31609
46997,31436
47002,31436
47002,31609
47040,31701
47110,31772
47202,31810
47287,31810
47350,31747
47350,31374
47450,31374
47450,31747
47512,31810
47597,31810
47689,31772
47759,31701
47797,31609
47797,31436
47735,31374
47450,31374
47350,31374
47064,31374
47002,31436
46997,31436
46935,31374
46650,31374
46550,31374
46264,31374
46202,31436
37334,31436
37334,31222
37325,31175
37313,31157
37381,31089
37346,31173
37346,31287
37409,31350
37783,31350
37783,31035
37883,31035
37883,31350
38256,31350
38319,31287
38319,31173
38281,31081
38210,31010
38119,30972
37945,30972
37883,31035
37783,31035
37720,30972
37547,30972
37463,31007
37544,30927
38049,30927
38050,30927
38136,30909
38210,30860
45088,23982
45137,23908
45155,23822
45137,23735
45115,23702
45115,23546
45124,23548
45242,23548
45290,23539
45311,23526
45329,23538
45380,23548
45498,23548
45546,23539
45567,23526
45585,23538
45636,23548
45754,23548
45802,23539
45823,23526
45841,23538
45892,23548
46010,23548
46058,23539
46102,23511
46131,23468
46141,23417
46141,23233
46260,23114
46260,26979
45975,26979
45927,26988
45884,27016
45854,27059
45844,27111
45844,28488
45853,28536
45881,28580
45924,28609
45975,28620
46260,28620
46260,30463
46260,30463
46277,30550
46321,30615
46321,30812
46330,30859
46334,30866
46310,30875
46240,30946
46202,31038
46202,31211
46264,31274
46550,31274
46550,31266
46650,31266
46650,31274
46935,31274
46997,31211
46997,31038
46959,30946
46889,30875
46866,30866
46868,30863
46878,30812
46878,30803
47121,30803
47121,30812
47130,30859
47134,30866
47110,30875
47040,30946
47002,31038
47002,31211
47064,31274
47350,31274
47350,31266
47450,31266
47450,31274
47735,31274
47797,31211
47797,31038
47759,30946
47689,30875
47666,30866
47668,30863
47678,30812
47678,30339
47669,30292
47641,30248
47598,30218
47547,30208
47252,30208
47204,30217
47160,30245
47131,30288
47121,30339
47121,30348
46878,30348
46878,30339
46869,30292
46841,30248
46798,30218
46747,30208
46714,30208
46714,28620
46999,28620
47046,28611
47090,28583
47120,28540
47130,28488
47130,28027
47818,28027
47818,28390
47827,28438
47855,28482
47898,28511
47950,28521
48550,28521
48597,28512
48641,28484
48670,28441
48681,28390
48681,27209
48672,27161
48644,27117
48601,27088
48550,27078
47950,27078
47902,27087
47858,27115
47829,27158
47818,27209
47818,27572
47130,27572
47130,27111
47121,27063
47093,27019
47050,26990
46999,26979
46714,26979
46714,22660
46960,22414
46960,22414
47060,22314
47060,22314
47109,22240
47127,22153
47127,19877
47220,19877
47283,19814
47283,19500
47383,19500
47383,19814
47445,19877
47619,19877
47710,19839
47781,19768
47819,19676
47819,19562
47756,19500
47383,19500
47283,19500
47275,19500
47275,19400
47283,19400
47283,19085
47383,19085
47383,19400
47756,19400
47819,19337
47819,19223
47781,19131
47710,19060
47619,19022
47445,19022
47383,19085
47283,19085
47220,19022
47127,19022
47127,12400
47109,12313
47060,12239
47060,12239
45360,10539
45286,10490
45200,10472
45199,10472
42400,10472
42400,10472
42313,10490
42239,10539
42239,10539
41539,11239
41490,11313
41472,11400
41472,11400
41472,13605
41405,13672
41294,13672
40560,12939
40486,12890
40400,12872
40399,12872
38700,12872
38613,12890
38583,12909
38539,12939
38539,12939
38005,13472
35400,13472
35400,13472
35313,13490
35239,13539
34944,13833
34919,13833
34764,13898
34644,14017
34579,14173
34579,14341
34644,14497
34763,14617
34776,14622
34776,15901
34229,16449
34072,16449
34025,16458
33981,16486
33951,16529
33941,16580
33941,16589
33883,16589
33883,16589
33796,16607
33722,16656
33722,16656
33439,16939
33390,17013
33372,17100
33372,17100
33372,18099
33372,18100
33390,18186
33439,18260
34021,18843
33998,18858
33968,18901
33958,18952
33958,19247
33967,19295
33995,19339
34038,19368
34089,19378
34562,19378
34609,19369
34616,19365
34625,19389
34696,19459
34788,19497
34961,19497
35024,19435
35024,19150
35124,19150
35124,19435
35186,19497
35359,19497
35451,19459
35522,19389
35560,19297
35560,19212
35497,19150
35124,19150
35024,19150
35016,19150
35016,19050
35024,19050
35024,18764
35124,18764
35124,19050
35497,19050
35560,18987
35560,18902
35543,18862
36275,18862
36275,18899
36313,18991
36383,19061
36475,19100
36637,19100
36700,19037
36700,18800
36800,18800
36800,19037
36862,19100
37024,19100
37116,19061
37186,18991
37225,18899
37225,18862
37162,18800
36800,18800
36700,18800
36337,18800
36275,18862
35543,18862
35522,18810
35451,18740
35359,18702
35186,18702
35124,18764
35024,18764
34961,18702
34788,18702
34696,18740
34625,18810
34616,18833
34613,18831
34562,18821
34552,18821
34535,18739
34527,18727
34486,18665
34486,18665
34183,18362
34580,18362
34580,18476
34618,18568
34689,18639
34780,18677
34954,18677
35016,18614
35016,18300
35116,18300
35116,18614
35179,18677
35352,18677
35444,18639
35515,18568
35553,18476
35553,18362
35490,18300
35116,18300
35016,18300
34643,18300
34580,18362
34183,18362
33827,18005
33827,17194
33945,17075
33950,17100
33978,17144
34021,17174
34072,17184
34244,17184
34113,17315
34072,17315
34025,17324
33981,17352
33951,17395
33941,17446
33941,17919
33950,17966
33978,18010
34021,18040
34072,18050
34427,18050
34474,18041
34518,18013
34548,17970
34550,17957
34599,17978
34580,18023
34580,18137
34643,18200
35016,18200
35016,18192
35116,18192
35116,18200
35490,18200
35553,18137
35553,18124
35565,18136
35565,18427
35574,18474
35602,18518
35645,18548
35696,18558
36169,18558
36216,18549
36260,18521
36290,18478
36290,18477
36344,18477
36313,18508
36275,18600
36275,18637
36337,18700
36700,18700
36700,18692
36800,18692
36800,18700
37162,18700
37225,18637
37225,18600
37186,18508
37116,18438
37080,18423
37095,18401
37106,18350
37106,18150
37097,18102
37069,18058
37026,18029
36975,18018
36525,18018
36503,18022
36290,18022
36263,17981
36257,17977
36504,17977
36525,17981
36975,17981
37022,17972
37066,17944
37095,17901
37106,17850
37106,17650
37097,17602
37069,17558
37026,17529
36975,17518
36525,17518
36503,17522
36401,17522
36418,17497
36428,17446
36428,17437
36430,17441
36473,17470
36525,17481
36975,17481
37022,17472
37066,17444
37095,17401
37106,17350
37106,17150
37097,17102
37069,17058
37026,17029
36977,17019
36977,16750
36977,16750
36959,16663
36910,16589
36791,16470
36792,16468
36836,16459
36910,16410
37094,16227
37441,16227
37441,16669
37450,16716
37478,16760
37521,16790
37572,16800
37796,16800
38089,17094
38089,17683
38089,17683
38089,17683
38089,19191
38080,19191
38033,19200
37989,19228
37959,19271
37959,19272
37450,19272
37450,19272
37363,19290
37289,19339
36939,19689
36890,19763
36872,19850
36872,19850
36872,20072
36779,20072
36716,20135
36716,20450
36724,20450
36724,20550
36716,20550
36716,20864
36779,20927
36872,20927
36872,20949
36872,20950
36890,21036
36939,21110
37589,21760
37589,21760
37650,21801
37663,21809
37750,21827
37750,21827
39966,21827
39966,22241
39975,22289
40003,22333
40046,22362
40098,22372
40353,22372
40401,22364
40445,22335
40474,22292
40485,22241
40485,21827
40714,21827
40714,22241
40723,22289
40751,22333
40794,22362
40846,22372
41101,22372
41149,22364
41193,22335
41222,22292
41229,22260
41488,22260
41815,22586
41889,22635
41975,22653
42071,22653
42071,22662
42080,22709
42084,22716
42060,22725
41990,22796
41952,22888
41952,23061
42014,23124
42300,23124
42300,23116
42400,23116
42400,23124
42685,23124
42747,23061
42747,22888
42709,22796
42639,22725
42616,22716
42618,22713
42628,22662
42628,22653
43679,22653
43682,22656
43589,22656
43541,22665
43497,22693
43468,22736
43458,22787
43458,23417
43467,23465
43495,23508
43538,23538
43589,23548
43707,23548
43716,23546
43716,23723
43690,23763
43672,23850
43672,23966
37717,29921
36828,29921
36741,29938
36667,29988
35983,30672
35650,30672
35563,30690
35489,30739
35489,30739
35339,30889
35290,30963
35288,30972
35179,30972
35116,31035
35116,31350
35124,31350
35124,31450
35116,31450
35116,31457
35016,31457
35016,31450
34643,31450
34580,31512
34580,31626
34618,31718
34631,31731
34602,31737
34558,31765
34529,31808
34518,31859
34518,33040
34527,33088
34548,33120
34487,33120
34500,33090
34500,32562
34437,32500
34000,32500
34000,32507
33900,32507
33900,32500
33462,32500
33400,32562
33400,33090
33412,33120
33329,33120
33329,31809
33400,31809
33400,32337
33462,32400
33900,32400
33900,31671
34000,31671
34000,32400
34437,32400
34500,32337
34500,31809
34461,31717
34391,31647
34299,31609
34062,31609
34000,31671
33900,31671
33837,31609
33600,31609
33508,31647
33438,31717
33400,31809
33329,31809
33329,31173
34580,31173
34580,31287
34643,31350
35016,31350
35016,31035
34954,30972
34780,30972
34689,31010
34618,31081
34580,31173
33329,31173
33329,27912
34150,27912
34150,28538
34188,28630
34259,28700
34351,28738
34800,28738
34862,28676
34862,27850
34962,27850
34962,28676
35025,28738
35474,28738
35566,28700
35636,28630
35674,28538
35674,27912
35611,27850
34962,27850
34862,27850
34213,27850
34150,27912
33329,27912
33329,27061
34150,27061
34150,27687
34213,27750
34862,27750
34862,26923
34962,26923
34962,27750
35611,27750
35674,27687
35674,27061
35636,26969
35566,26899
35474,26861
35025,26861
34962,26923
34862,26923
34800,26861
34351,26861
34259,26899
34188,26969
34150,27061
33329,27061
33329,23286
41952,23286
41952,23459
41990,23551
42060,23622
42152,23660
42237,23660
42300,23597
42300,23224
42400,23224
42400,23597
42462,23660
42547,23660
42639,23622
42709,23551
42747,23459
42747,23286
42685,23224
42400,23224
42300,23224
42014,23224
41952,23286
33329,23286
33329,20612
36180,20612
36180,20726
36218,20818
36289,20889
36380,20927
36554,20927
36616,20864
36616,20550
36243,20550
36180,20612
33329,20612
33329,20273
36180,20273
36180,20387
36243,20450
36616,20450
36616,20135
36554,20072
36380,20072
36289,20110
36218,20181
36180,20273
33329,20273
33329,10179
48920,10179
48920,33120
" /> 
<polyline style="fill-rule:evenodd;"
points="46672,19022
46579,19022
46516,19085
46516,19400
46524,19400
46524,19500
46516,19500
46516,19814
46579,19877
46672,19877
46672,21772
44094,21772
43893,21572
44037,21428
44077,21367
44083,21340
44101,21343
44219,21343
44266,21334
44288,21321
44306,21333
44357,21343
44475,21343
44522,21334
44544,21321
44561,21333
44612,21343
44731,21343
44778,21334
44799,21321
44817,21333
44868,21343
44987,21343
45034,21334
45055,21321
45073,21333
45124,21343
45242,21343
45290,21334
45311,21321
45329,21333
45380,21343
45498,21343
45546,21334
45567,21321
45585,21333
45636,21343
45676,21343
45680,21354
45750,21424
45842,21462
45859,21462
45922,21400
45922,20947
45981,20947
45981,21400
46043,21462
46060,21462
46152,21424
46222,21354
46260,21262
46260,21010
46198,20947
45981,20947
45922,20947
45893,20947
45893,20847
45922,20847
45922,20395
45981,20395
45981,20847
46198,20847
46260,20785
46260,20532
46222,20441
46152,20370
46060,20332
46043,20332
45981,20395
45922,20395
45859,20332
45842,20332
45750,20370
45680,20441
45676,20451
45636,20451
45588,20460
45567,20473
45549,20461
45498,20451
45380,20451
45333,20460
45311,20473
45293,20461
45242,20451
45124,20451
45115,20453
45115,20327
45101,20256
45060,20195
44841,19976
44841,19608
44838,19587
44858,19591
45488,19591
45535,19582
45567,19562
45980,19562
45980,19676
46018,19768
46089,19839
46180,19877
46354,19877
46416,19814
46416,19500
46043,19500
45980,19562
45567,19562
45579,19554
45609,19511
45619,19460
45619,19244
45615,19223
45980,19223
45980,19337
46043,19400
46416,19400
46416,19085
46354,19022
46180,19022
46089,19060
46018,19131
45980,19223
45615,19223
45610,19196
45609,19194
45619,19145
45619,18929
45610,18881
45609,18879
45619,18830
45619,18614
45610,18566
45609,18564
45619,18515
45619,18299
45610,18251
45609,18249
45619,18200
45619,17984
45610,17936
45609,17935
45619,17885
45619,17689
45787,17689
45787,17689
45874,17672
45948,17623
46660,16910
46660,16910
46672,16892
46672,19022
" /> 
<polyline style="fill-rule:evenodd;"
points="42398,12711
42450,12721
43022,12721
43022,12999
43022,13000
43040,13086
43088,13159
42862,13159
42800,13221
42800,13950
43237,13950
43300,13887
43300,13371
43322,13393
43318,13409
43318,14590
43327,14638
43355,14682
43398,14711
43450,14721
44050,14721
44097,14712
44141,14684
44170,14641
44181,14590
44181,13879
44209,13836
44227,13750
44209,13663
44181,13620
44181,13409
44172,13361
44144,13317
44101,13288
44050,13278
43849,13278
43477,12905
43477,12721
43650,12721
44089,13160
44089,13160
44144,13197
44163,13209
44250,13227
45155,13227
45272,13344
45272,14905
44477,15701
44477,15094
44849,14721
45050,14721
45097,14712
45141,14684
45170,14641
45181,14590
45181,13409
45172,13361
45144,13317
45101,13288
45050,13278
44450,13278
44402,13287
44358,13315
44329,13358
44318,13409
44318,14590
44321,14606
44089,14839
44040,14913
44022,15000
44022,15000
44022,15527
44000,15522
43999,15522
43594,15522
43300,15229
43300,15072
43291,15025
43263,14981
43220,14951
43169,14941
42696,14941
42649,14950
42605,14978
42575,15021
42565,15072
42565,15427
42574,15474
42602,15518
42645,15548
42696,15558
42987,15558
43339,15910
43339,15910
43413,15959
43500,15977
43905,15977
44059,16130
43864,16130
43816,16139
43814,16140
43765,16130
43667,16130
43662,16120
43592,16049
43500,16011
43455,16011
43392,16074
43392,16526
43400,16526
43400,16626
43392,16626
43392,17079
43455,17141
43500,17141
43592,17103
43662,17033
43667,17022
43765,17022
43813,17014
43814,17013
43864,17022
44060,17022
44060,17618
43811,17866
43762,17940
43745,18027
43745,18027
43745,19382
43707,19420
43707,19873
43715,19873
43715,19973
43707,19973
43707,19981
43607,19981
43607,19973
43599,19973
43599,19873
43607,19873
43607,19420
43544,19358
43499,19358
43407,19396
43342,19461
43277,19396
43185,19358
43140,19358
43077,19420
43077,19873
43085,19873
43085,19973
43077,19973
43077,20425
43086,20434
42800,20721
42387,20721
42340,20730
42333,20734
42324,20710
42253,20640
42161,20602
41988,20602
41925,20664
41925,20950
41933,20950
41933,21050
41925,21050
41925,21057
41825,21057
41825,21050
41452,21050
41389,21112
41389,21197
41427,21289
41498,21359
41530,21372
41233,21372
41233,20958
41224,20910
41201,20874
41201,20802
41389,20802
41389,20887
41452,20950
41825,20950
41825,20664
41763,20602
41590,20602
41498,20640
41427,20710
41389,20802
41201,20802
41201,20574
41183,20487
41183,20487
41159,20450
41134,20413
41134,20413
41001,20279
41001,20278
41010,20278
41057,20269
41101,20241
41131,20198
41141,20147
41141,19852
41132,19804
41104,19760
41061,19731
41010,19721
40537,19721
40490,19730
40483,19734
40474,19710
40403,19640
40311,19602
40138,19602
40075,19664
40075,19950
40083,19950
40083,20050
40075,20050
40075,20335
40138,20397
40311,20397
40403,20359
40474,20289
40483,20266
40486,20268
40537,20278
40546,20278
40546,20374
40546,20374
40564,20460
40613,20534
40746,20668
40746,20708
40712,20708
40650,20770
40650,21116
40657,21116
40657,21216
40650,21216
40650,21224
40550,21224
40550,21216
40542,21216
40542,21116
40550,21116
40550,20770
40487,20708
40422,20708
40330,20746
40260,20816
40255,20827
40098,20827
40050,20835
40006,20864
39977,20907
39966,20958
39966,21372
37844,21372
37398,20927
37420,20927
37483,20864
37483,20550
37583,20550
37583,20864
37645,20927
37819,20927
37910,20889
37925,20875
37939,20889
38030,20927
38204,20927
38266,20864
38266,20550
38366,20550
38366,20864
38429,20927
38602,20927
38694,20889
38765,20818
38803,20726
38803,20612
38740,20550
38366,20550
38266,20550
37583,20550
37483,20550
37475,20550
37475,20450
37483,20450
37483,20135
37583,20135
37583,20450
38266,20450
38266,20135
38366,20135
38366,20450
38740,20450
38803,20387
38803,20273
38765,20181
38694,20110
38602,20072
38429,20072
38366,20135
38266,20135
38204,20072
38030,20072
37939,20110
37925,20124
37910,20110
37819,20072
37645,20072
37583,20135
37483,20135
37420,20072
37327,20072
37327,19944
37544,19727
37959,19727
37986,19768
38029,19798
38080,19808
38307,19808
38316,19810
38326,19808
38553,19808
38600,19799
38644,19771
38674,19728
38684,19677
38684,19322
38815,19322
38815,19677
38824,19724
38852,19768
38895,19798
38946,19808
38955,19808
38955,20191
38946,20191
38899,20200
38855,20228
38825,20271
38815,20322
38815,20677
38824,20724
38852,20768
38895,20798
38946,20808
39419,20808
39466,20799
39510,20771
39540,20728
39550,20677
39550,20322
39541,20275
39513,20231
39470,20201
39419,20191
39410,20191
39410,20112
39539,20112
39539,20197
39577,20289
39648,20359
39740,20397
39913,20397
39975,20335
39975,20050
39602,20050
39539,20112
39410,20112
39410,19808
39419,19808
39450,19802
39539,19802
39539,19887
39602,19950
39975,19950
39975,19664
39913,19602
39740,19602
39648,19640
39577,19710
39539,19802
39450,19802
39466,19799
39510,19771
39540,19728
39550,19677
39550,19322
39541,19275
39513,19231
39470,19201
39419,19191
39410,19191
39410,18981
39475,18981
39522,18972
39566,18944
39595,18901
39606,18850
39606,18650
39597,18602
39569,18558
39526,18529
39475,18518
39025,18518
38977,18527
38933,18555
38904,18598
38893,18650
38893,18850
38902,18897
38930,18941
38955,18958
38955,19191
38946,19191
38899,19200
38855,19228
38825,19271
38815,19322
38684,19322
38675,19275
38647,19231
38604,19201
38553,19191
38544,19191
38544,17777
38844,17477
39004,17477
39025,17481
39475,17481
39522,17472
39566,17444
39595,17401
39606,17350
39606,17150
39597,17102
39569,17058
39526,17029
39475,17018
39025,17018
39003,17022
38750,17022
38750,17022
38663,17040
38589,17089
38544,17134
38544,17000
38544,17000
38526,16913
38512,16891
38477,16839
38477,16839
38058,16420
38058,16227
38199,16227
38200,16227
38286,16209
38360,16160
38460,16060
38460,16060
38509,15986
38527,15900
38527,15194
38694,15027
38699,15027
38700,15027
38786,15009
38860,14960
39060,14760
39060,14760
39094,14709
39109,14686
39127,14600
39127,14456
39144,14497
39263,14617
39276,14622
39276,16503
39276,16503
39294,16590
39343,16664
39772,17094
39772,17405
39655,17522
39495,17522
39475,17518
39025,17518
38977,17527
38933,17555
38904,17598
38893,17650
38893,17850
38902,17897
38930,17941
38973,17970
39025,17981
39475,17981
39496,17977
39749,17977
39750,17977
39836,17959
39910,17910
40160,17660
40160,17660
40209,17586
40212,17575
40227,17500
40227,17499
40227,17000
40209,16913
40160,16839
39731,16409
39731,14622
39743,14617
39772,14588
39772,15599
39772,15600
39790,15686
39839,15760
40272,16194
40272,18499
40272,18500
40290,18586
40339,18660
40488,18810
40381,18810
40227,18655
40227,18500
40227,18500
40209,18413
40201,18400
40160,18339
40160,18339
39910,18089
39836,18040
39750,18022
39749,18022
39495,18022
39475,18018
39025,18018
38977,18027
38933,18055
38904,18098
38893,18150
38893,18350
38902,18397
38930,18441
38973,18470
39025,18481
39475,18481
39496,18477
39655,18477
39772,18594
39772,18749
39772,18750
39790,18836
39839,18910
40126,19198
40200,19247
40287,19264
40287,19264
41380,19264
41380,19460
41389,19508
41417,19552
41460,19581
41511,19591
42141,19591
42162,19588
42158,19608
42158,20238
42167,20285
42195,20329
42238,20359
42289,20369
42505,20369
42553,20360
42555,20359
42604,20369
42703,20369
42707,20379
42777,20450
42869,20488
42915,20488
42977,20425
42977,19973
42969,19973
42969,19873
42977,19873
42977,19420
42915,19358
42869,19358
42777,19396
42707,19466
42703,19477
42604,19477
42556,19485
42555,19486
42505,19477
42289,19477
42268,19480
42272,19460
42272,19244
42264,19196
42263,19194
42272,19145
42272,18929
42264,18881
42263,18879
42272,18830
42272,18614
42264,18566
42263,18564
42272,18515
42272,18299
42264,18251
42263,18249
42272,18200
42272,17984
42264,17936
42263,17935
42272,17885
42272,17669
42264,17621
42263,17620
42272,17570
42272,17354
42264,17306
42263,17305
42272,17255
42272,17039
42269,17018
42289,17022
42505,17022
42553,17014
42555,17013
42604,17022
42820,17022
42868,17014
42870,17013
42919,17022
43018,17022
43022,17033
43092,17103
43184,17141
43230,17141
43292,17079
43292,16626
43284,16626
43284,16526
43292,16526
43292,16074
43230,16011
43184,16011
43092,16049
43022,16120
43018,16130
42919,16130
42871,16139
42870,16140
42820,16130
42604,16130
42556,16139
42555,16140
42505,16130
42289,16130
42241,16139
42197,16167
42168,16210
42158,16261
42158,16891
42161,16912
42141,16908
41511,16908
41464,16917
41420,16945
41390,16988
41380,17039
41380,17255
41389,17303
41390,17305
41380,17354
41380,17570
41389,17618
41390,17620
41380,17669
41380,17885
41389,17933
41390,17935
41380,17984
41380,18180
41251,18180
41227,18155
41227,16594
41594,16227
41749,16227
41750,16227
41836,16209
41910,16160
42227,15843
42276,15770
42294,15683
42294,15683
42294,15558
42303,15558
42350,15549
42394,15521
42424,15478
42434,15427
42434,15072
42425,15025
42397,14981
42354,14951
42303,14941
42294,14941
42294,14788
42308,14802
42400,14840
42637,14840
42700,14778
42700,14050
42800,14050
42800,14778
42862,14840
43099,14840
43191,14802
43261,14732
43300,14640
43300,14112
43237,14050
42800,14050
42700,14050
42692,14050
42692,13950
42700,13950
42700,13221
42637,13159
42400,13159
42308,13197
42294,13211
42294,12777
42375,12695
42398,12711
" /> 
<polyline style="fill-rule:evenodd;"
points="35097,16410
35097,16410
35168,16458
35170,16459
35206,16467
35208,16474
35236,16518
35279,16548
35330,16558
35635,16558
35589,16589
35589,16589
35339,16839
35290,16913
35272,17000
35272,17000
35272,17289
35218,17234
35126,17196
34992,17196
34929,17259
34929,17544
34937,17544
34937,17644
34929,17644
34929,17652
34829,17652
34829,17644
34822,17644
34822,17544
34829,17544
34829,17259
34820,17250
34886,17184
35076,17184
35124,17175
35168,17147
35197,17104
35208,17053
35208,16757
35199,16710
35170,16666
35127,16636
35076,16626
34694,16626
35003,16317
35097,16410
" /> 
</g>
<g style="fill:#FFFFFF; fill-opacity:1.0; 
stroke:#FFFFFF; stroke-width:100; stroke-opacity:1; 
stroke-linecap:round; stroke-linejoin:round;">
</g>
<g style="fill:#FFFFFF; fill-opacity:1.0; 
stroke:#FFFFFF; stroke-width:0; stroke-opacity:1; 
stroke-linecap:round; stroke-linejoin:round;">
<circle cx="46466.9" cy="19450" r="78.7402" /> 
</g>
<g style="fill:#FFFFFF; fill-opacity:1.0; 
stroke:#FFFFFF; stroke-width:39.3701; stroke-opacity:1; 
stroke-linecap:round; stroke-linejoin:round;">
</g>
<g style="fill:#FFFFFF; fill-opacity:1.0; 
stroke:#FFFFFF; stroke-width:0; stroke-opacity:1; 
stroke-linecap:round; stroke-linejoin:round;">
<circle cx="47400" cy="19450" r="78.7402" /> 
</g>
<g style="fill:#FFFFFF; fill-opacity:1.0; 
stroke:#FFFFFF; stroke-width:39.3701; stroke-opacity:1; 
stroke-linecap:round; stroke-linejoin:round;">
</g>
<g style="fill:#FFFFFF; fill-opacity:1.0; 
stroke:#FFFFFF; stroke-width:0; stroke-opacity:1; 
stroke-linecap:round; stroke-linejoin:round;">
<circle cx="36666.9" cy="20500" r="78.7402" /> 
</g>
<g style="fill:#FFFFFF; fill-opacity:1.0; 
stroke:#FFFFFF; stroke-width:39.3701; stroke-opacity:1; 
stroke-linecap:round; stroke-linejoin:round;">
</g>
<g style="fill:#FFFFFF; fill-opacity:1.0; 
stroke:#FFFFFF; stroke-width:0; stroke-opacity:1; 
stroke-linecap:round; stroke-linejoin:round;">
<circle cx="37550" cy="20500" r="78.7402" /> 
</g>
<g style="fill:#FFFFFF; fill-opacity:1.0; 
stroke:#FFFFFF; stroke-width:39.3701; stroke-opacity:1; 
stroke-linecap:round; stroke-linejoin:round;">
</g>
<g style="fill:#FFFFFF; fill-opacity:1.0; 
stroke:#FFFFFF; stroke-width:0; stroke-opacity:1; 
stroke-linecap:round; stroke-linejoin:round;">
<circle cx="40503.9" cy="14257.9" r="118.11" /> 
</g>
<g style="fill:#FFFFFF; fill-opacity:1.0; 
stroke:#FFFFFF; stroke-width:39.3701; stroke-opacity:1; 
stroke-linecap:round; stroke-linejoin:round;">
</g>
<g style="fill:#FFFFFF; fill-opacity:1.0; 
stroke:#FFFFFF; stroke-width:0; stroke-opacity:1; 
stroke-linecap:round; stroke-linejoin:round;">
<circle cx="39503.9" cy="14257.9" r="118.11" /> 
</g>
<g style="fill:#FFFFFF; fill-opacity:1.0; 
stroke:#FFFFFF; stroke-width:39.3701; stroke-opacity:1; 
stroke-linecap:round; stroke-linejoin:round;">
</g>
<g style="fill:#FFFFFF; fill-opacity:1.0; 
stroke:#FFFFFF; stroke-width:0; stroke-opacity:1; 
stroke-linecap:round; stroke-linejoin:round;">
<circle cx="36003.9" cy="14257.9" r="118.11" /> 
</g>
<g style="fill:#FFFFFF; fill-opacity:1.0; 
stroke:#FFFFFF; stroke-width:39.3701; stroke-opacity:1; 
stroke-linecap:round; stroke-linejoin:round;">
</g>
<g style="fill:#FFFFFF; fill-opacity:1.0; 
stroke:#FFFFFF; stroke-width:0; stroke-opacity:1; 
stroke-linecap:round; stroke-linejoin:round;">
<circle cx="35003.9" cy="14257.9" r="118.11" /> 
</g>
<g style="fill:#FFFFFF; fill-opacity:1.0; 
stroke:#FFFFFF; stroke-width:39.3701; stroke-opacity:1; 
stroke-linecap:round; stroke-linejoin:round;">
</g>
<g style="fill:#000000; fill-opacity:1.0; 
stroke:#000000; stroke-width:39.3701; stroke-opacity:1; 
stroke-linecap:round; stroke-linejoin:round;">
</g> 
</svg>
