<?xml version="1.0" standalone="no"?>
 <!DOCTYPE svg PUBLIC "-//W3C//DTD SVG 1.1//EN" 
 "http://www.w3.org/Graphics/SVG/1.1/DTD/svg11.dtd"> 
<svg xmlns="http://www.w3.org/2000/svg" version="1.1" 
    width="29.7002cm" height="21.0007cm" viewBox="0 0 116930 82680 ">
<title>SVG Picture created as serial_optical_adaptor-brd.svg date 2016/04/07 15:21:54 </title>
  <desc>Picture generated by PCBNEW </desc>
<g style="fill:#000000; fill-opacity:1;stroke:#000000; stroke-opacity:1;
stroke-linecap:round; stroke-linejoin:round; "
 transform="translate(0 0) scale(1 1)">
</g>
<g style="fill:#000000; fill-opacity:0.0; 
stroke:#000000; stroke-width:-0.000393701; stroke-opacity:1; 
stroke-linecap:round; stroke-linejoin:round;">
</g>
<g style="fill:#000000; fill-opacity:0.0; 
stroke:#000000; stroke-width:39.3701; stroke-opacity:1; 
stroke-linecap:round; stroke-linejoin:round;">
</g>
<g style="fill:#000000; fill-opacity:0.0; 
stroke:#000000; stroke-width:59.0551; stroke-opacity:1; 
stroke-linecap:round; stroke-linejoin:round;">
<rect x="69685.9" y="65357.2" width="42519.7" height="12598.4" rx="0" />
</g>
<g style="fill:#000000; fill-opacity:0.0; 
stroke:#000000; stroke-width:39.3701; stroke-opacity:1; 
stroke-linecap:round; stroke-linejoin:round;">
</g>
<g style="fill:#000000; fill-opacity:0.0; 
stroke:#000000; stroke-width:59.0551; stroke-opacity:1; 
stroke-linecap:round; stroke-linejoin:round;">
<rect x="3937.01" y="3937.01" width="109056" height="74806" rx="0" />
</g>
<g style="fill:#000000; fill-opacity:0.0; 
stroke:#000000; stroke-width:39.3701; stroke-opacity:1; 
stroke-linecap:round; stroke-linejoin:round;">
</g>
<g style="fill:#000000; fill-opacity:0.0; 
stroke:#000000; stroke-width:59.0551; stroke-opacity:1; 
stroke-linecap:round; stroke-linejoin:round;">
<rect x="4724.41" y="4724.41" width="107481" height="73231.2" rx="0" />
</g>
<g style="fill:#000000; fill-opacity:0.0; 
stroke:#000000; stroke-width:39.3701; stroke-opacity:1; 
stroke-linecap:round; stroke-linejoin:round;">
</g>
<g style="fill:#000000; fill-opacity:0.0; 
stroke:#000000; stroke-width:59.0551; stroke-opacity:1; 
stroke-linecap:round; stroke-linejoin:round;">
<path d="M23622 4724
L23622 3937
" />
</g>
<g style="fill:#000000; fill-opacity:0.0; 
stroke:#000000; stroke-width:39.3701; stroke-opacity:1; 
stroke-linecap:round; stroke-linejoin:round;">
</g>
<g style="fill:#000000; fill-opacity:0.0; 
stroke:#000000; stroke-width:59.0551; stroke-opacity:1; 
stroke-linecap:round; stroke-linejoin:round;">
<path d="M43307 4724
L43307 3937
" />
</g>
<g style="fill:#000000; fill-opacity:0.0; 
stroke:#000000; stroke-width:39.3701; stroke-opacity:1; 
stroke-linecap:round; stroke-linejoin:round;">
</g>
<g style="fill:#000000; fill-opacity:0.0; 
stroke:#000000; stroke-width:59.0551; stroke-opacity:1; 
stroke-linecap:round; stroke-linejoin:round;">
<path d="M62992 4724
L62992 3937
" />
</g>
<g style="fill:#000000; fill-opacity:0.0; 
stroke:#000000; stroke-width:39.3701; stroke-opacity:1; 
stroke-linecap:round; stroke-linejoin:round;">
</g>
<g style="fill:#000000; fill-opacity:0.0; 
stroke:#000000; stroke-width:59.0551; stroke-opacity:1; 
stroke-linecap:round; stroke-linejoin:round;">
<path d="M82677 4724
L82677 3937
" />
</g>
<g style="fill:#000000; fill-opacity:0.0; 
stroke:#000000; stroke-width:39.3701; stroke-opacity:1; 
stroke-linecap:round; stroke-linejoin:round;">
</g>
<g style="fill:#000000; fill-opacity:0.0; 
stroke:#000000; stroke-width:59.0551; stroke-opacity:1; 
stroke-linecap:round; stroke-linejoin:round;">
<path d="M102362 4724
L102362 3937
" />
</g>
<g style="fill:#000000; fill-opacity:0.0; 
stroke:#000000; stroke-width:39.3701; stroke-opacity:1; 
stroke-linecap:round; stroke-linejoin:round;">
</g>
<g style="fill:#000000; fill-opacity:0.0; 
stroke:#000000; stroke-width:59.0551; stroke-opacity:1; 
stroke-linecap:round; stroke-linejoin:round;">
<path d="M14169 4562
L13877 4562
" />
<path d="M14023 4562
L14023 4050
L13974 4123
L13925 4172
L13877 4196
" />
</g>
<g style="fill:#000000; fill-opacity:0.0; 
stroke:#000000; stroke-width:39.3701; stroke-opacity:1; 
stroke-linecap:round; stroke-linejoin:round;">
</g>
<g style="fill:#000000; fill-opacity:0.0; 
stroke:#000000; stroke-width:59.0551; stroke-opacity:1; 
stroke-linecap:round; stroke-linejoin:round;">
<path d="M33562 4099
L33586 4074
L33635 4050
L33757 4050
L33805 4074
L33830 4099
L33854 4147
L33854 4196
L33830 4269
L33537 4562
L33854 4562
" />
</g>
<g style="fill:#000000; fill-opacity:0.0; 
stroke:#000000; stroke-width:39.3701; stroke-opacity:1; 
stroke-linecap:round; stroke-linejoin:round;">
</g>
<g style="fill:#000000; fill-opacity:0.0; 
stroke:#000000; stroke-width:59.0551; stroke-opacity:1; 
stroke-linecap:round; stroke-linejoin:round;">
<path d="M53222 4050
L53539 4050
L53368 4245
L53442 4245
L53490 4269
L53515 4294
L53539 4342
L53539 4464
L53515 4513
L53490 4537
L53442 4562
L53295 4562
L53247 4537
L53222 4513
" />
</g>
<g style="fill:#000000; fill-opacity:0.0; 
stroke:#000000; stroke-width:39.3701; stroke-opacity:1; 
stroke-linecap:round; stroke-linejoin:round;">
</g>
<g style="fill:#000000; fill-opacity:0.0; 
stroke:#000000; stroke-width:59.0551; stroke-opacity:1; 
stroke-linecap:round; stroke-linejoin:round;">
<path d="M73175 4221
L73175 4562
" />
<path d="M73053 4026
L72932 4391
L73248 4391
" />
</g>
<g style="fill:#000000; fill-opacity:0.0; 
stroke:#000000; stroke-width:39.3701; stroke-opacity:1; 
stroke-linecap:round; stroke-linejoin:round;">
</g>
<g style="fill:#000000; fill-opacity:0.0; 
stroke:#000000; stroke-width:59.0551; stroke-opacity:1; 
stroke-linecap:round; stroke-linejoin:round;">
<path d="M92885 4050
L92641 4050
L92617 4294
L92641 4269
L92690 4245
L92812 4245
L92860 4269
L92885 4294
L92909 4342
L92909 4464
L92885 4513
L92860 4537
L92812 4562
L92690 4562
L92641 4537
L92617 4513
" />
</g>
<g style="fill:#000000; fill-opacity:0.0; 
stroke:#000000; stroke-width:39.3701; stroke-opacity:1; 
stroke-linecap:round; stroke-linejoin:round;">
</g>
<g style="fill:#000000; fill-opacity:0.0; 
stroke:#000000; stroke-width:59.0551; stroke-opacity:1; 
stroke-linecap:round; stroke-linejoin:round;">
<path d="M112545 4050
L112448 4050
L112399 4074
L112375 4099
L112326 4172
L112302 4269
L112302 4464
L112326 4513
L112350 4537
L112399 4562
L112497 4562
L112545 4537
L112570 4513
L112594 4464
L112594 4342
L112570 4294
L112545 4269
L112497 4245
L112399 4245
L112350 4269
L112326 4294
L112302 4342
" />
</g>
<g style="fill:#000000; fill-opacity:0.0; 
stroke:#000000; stroke-width:39.3701; stroke-opacity:1; 
stroke-linecap:round; stroke-linejoin:round;">
</g>
<g style="fill:#000000; fill-opacity:0.0; 
stroke:#000000; stroke-width:59.0551; stroke-opacity:1; 
stroke-linecap:round; stroke-linejoin:round;">
<path d="M23622 77955
L23622 78742
" />
</g>
<g style="fill:#000000; fill-opacity:0.0; 
stroke:#000000; stroke-width:39.3701; stroke-opacity:1; 
stroke-linecap:round; stroke-linejoin:round;">
</g>
<g style="fill:#000000; fill-opacity:0.0; 
stroke:#000000; stroke-width:59.0551; stroke-opacity:1; 
stroke-linecap:round; stroke-linejoin:round;">
<path d="M43307 77955
L43307 78742
" />
</g>
<g style="fill:#000000; fill-opacity:0.0; 
stroke:#000000; stroke-width:39.3701; stroke-opacity:1; 
stroke-linecap:round; stroke-linejoin:round;">
</g>
<g style="fill:#000000; fill-opacity:0.0; 
stroke:#000000; stroke-width:59.0551; stroke-opacity:1; 
stroke-linecap:round; stroke-linejoin:round;">
<path d="M62992 77955
L62992 78742
" />
</g>
<g style="fill:#000000; fill-opacity:0.0; 
stroke:#000000; stroke-width:39.3701; stroke-opacity:1; 
stroke-linecap:round; stroke-linejoin:round;">
</g>
<g style="fill:#000000; fill-opacity:0.0; 
stroke:#000000; stroke-width:59.0551; stroke-opacity:1; 
stroke-linecap:round; stroke-linejoin:round;">
<path d="M82677 77955
L82677 78742
" />
</g>
<g style="fill:#000000; fill-opacity:0.0; 
stroke:#000000; stroke-width:39.3701; stroke-opacity:1; 
stroke-linecap:round; stroke-linejoin:round;">
</g>
<g style="fill:#000000; fill-opacity:0.0; 
stroke:#000000; stroke-width:59.0551; stroke-opacity:1; 
stroke-linecap:round; stroke-linejoin:round;">
<path d="M102362 77955
L102362 78742
" />
</g>
<g style="fill:#000000; fill-opacity:0.0; 
stroke:#000000; stroke-width:39.3701; stroke-opacity:1; 
stroke-linecap:round; stroke-linejoin:round;">
</g>
<g style="fill:#000000; fill-opacity:0.0; 
stroke:#000000; stroke-width:59.0551; stroke-opacity:1; 
stroke-linecap:round; stroke-linejoin:round;">
<path d="M14169 78580
L13877 78580
" />
<path d="M14023 78580
L14023 78069
L13974 78142
L13925 78190
L13877 78215
" />
</g>
<g style="fill:#000000; fill-opacity:0.0; 
stroke:#000000; stroke-width:39.3701; stroke-opacity:1; 
stroke-linecap:round; stroke-linejoin:round;">
</g>
<g style="fill:#000000; fill-opacity:0.0; 
stroke:#000000; stroke-width:59.0551; stroke-opacity:1; 
stroke-linecap:round; stroke-linejoin:round;">
<path d="M33562 78117
L33586 78093
L33635 78069
L33757 78069
L33805 78093
L33830 78117
L33854 78166
L33854 78215
L33830 78288
L33537 78580
L33854 78580
" />
</g>
<g style="fill:#000000; fill-opacity:0.0; 
stroke:#000000; stroke-width:39.3701; stroke-opacity:1; 
stroke-linecap:round; stroke-linejoin:round;">
</g>
<g style="fill:#000000; fill-opacity:0.0; 
stroke:#000000; stroke-width:59.0551; stroke-opacity:1; 
stroke-linecap:round; stroke-linejoin:round;">
<path d="M53222 78069
L53539 78069
L53368 78263
L53442 78263
L53490 78288
L53515 78312
L53539 78361
L53539 78483
L53515 78532
L53490 78556
L53442 78580
L53295 78580
L53247 78556
L53222 78532
" />
</g>
<g style="fill:#000000; fill-opacity:0.0; 
stroke:#000000; stroke-width:39.3701; stroke-opacity:1; 
stroke-linecap:round; stroke-linejoin:round;">
</g>
<g style="fill:#000000; fill-opacity:0.0; 
stroke:#000000; stroke-width:59.0551; stroke-opacity:1; 
stroke-linecap:round; stroke-linejoin:round;">
<path d="M73175 78239
L73175 78580
" />
<path d="M73053 78044
L72932 78410
L73248 78410
" />
</g>
<g style="fill:#000000; fill-opacity:0.0; 
stroke:#000000; stroke-width:39.3701; stroke-opacity:1; 
stroke-linecap:round; stroke-linejoin:round;">
</g>
<g style="fill:#000000; fill-opacity:0.0; 
stroke:#000000; stroke-width:59.0551; stroke-opacity:1; 
stroke-linecap:round; stroke-linejoin:round;">
<path d="M92885 78069
L92641 78069
L92617 78312
L92641 78288
L92690 78263
L92812 78263
L92860 78288
L92885 78312
L92909 78361
L92909 78483
L92885 78532
L92860 78556
L92812 78580
L92690 78580
L92641 78556
L92617 78532
" />
</g>
<g style="fill:#000000; fill-opacity:0.0; 
stroke:#000000; stroke-width:39.3701; stroke-opacity:1; 
stroke-linecap:round; stroke-linejoin:round;">
</g>
<g style="fill:#000000; fill-opacity:0.0; 
stroke:#000000; stroke-width:59.0551; stroke-opacity:1; 
stroke-linecap:round; stroke-linejoin:round;">
<path d="M112545 78069
L112448 78069
L112399 78093
L112375 78117
L112326 78190
L112302 78288
L112302 78483
L112326 78532
L112350 78556
L112399 78580
L112497 78580
L112545 78556
L112570 78532
L112594 78483
L112594 78361
L112570 78312
L112545 78288
L112497 78263
L112399 78263
L112350 78288
L112326 78312
L112302 78361
" />
</g>
<g style="fill:#000000; fill-opacity:0.0; 
stroke:#000000; stroke-width:39.3701; stroke-opacity:1; 
stroke-linecap:round; stroke-linejoin:round;">
</g>
<g style="fill:#000000; fill-opacity:0.0; 
stroke:#000000; stroke-width:59.0551; stroke-opacity:1; 
stroke-linecap:round; stroke-linejoin:round;">
<path d="M3937 23622
L4724 23622
" />
</g>
<g style="fill:#000000; fill-opacity:0.0; 
stroke:#000000; stroke-width:39.3701; stroke-opacity:1; 
stroke-linecap:round; stroke-linejoin:round;">
</g>
<g style="fill:#000000; fill-opacity:0.0; 
stroke:#000000; stroke-width:59.0551; stroke-opacity:1; 
stroke-linecap:round; stroke-linejoin:round;">
<path d="M3937 43307
L4724 43307
" />
</g>
<g style="fill:#000000; fill-opacity:0.0; 
stroke:#000000; stroke-width:39.3701; stroke-opacity:1; 
stroke-linecap:round; stroke-linejoin:round;">
</g>
<g style="fill:#000000; fill-opacity:0.0; 
stroke:#000000; stroke-width:59.0551; stroke-opacity:1; 
stroke-linecap:round; stroke-linejoin:round;">
<path d="M3937 62992
L4724 62992
" />
</g>
<g style="fill:#000000; fill-opacity:0.0; 
stroke:#000000; stroke-width:39.3701; stroke-opacity:1; 
stroke-linecap:round; stroke-linejoin:round;">
</g>
<g style="fill:#000000; fill-opacity:0.0; 
stroke:#000000; stroke-width:59.0551; stroke-opacity:1; 
stroke-linecap:round; stroke-linejoin:round;">
<path d="M4208 13864
L4452 13864
" />
<path d="M4160 14011
L4330 13499
L4501 14011
" />
</g>
<g style="fill:#000000; fill-opacity:0.0; 
stroke:#000000; stroke-width:39.3701; stroke-opacity:1; 
stroke-linecap:round; stroke-linejoin:round;">
</g>
<g style="fill:#000000; fill-opacity:0.0; 
stroke:#000000; stroke-width:59.0551; stroke-opacity:1; 
stroke-linecap:round; stroke-linejoin:round;">
<path d="M4367 33428
L4440 33452
L4464 33476
L4489 33525
L4489 33598
L4464 33647
L4440 33671
L4391 33696
L4196 33696
L4196 33184
L4367 33184
L4416 33208
L4440 33233
L4464 33281
L4464 33330
L4440 33379
L4416 33403
L4367 33428
L4196 33428
" />
</g>
<g style="fill:#000000; fill-opacity:0.0; 
stroke:#000000; stroke-width:39.3701; stroke-opacity:1; 
stroke-linecap:round; stroke-linejoin:round;">
</g>
<g style="fill:#000000; fill-opacity:0.0; 
stroke:#000000; stroke-width:59.0551; stroke-opacity:1; 
stroke-linecap:round; stroke-linejoin:round;">
<path d="M4489 53332
L4464 53356
L4391 53381
L4342 53381
L4269 53356
L4221 53308
L4196 53259
L4172 53161
L4172 53088
L4196 52991
L4221 52942
L4269 52893
L4342 52869
L4391 52869
L4464 52893
L4489 52918
" />
</g>
<g style="fill:#000000; fill-opacity:0.0; 
stroke:#000000; stroke-width:39.3701; stroke-opacity:1; 
stroke-linecap:round; stroke-linejoin:round;">
</g>
<g style="fill:#000000; fill-opacity:0.0; 
stroke:#000000; stroke-width:59.0551; stroke-opacity:1; 
stroke-linecap:round; stroke-linejoin:round;">
<path d="M4196 73066
L4196 72554
L4318 72554
L4391 72578
L4440 72627
L4464 72676
L4489 72773
L4489 72846
L4464 72944
L4440 72993
L4391 73041
L4318 73066
L4196 73066
" />
</g>
<g style="fill:#000000; fill-opacity:0.0; 
stroke:#000000; stroke-width:39.3701; stroke-opacity:1; 
stroke-linecap:round; stroke-linejoin:round;">
</g>
<g style="fill:#000000; fill-opacity:0.0; 
stroke:#000000; stroke-width:59.0551; stroke-opacity:1; 
stroke-linecap:round; stroke-linejoin:round;">
<path d="M112992 23622
L112205 23622
" />
</g>
<g style="fill:#000000; fill-opacity:0.0; 
stroke:#000000; stroke-width:39.3701; stroke-opacity:1; 
stroke-linecap:round; stroke-linejoin:round;">
</g>
<g style="fill:#000000; fill-opacity:0.0; 
stroke:#000000; stroke-width:59.0551; stroke-opacity:1; 
stroke-linecap:round; stroke-linejoin:round;">
<path d="M112992 43307
L112205 43307
" />
</g>
<g style="fill:#000000; fill-opacity:0.0; 
stroke:#000000; stroke-width:39.3701; stroke-opacity:1; 
stroke-linecap:round; stroke-linejoin:round;">
</g>
<g style="fill:#000000; fill-opacity:0.0; 
stroke:#000000; stroke-width:59.0551; stroke-opacity:1; 
stroke-linecap:round; stroke-linejoin:round;">
<path d="M112992 62992
L112205 62992
" />
</g>
<g style="fill:#000000; fill-opacity:0.0; 
stroke:#000000; stroke-width:39.3701; stroke-opacity:1; 
stroke-linecap:round; stroke-linejoin:round;">
</g>
<g style="fill:#000000; fill-opacity:0.0; 
stroke:#000000; stroke-width:59.0551; stroke-opacity:1; 
stroke-linecap:round; stroke-linejoin:round;">
<path d="M112477 13864
L112721 13864
" />
<path d="M112428 14011
L112599 13499
L112769 14011
" />
</g>
<g style="fill:#000000; fill-opacity:0.0; 
stroke:#000000; stroke-width:39.3701; stroke-opacity:1; 
stroke-linecap:round; stroke-linejoin:round;">
</g>
<g style="fill:#000000; fill-opacity:0.0; 
stroke:#000000; stroke-width:59.0551; stroke-opacity:1; 
stroke-linecap:round; stroke-linejoin:round;">
<path d="M112635 33428
L112708 33452
L112733 33476
L112757 33525
L112757 33598
L112733 33647
L112708 33671
L112660 33696
L112465 33696
L112465 33184
L112635 33184
L112684 33208
L112708 33233
L112733 33281
L112733 33330
L112708 33379
L112684 33403
L112635 33428
L112465 33428
" />
</g>
<g style="fill:#000000; fill-opacity:0.0; 
stroke:#000000; stroke-width:39.3701; stroke-opacity:1; 
stroke-linecap:round; stroke-linejoin:round;">
</g>
<g style="fill:#000000; fill-opacity:0.0; 
stroke:#000000; stroke-width:59.0551; stroke-opacity:1; 
stroke-linecap:round; stroke-linejoin:round;">
<path d="M112757 53332
L112733 53356
L112660 53381
L112611 53381
L112538 53356
L112489 53308
L112465 53259
L112440 53161
L112440 53088
L112465 52991
L112489 52942
L112538 52893
L112611 52869
L112660 52869
L112733 52893
L112757 52918
" />
</g>
<g style="fill:#000000; fill-opacity:0.0; 
stroke:#000000; stroke-width:39.3701; stroke-opacity:1; 
stroke-linecap:round; stroke-linejoin:round;">
</g>
<g style="fill:#000000; fill-opacity:0.0; 
stroke:#000000; stroke-width:59.0551; stroke-opacity:1; 
stroke-linecap:round; stroke-linejoin:round;">
<path d="M112465 73066
L112465 72554
L112587 72554
L112660 72578
L112708 72627
L112733 72676
L112757 72773
L112757 72846
L112733 72944
L112708 72993
L112660 73041
L112587 73066
L112465 73066
" />
</g>
<g style="fill:#000000; fill-opacity:0.0; 
stroke:#000000; stroke-width:39.3701; stroke-opacity:1; 
stroke-linecap:round; stroke-linejoin:round;">
</g>
<g style="fill:#000000; fill-opacity:0.0; 
stroke:#000000; stroke-width:59.0551; stroke-opacity:1; 
stroke-linecap:round; stroke-linejoin:round;">
<path d="M78881 76293
L78881 75703
L79022 75703
L79106 75731
L79162 75787
L79190 75843
L79219 75956
L79219 76040
L79190 76153
L79162 76209
L79106 76265
L79022 76293
L78881 76293
" />
<path d="M79725 76293
L79725 75984
L79697 75928
L79640 75899
L79528 75899
L79472 75928
" />
<path d="M79725 76265
L79669 76293
L79528 76293
L79472 76265
L79444 76209
L79444 76153
L79472 76096
L79528 76068
L79669 76068
L79725 76040
" />
<path d="M79922 75899
L80147 75899
" />
<path d="M80006 75703
L80006 76209
L80034 76265
L80090 76293
L80147 76293
" />
<path d="M80568 76265
L80512 76293
L80400 76293
L80343 76265
L80315 76209
L80315 75984
L80343 75928
L80400 75899
L80512 75899
L80568 75928
L80597 75984
L80597 76040
L80315 76096
" />
<path d="M80850 76237
L80878 76265
L80850 76293
L80822 76265
L80850 76237
L80850 76293
" />
<path d="M80850 75928
L80878 75956
L80850 75984
L80822 75956
L80850 75928
L80850 75984
" />
</g>
<g style="fill:#000000; fill-opacity:0.0; 
stroke:#000000; stroke-width:39.3701; stroke-opacity:1; 
stroke-linecap:round; stroke-linejoin:round;">
</g>
<g style="fill:#000000; fill-opacity:0.0; 
stroke:#000000; stroke-width:59.0551; stroke-opacity:1; 
stroke-linecap:round; stroke-linejoin:round;">
<path d="M69685 76577
L112205 76577
" />
</g>
<g style="fill:#000000; fill-opacity:0.0; 
stroke:#000000; stroke-width:39.3701; stroke-opacity:1; 
stroke-linecap:round; stroke-linejoin:round;">
</g>
<g style="fill:#000000; fill-opacity:0.0; 
stroke:#000000; stroke-width:59.0551; stroke-opacity:1; 
stroke-linecap:round; stroke-linejoin:round;">
<path d="M70220 77395
L70220 76805
" />
<path d="M70557 77395
L70304 77058
" />
<path d="M70557 76805
L70220 77142
" />
<path d="M70810 77395
L70810 77002
" />
<path d="M70810 76805
L70782 76833
L70810 76861
L70838 76833
L70810 76805
L70810 76861
" />
<path d="M71429 77339
L71401 77367
L71316 77395
L71260 77395
L71176 77367
L71120 77311
L71091 77255
L71063 77142
L71063 77058
L71091 76946
L71120 76889
L71176 76833
L71260 76805
L71316 76805
L71401 76833
L71429 76861
" />
<path d="M71935 77395
L71935 77086
L71907 77030
L71851 77002
L71738 77002
L71682 77030
" />
<path d="M71935 77367
L71879 77395
L71738 77395
L71682 77367
L71654 77311
L71654 77255
L71682 77199
L71738 77171
L71879 77171
L71935 77142
" />
<path d="M72469 77395
L72469 76805
" />
<path d="M72469 77367
L72413 77395
L72301 77395
L72244 77367
L72216 77339
L72188 77283
L72188 77114
L72216 77058
L72244 77030
L72301 77002
L72413 77002
L72469 77030
" />
<path d="M73201 77086
L73397 77086
" />
<path d="M73482 77395
L73201 77395
L73201 76805
L73482 76805
" />
<path d="M73735 77339
L73763 77367
L73735 77395
L73707 77367
L73735 77339
L73735 77395
" />
<path d="M74016 77395
L74016 76805
L74157 76805
L74241 76833
L74297 76889
L74325 76946
L74354 77058
L74354 77142
L74325 77255
L74297 77311
L74241 77367
L74157 77395
L74016 77395
" />
<path d="M74607 77339
L74635 77367
L74607 77395
L74579 77367
L74607 77339
L74607 77395
" />
<path d="M74860 77227
L75141 77227
" />
<path d="M74804 77395
L75000 76805
L75197 77395
" />
<path d="M75394 77339
L75422 77367
L75394 77395
L75366 77367
L75394 77339
L75394 77395
" />
<path d="M76575 77395
L76575 76805
" />
<path d="M76631 77171
L76800 77395
" />
<path d="M76800 77002
L76575 77227
" />
<path d="M77053 77395
L77053 77002
" />
<path d="M77053 76805
L77025 76833
L77053 76861
L77081 76833
L77053 76805
L77053 76861
" />
<path d="M77588 77367
L77531 77395
L77419 77395
L77363 77367
L77334 77339
L77306 77283
L77306 77114
L77334 77058
L77363 77030
L77419 77002
L77531 77002
L77588 77030
" />
<path d="M78094 77395
L78094 77086
L78066 77030
L78009 77002
L77897 77002
L77841 77030
" />
<path d="M78094 77367
L78037 77395
L77897 77395
L77841 77367
L77813 77311
L77813 77255
L77841 77199
L77897 77171
L78037 77171
L78094 77142
" />
<path d="M78628 77395
L78628 76805
" />
<path d="M78628 77367
L78572 77395
L78459 77395
L78403 77367
L78375 77339
L78347 77283
L78347 77114
L78375 77058
L78403 77030
L78459 77002
L78572 77002
L78628 77030
" />
<path d="M79612 77002
L79612 77395
" />
<path d="M79472 76777
L79331 77199
L79697 77199
" />
<path d="M79922 77339
L79950 77367
L79922 77395
L79894 77367
L79922 77339
L79922 77395
" />
<path d="M80315 76805
L80372 76805
L80428 76833
L80456 76861
L80484 76917
L80512 77030
L80512 77171
L80484 77283
L80456 77339
L80428 77367
L80372 77395
L80315 77395
L80259 77367
L80231 77339
L80203 77283
L80175 77171
L80175 77030
L80203 76917
L80231 76861
L80259 76833
L80315 76805
" />
<path d="M80765 77339
L80793 77367
L80765 77395
L80737 77367
L80765 77339
L80765 77395
" />
<path d="M81018 76861
L81046 76833
L81103 76805
L81243 76805
L81300 76833
L81328 76861
L81356 76917
L81356 76974
L81328 77058
L80990 77395
L81356 77395
" />
<path d="M81609 77171
L82059 77171
" />
<path d="M82312 77367
L82368 77395
L82481 77395
L82537 77367
L82565 77311
L82565 77283
L82537 77227
L82481 77199
L82396 77199
L82340 77171
L82312 77114
L82312 77086
L82340 77030
L82396 77002
L82481 77002
L82537 77030
" />
<path d="M82734 77002
L82959 77002
" />
<path d="M82818 76805
L82818 77311
L82846 77367
L82903 77395
L82959 77395
" />
<path d="M83409 77395
L83409 77086
L83381 77030
L83324 77002
L83212 77002
L83156 77030
" />
<path d="M83409 77367
L83352 77395
L83212 77395
L83156 77367
L83127 77311
L83127 77255
L83156 77199
L83212 77171
L83352 77171
L83409 77142
" />
<path d="M83690 77395
L83690 76805
" />
<path d="M83690 77030
L83746 77002
L83859 77002
L83915 77030
L83943 77058
L83971 77114
L83971 77283
L83943 77339
L83915 77367
L83859 77395
L83746 77395
L83690 77367
" />
<path d="M84309 77395
L84252 77367
L84224 77311
L84224 76805
" />
<path d="M84759 77367
L84702 77395
L84590 77395
L84534 77367
L84505 77311
L84505 77086
L84534 77030
L84590 77002
L84702 77002
L84759 77030
L84787 77086
L84787 77142
L84505 77199
" />
</g>
<g style="fill:#000000; fill-opacity:0.0; 
stroke:#000000; stroke-width:39.3701; stroke-opacity:1; 
stroke-linecap:round; stroke-linejoin:round;">
</g>
<g style="fill:#000000; fill-opacity:0.0; 
stroke:#000000; stroke-width:59.0551; stroke-opacity:1; 
stroke-linecap:round; stroke-linejoin:round;">
<path d="M69685 75396
L112205 75396
" />
</g>
<g style="fill:#000000; fill-opacity:0.0; 
stroke:#000000; stroke-width:39.3701; stroke-opacity:1; 
stroke-linecap:round; stroke-linejoin:round;">
</g>
<g style="fill:#000000; fill-opacity:0.0; 
stroke:#000000; stroke-width:118.11; stroke-opacity:1; 
stroke-linecap:round; stroke-linejoin:round;">
<path d="M104022 76293
L103825 76012
" />
<path d="M103684 76293
L103684 75703
L103909 75703
L103965 75731
L103994 75759
L104022 75815
L104022 75899
L103994 75956
L103965 75984
L103909 76012
L103684 76012
" />
<path d="M104500 76265
L104444 76293
L104331 76293
L104275 76265
L104247 76209
L104247 75984
L104275 75928
L104331 75899
L104444 75899
L104500 75928
L104528 75984
L104528 76040
L104247 76096
" />
<path d="M104725 75899
L104865 76293
L105006 75899
" />
<path d="M105231 76237
L105259 76265
L105231 76293
L105203 76265
L105231 76237
L105231 76293
" />
<path d="M105231 75928
L105259 75956
L105231 75984
L105203 75956
L105231 75928
L105231 75984
" />
</g>
<g style="fill:#000000; fill-opacity:0.0; 
stroke:#000000; stroke-width:39.3701; stroke-opacity:1; 
stroke-linecap:round; stroke-linejoin:round;">
</g>
<g style="fill:#000000; fill-opacity:0.0; 
stroke:#000000; stroke-width:59.0551; stroke-opacity:1; 
stroke-linecap:round; stroke-linejoin:round;">
<path d="M70192 76265
L70276 76293
L70417 76293
L70473 76265
L70501 76237
L70529 76181
L70529 76124
L70501 76068
L70473 76040
L70417 76012
L70304 75984
L70248 75956
L70220 75928
L70192 75871
L70192 75815
L70220 75759
L70248 75731
L70304 75703
L70445 75703
L70529 75731
" />
<path d="M70782 76293
L70782 75899
" />
<path d="M70782 75703
L70754 75731
L70782 75759
L70810 75731
L70782 75703
L70782 75759
" />
<path d="M71007 75899
L71316 75899
L71007 76293
L71316 76293
" />
<path d="M71766 76265
L71710 76293
L71598 76293
L71541 76265
L71513 76209
L71513 75984
L71541 75928
L71598 75899
L71710 75899
L71766 75928
L71795 75984
L71795 76040
L71513 76096
" />
<path d="M72048 76237
L72076 76265
L72048 76293
L72019 76265
L72048 76237
L72048 76293
" />
<path d="M72048 75928
L72076 75956
L72048 75984
L72019 75956
L72048 75928
L72048 75984
" />
<path d="M72751 76124
L73032 76124
" />
<path d="M72694 76293
L72891 75703
L73088 76293
" />
<path d="M73538 75899
L73538 76293
" />
<path d="M73397 75674
L73257 76096
L73622 76096
" />
</g>
<g style="fill:#000000; fill-opacity:0.0; 
stroke:#000000; stroke-width:39.3701; stroke-opacity:1; 
stroke-linecap:round; stroke-linejoin:round;">
</g>
<g style="fill:#000000; fill-opacity:0.0; 
stroke:#000000; stroke-width:59.0551; stroke-opacity:1; 
stroke-linecap:round; stroke-linejoin:round;">
<path d="M103684 77395
L103684 76805
" />
<path d="M104219 77395
L104219 76805
" />
<path d="M104219 77367
L104162 77395
L104050 77395
L103994 77367
L103965 77339
L103937 77283
L103937 77114
L103965 77058
L103994 77030
L104050 77002
L104162 77002
L104219 77030
" />
<path d="M104500 77339
L104528 77367
L104500 77395
L104472 77367
L104500 77339
L104500 77395
" />
<path d="M104500 77030
L104528 77058
L104500 77086
L104472 77058
L104500 77030
L104500 77086
" />
<path d="M105540 77395
L105203 77395
" />
<path d="M105372 77395
L105372 76805
L105315 76889
L105259 76946
L105203 76974
" />
<path d="M106215 76777
L105709 77536
" />
<path d="M106721 77395
L106384 77395
" />
<path d="M106553 77395
L106553 76805
L106496 76889
L106440 76946
L106384 76974
" />
</g>
<g style="fill:#000000; fill-opacity:0.0; 
stroke:#000000; stroke-width:39.3701; stroke-opacity:1; 
stroke-linecap:round; stroke-linejoin:round;">
</g>
<g style="fill:#000000; fill-opacity:0.0; 
stroke:#000000; stroke-width:59.0551; stroke-opacity:1; 
stroke-linecap:round; stroke-linejoin:round;">
<path d="M69685 73821
L112205 73821
" />
</g>
<g style="fill:#000000; fill-opacity:0.0; 
stroke:#000000; stroke-width:39.3701; stroke-opacity:1; 
stroke-linecap:round; stroke-linejoin:round;">
</g>
<g style="fill:#000000; fill-opacity:0.0; 
stroke:#000000; stroke-width:157.48; stroke-opacity:1; 
stroke-linecap:round; stroke-linejoin:round;">
<path d="M70257 74099
L70707 74099
" />
<path d="M70384 74886
L70482 74099
" />
<path d="M70871 74886
L70937 74361
" />
<path d="M70970 74099
L70927 74136
L70960 74174
L71002 74136
L70970 74099
L70960 74174
" />
<path d="M71199 74361
L71499 74361
" />
<path d="M71345 74099
L71260 74774
L71288 74849
L71359 74886
L71434 74886
" />
<path d="M71809 74886
L71738 74849
L71710 74774
L71795 74099
" />
<path d="M72413 74849
L72334 74886
L72184 74886
L72113 74849
L72085 74774
L72123 74474
L72169 74399
L72249 74361
L72399 74361
L72469 74399
L72498 74474
L72488 74549
L72104 74624
" />
<path d="M72793 74811
L72826 74849
L72783 74886
L72751 74849
L72793 74811
L72783 74886
" />
<path d="M72844 74399
L72877 74436
L72835 74474
L72802 74436
L72844 74399
L72835 74474
" />
</g>
<g style="fill:#000000; fill-opacity:0.0; 
stroke:#000000; stroke-width:39.3701; stroke-opacity:1; 
stroke-linecap:round; stroke-linejoin:round;">
</g>
<g style="fill:#000000; fill-opacity:0.0; 
stroke:#000000; stroke-width:59.0551; stroke-opacity:1; 
stroke-linecap:round; stroke-linejoin:round;">
<path d="M70417 73070
L70220 73070
" />
<path d="M70220 73380
L70220 72789
L70501 72789
" />
<path d="M70726 73380
L70726 72986
" />
<path d="M70726 72789
L70698 72817
L70726 72845
L70754 72817
L70726 72789
L70726 72845
" />
<path d="M71091 73380
L71035 73352
L71007 73295
L71007 72789
" />
<path d="M71541 73352
L71485 73380
L71373 73380
L71316 73352
L71288 73295
L71288 73070
L71316 73014
L71373 72986
L71485 72986
L71541 73014
L71570 73070
L71570 73127
L71288 73183
" />
<path d="M71823 73323
L71851 73352
L71823 73380
L71795 73352
L71823 73323
L71823 73380
" />
<path d="M71823 73014
L71851 73042
L71823 73070
L71795 73042
L71823 73014
L71823 73070
" />
<path d="M72526 73352
L72582 73380
L72694 73380
L72751 73352
L72779 73295
L72779 73267
L72751 73211
L72694 73183
L72610 73183
L72554 73155
L72526 73099
L72526 73070
L72554 73014
L72610 72986
L72694 72986
L72751 73014
" />
<path d="M73257 73352
L73201 73380
L73088 73380
L73032 73352
L73004 73295
L73004 73070
L73032 73014
L73088 72986
L73201 72986
L73257 73014
L73285 73070
L73285 73127
L73004 73183
" />
<path d="M73538 73380
L73538 72986
" />
<path d="M73538 73099
L73566 73042
L73594 73014
L73651 72986
L73707 72986
" />
<path d="M73904 73380
L73904 72986
" />
<path d="M73904 72789
L73876 72817
L73904 72845
L73932 72817
L73904 72789
L73904 72845
" />
<path d="M74438 73380
L74438 73070
L74410 73014
L74354 72986
L74241 72986
L74185 73014
" />
<path d="M74438 73352
L74382 73380
L74241 73380
L74185 73352
L74157 73295
L74157 73239
L74185 73183
L74241 73155
L74382 73155
L74438 73127
" />
<path d="M74804 73380
L74747 73352
L74719 73295
L74719 72789
" />
<path d="M74888 73436
L75338 73436
" />
<path d="M75563 73380
L75507 73352
L75478 73323
L75450 73267
L75450 73099
L75478 73042
L75507 73014
L75563 72986
L75647 72986
L75703 73014
L75732 73042
L75760 73099
L75760 73267
L75732 73323
L75703 73352
L75647 73380
L75563 73380
" />
<path d="M76013 72986
L76013 73577
" />
<path d="M76013 73014
L76069 72986
L76181 72986
L76238 73014
L76266 73042
L76294 73099
L76294 73267
L76266 73323
L76238 73352
L76181 73380
L76069 73380
L76013 73352
" />
<path d="M76463 72986
L76688 72986
" />
<path d="M76547 72789
L76547 73295
L76575 73352
L76631 73380
L76688 73380
" />
<path d="M76885 73380
L76885 72986
" />
<path d="M76885 72789
L76856 72817
L76885 72845
L76913 72817
L76885 72789
L76885 72845
" />
<path d="M77419 73352
L77363 73380
L77250 73380
L77194 73352
L77166 73323
L77138 73267
L77138 73099
L77166 73042
L77194 73014
L77250 72986
L77363 72986
L77419 73014
" />
<path d="M77925 73380
L77925 73070
L77897 73014
L77841 72986
L77728 72986
L77672 73014
" />
<path d="M77925 73352
L77869 73380
L77728 73380
L77672 73352
L77644 73295
L77644 73239
L77672 73183
L77728 73155
L77869 73155
L77925 73127
" />
<path d="M78291 73380
L78234 73352
L78206 73295
L78206 72789
" />
<path d="M78375 73436
L78825 73436
" />
<path d="M79219 73380
L79219 73070
L79190 73014
L79134 72986
L79022 72986
L78965 73014
" />
<path d="M79219 73352
L79162 73380
L79022 73380
L78965 73352
L78937 73295
L78937 73239
L78965 73183
L79022 73155
L79162 73155
L79219 73127
" />
<path d="M79753 73380
L79753 72789
" />
<path d="M79753 73352
L79697 73380
L79584 73380
L79528 73352
L79500 73323
L79472 73267
L79472 73099
L79500 73042
L79528 73014
L79584 72986
L79697 72986
L79753 73014
" />
<path d="M80287 73380
L80287 73070
L80259 73014
L80203 72986
L80090 72986
L80034 73014
" />
<path d="M80287 73352
L80231 73380
L80090 73380
L80034 73352
L80006 73295
L80006 73239
L80034 73183
L80090 73155
L80231 73155
L80287 73127
" />
<path d="M80568 72986
L80568 73577
" />
<path d="M80568 73014
L80625 72986
L80737 72986
L80793 73014
L80822 73042
L80850 73099
L80850 73267
L80822 73323
L80793 73352
L80737 73380
L80625 73380
L80568 73352
" />
<path d="M81018 72986
L81243 72986
" />
<path d="M81103 72789
L81103 73295
L81131 73352
L81187 73380
L81243 73380
" />
<path d="M81525 73380
L81468 73352
L81440 73323
L81412 73267
L81412 73099
L81440 73042
L81468 73014
L81525 72986
L81609 72986
L81665 73014
L81693 73042
L81721 73099
L81721 73267
L81693 73323
L81665 73352
L81609 73380
L81525 73380
" />
<path d="M81974 73380
L81974 72986
" />
<path d="M81974 73099
L82003 73042
L82031 73014
L82087 72986
L82143 72986
" />
<path d="M82340 73323
L82368 73352
L82340 73380
L82312 73352
L82340 73323
L82340 73380
" />
<path d="M82621 73380
L82621 72789
" />
<path d="M82678 73155
L82846 73380
" />
<path d="M82846 72986
L82621 73211
" />
<path d="M83099 73380
L83099 72986
" />
<path d="M83099 72789
L83071 72817
L83099 72845
L83127 72817
L83099 72789
L83099 72845
" />
<path d="M83634 73352
L83577 73380
L83465 73380
L83409 73352
L83381 73323
L83352 73267
L83352 73099
L83381 73042
L83409 73014
L83465 72986
L83577 72986
L83634 73014
" />
<path d="M84140 73380
L84140 73070
L84112 73014
L84055 72986
L83943 72986
L83887 73014
" />
<path d="M84140 73352
L84084 73380
L83943 73380
L83887 73352
L83859 73295
L83859 73239
L83887 73183
L83943 73155
L84084 73155
L84140 73127
" />
<path d="M84674 73380
L84674 72789
" />
<path d="M84674 73352
L84618 73380
L84505 73380
L84449 73352
L84421 73323
L84393 73267
L84393 73099
L84421 73042
L84449 73014
L84505 72986
L84618 72986
L84674 73014
" />
<path d="M84815 73436
L85265 73436
" />
<path d="M85405 72986
L85405 73577
" />
<path d="M85405 73014
L85462 72986
L85574 72986
L85630 73014
L85658 73042
L85687 73099
L85687 73267
L85658 73323
L85630 73352
L85574 73380
L85462 73380
L85405 73352
" />
<path d="M86193 73352
L86136 73380
L86024 73380
L85968 73352
L85940 73323
L85912 73267
L85912 73099
L85940 73042
L85968 73014
L86024 72986
L86136 72986
L86193 73014
" />
<path d="M86446 73380
L86446 72789
" />
<path d="M86446 73014
L86502 72986
L86615 72986
L86671 73014
L86699 73042
L86727 73099
L86727 73267
L86699 73323
L86671 73352
L86615 73380
L86502 73380
L86446 73352
" />
</g>
<g style="fill:#000000; fill-opacity:0.0; 
stroke:#000000; stroke-width:39.3701; stroke-opacity:1; 
stroke-linecap:round; stroke-linejoin:round;">
</g>
<g style="fill:#000000; fill-opacity:0.0; 
stroke:#000000; stroke-width:59.0551; stroke-opacity:1; 
stroke-linecap:round; stroke-linejoin:round;">
<path d="M69685 71459
L112205 71459
" />
</g>
<g style="fill:#000000; fill-opacity:0.0; 
stroke:#000000; stroke-width:39.3701; stroke-opacity:1; 
stroke-linecap:round; stroke-linejoin:round;">
</g>
<g style="fill:#000000; fill-opacity:0.0; 
stroke:#000000; stroke-width:59.0551; stroke-opacity:1; 
stroke-linecap:round; stroke-linejoin:round;">
<path d="M70192 72289
L70276 72317
L70417 72317
L70473 72289
L70501 72260
L70529 72204
L70529 72148
L70501 72092
L70473 72064
L70417 72036
L70304 72007
L70248 71979
L70220 71951
L70192 71895
L70192 71839
L70220 71782
L70248 71754
L70304 71726
L70445 71726
L70529 71754
" />
<path d="M70782 72317
L70782 71726
" />
<path d="M71035 72317
L71035 72007
L71007 71951
L70951 71923
L70867 71923
L70810 71951
L70782 71979
" />
<path d="M71541 72289
L71485 72317
L71373 72317
L71316 72289
L71288 72232
L71288 72007
L71316 71951
L71373 71923
L71485 71923
L71541 71951
L71570 72007
L71570 72064
L71288 72120
" />
<path d="M72048 72289
L71991 72317
L71879 72317
L71823 72289
L71795 72232
L71795 72007
L71823 71951
L71879 71923
L71991 71923
L72048 71951
L72076 72007
L72076 72064
L71795 72120
" />
<path d="M72244 71923
L72469 71923
" />
<path d="M72329 71726
L72329 72232
L72357 72289
L72413 72317
L72469 72317
" />
<path d="M72666 72260
L72694 72289
L72666 72317
L72638 72289
L72666 72260
L72666 72317
" />
<path d="M72666 71951
L72694 71979
L72666 72007
L72638 71979
L72666 71951
L72666 72007
" />
</g>
<g style="fill:#000000; fill-opacity:0.0; 
stroke:#000000; stroke-width:39.3701; stroke-opacity:1; 
stroke-linecap:round; stroke-linejoin:round;">
</g>
<g style="fill:#000000; fill-opacity:0.0; 
stroke:#000000; stroke-width:59.0551; stroke-opacity:1; 
stroke-linecap:round; stroke-linejoin:round;">
<path d="M77559 75396
L77559 76577
" />
</g>
<g style="fill:#000000; fill-opacity:0.0; 
stroke:#000000; stroke-width:39.3701; stroke-opacity:1; 
stroke-linecap:round; stroke-linejoin:round;">
</g>
<g style="fill:#000000; fill-opacity:0.0; 
stroke:#000000; stroke-width:59.0551; stroke-opacity:1; 
stroke-linecap:round; stroke-linejoin:round;">
<path d="M102756 75396
L102756 77955
" />
</g>
<g style="fill:#000000; fill-opacity:0.0; 
stroke:#000000; stroke-width:0; stroke-opacity:1; 
stroke-linecap:round; stroke-linejoin:round;">
</g>
<g style="fill:#000000; fill-opacity:1.0; 
stroke:#000000; stroke-width:0; stroke-opacity:1; 
stroke-linecap:round; stroke-linejoin:round;">
<polyline style="fill-rule:evenodd;"
points="35260,36700
35260,36995
34787,36995
34787,36700
35260,36700
" /> 
<polyline style="fill-rule:evenodd;"
points="34512,36700
34512,36995
34039,36995
34039,36700
34512,36700
" /> 
<circle cx="39496.1" cy="29492.1" r="295.276" /> 
</g>
<g style="fill:#000000; fill-opacity:1.0; 
stroke:#000000; stroke-width:39.3701; stroke-opacity:1; 
stroke-linecap:round; stroke-linejoin:round;">
</g>
<g style="fill:#000000; fill-opacity:1.0; 
stroke:#000000; stroke-width:0; stroke-opacity:1; 
stroke-linecap:round; stroke-linejoin:round;">
<circle cx="40496.1" cy="29492.1" r="295.276" /> 
</g>
<g style="fill:#000000; fill-opacity:1.0; 
stroke:#000000; stroke-width:39.3701; stroke-opacity:1; 
stroke-linecap:round; stroke-linejoin:round;">
</g>
<g style="fill:#000000; fill-opacity:1.0; 
stroke:#000000; stroke-width:0; stroke-opacity:1; 
stroke-linecap:round; stroke-linejoin:round;">
<circle cx="34996.1" cy="29492.1" r="295.276" /> 
</g>
<g style="fill:#000000; fill-opacity:1.0; 
stroke:#000000; stroke-width:39.3701; stroke-opacity:1; 
stroke-linecap:round; stroke-linejoin:round;">
</g>
<g style="fill:#000000; fill-opacity:1.0; 
stroke:#000000; stroke-width:0; stroke-opacity:1; 
stroke-linecap:round; stroke-linejoin:round;">
<circle cx="35996.1" cy="29492.1" r="295.276" /> 
</g>
<g style="fill:#000000; fill-opacity:1.0; 
stroke:#000000; stroke-width:39.3701; stroke-opacity:1; 
stroke-linecap:round; stroke-linejoin:round;">
</g>
<g style="fill:#000000; fill-opacity:1.0; 
stroke:#000000; stroke-width:0; stroke-opacity:1; 
stroke-linecap:round; stroke-linejoin:round;">
<polyline style="fill-rule:evenodd;"
points="36119,35820
36119,36175
35646,36175
35646,35820
36119,35820
" /> 
<polyline style="fill-rule:evenodd;"
points="35253,35820
35253,36175
34780,36175
34780,35820
35253,35820
" /> 
<polyline style="fill-rule:evenodd;"
points="34022,34328
34377,34328
34377,34801
34022,34801
34022,34328
" /> 
<polyline style="fill-rule:evenodd;"
points="34022,35194
34377,35194
34377,35667
34022,35667
34022,35194
" /> 
<polyline style="fill-rule:evenodd;"
points="35280,34175
35280,33820
35753,33820
35753,34175
35280,34175
" /> 
<polyline style="fill-rule:evenodd;"
points="36146,34175
36146,33820
36619,33820
36619,34175
36146,34175
" /> 
<polyline style="fill-rule:evenodd;"
points="37980,37425
37980,37070
38453,37070
38453,37425
37980,37425
" /> 
<polyline style="fill-rule:evenodd;"
points="38846,37425
38846,37070
39319,37070
39319,37425
38846,37425
" /> 
<polyline style="fill-rule:evenodd;"
points="37877,34417
37522,34417
37522,33944
37877,33944
37877,34417
" /> 
<polyline style="fill-rule:evenodd;"
points="37877,33551
37522,33551
37522,33078
37877,33078
37877,33551
" /> 
<polyline style="fill-rule:evenodd;"
points="34633,34505
35026,34505
35026,34801
34633,34801
34633,34505
" /> 
<polyline style="fill-rule:evenodd;"
points="34633,35194
35026,35194
35026,35490
34633,35490
34633,35194
" /> 
<polyline style="fill-rule:evenodd;"
points="35853,34801
36247,34801
36247,35194
35853,35194
35853,34801
" /> 
<polyline style="fill-rule:evenodd;"
points="38975,34898
39425,34898
39425,35098
38975,35098
38975,34898
" /> 
<polyline style="fill-rule:evenodd;"
points="38975,35398
39425,35398
39425,35598
38975,35598
38975,35398
" /> 
<polyline style="fill-rule:evenodd;"
points="38975,35898
39425,35898
39425,36098
38975,36098
38975,35898
" /> 
<polyline style="fill-rule:evenodd;"
points="38975,36398
39425,36398
39425,36598
38975,36598
38975,36398
" /> 
<polyline style="fill-rule:evenodd;"
points="36475,36398
36925,36398
36925,36598
36475,36598
36475,36398
" /> 
<polyline style="fill-rule:evenodd;"
points="36475,35898
36925,35898
36925,36098
36475,36098
36475,35898
" /> 
<polyline style="fill-rule:evenodd;"
points="36475,35398
36925,35398
36925,35598
36475,35598
36475,35398
" /> 
<polyline style="fill-rule:evenodd;"
points="36475,34898
36925,34898
36925,35098
36475,35098
36475,34898
" /> 
<polyline style="fill-rule:evenodd;"
points="37244,37072
37244,37427
36771,37427
36771,37072
37244,37072
" /> 
<polyline style="fill-rule:evenodd;"
points="36378,37072
36378,37427
35905,37427
35905,37072
36378,37072
" /> 
<polyline style="fill-rule:evenodd;"
points="37060,43257
36961,43257
36961,42982
37060,42982
37060,43257
" /> 
<polyline style="fill-rule:evenodd;"
points="37257,43257
37158,43257
37158,42982
37257,42982
37257,43257
" /> 
<polyline style="fill-rule:evenodd;"
points="37453,43257
37355,43257
37355,42982
37453,42982
37453,43257
" /> 
<polyline style="fill-rule:evenodd;"
points="37650,43257
37552,43257
37552,42982
37650,42982
37650,43257
" /> 
<polyline style="fill-rule:evenodd;"
points="37847,43257
37749,43257
37749,42982
37847,42982
37847,43257
" /> 
<polyline style="fill-rule:evenodd;"
points="38044,43257
37946,43257
37946,42982
38044,42982
38044,43257
" /> 
<polyline style="fill-rule:evenodd;"
points="38241,43257
38142,43257
38142,42982
38241,42982
38241,43257
" /> 
<polyline style="fill-rule:evenodd;"
points="38438,43257
38339,43257
38339,42982
38438,42982
38438,43257
" /> 
<polyline style="fill-rule:evenodd;"
points="38979,42617
38979,42716
38703,42716
38703,42617
38979,42617
" /> 
<polyline style="fill-rule:evenodd;"
points="38979,42421
38979,42519
38703,42519
38703,42421
38979,42421
" /> 
<polyline style="fill-rule:evenodd;"
points="38979,42224
38979,42322
38703,42322
38703,42224
38979,42224
" /> 
<polyline style="fill-rule:evenodd;"
points="38979,42027
38979,42125
38703,42125
38703,42027
38979,42027
" /> 
<polyline style="fill-rule:evenodd;"
points="38979,41830
38979,41928
38703,41928
38703,41830
38979,41830
" /> 
<polyline style="fill-rule:evenodd;"
points="38979,41633
38979,41732
38703,41732
38703,41633
38979,41633
" /> 
<polyline style="fill-rule:evenodd;"
points="38438,41367
38339,41367
38339,41092
38438,41092
38438,41367
" /> 
<polyline style="fill-rule:evenodd;"
points="38241,41367
38142,41367
38142,41092
38241,41092
38241,41367
" /> 
<polyline style="fill-rule:evenodd;"
points="38044,41367
37946,41367
37946,41092
38044,41092
38044,41367
" /> 
<polyline style="fill-rule:evenodd;"
points="37847,41367
37749,41367
37749,41092
37847,41092
37847,41367
" /> 
<polyline style="fill-rule:evenodd;"
points="37650,41367
37552,41367
37552,41092
37650,41092
37650,41367
" /> 
<polyline style="fill-rule:evenodd;"
points="37453,41367
37355,41367
37355,41092
37453,41092
37453,41367
" /> 
<polyline style="fill-rule:evenodd;"
points="37257,41367
37158,41367
37158,41092
37257,41092
37257,41367
" /> 
<polyline style="fill-rule:evenodd;"
points="37060,41367
36961,41367
36961,41092
37060,41092
37060,41367
" /> 
<polyline style="fill-rule:evenodd;"
points="36696,41633
36696,41732
36420,41732
36420,41633
36696,41633
" /> 
<polyline style="fill-rule:evenodd;"
points="36696,41830
36696,41928
36420,41928
36420,41830
36696,41830
" /> 
<polyline style="fill-rule:evenodd;"
points="36696,42027
36696,42125
36420,42125
36420,42027
36696,42027
" /> 
<polyline style="fill-rule:evenodd;"
points="36696,42224
36696,42322
36420,42322
36420,42224
36696,42224
" /> 
<polyline style="fill-rule:evenodd;"
points="36696,42421
36696,42519
36420,42519
36420,42421
36696,42421
" /> 
<polyline style="fill-rule:evenodd;"
points="36696,42617
36696,42716
36420,42716
36420,42617
36696,42617
" /> 
<polyline style="fill-rule:evenodd;"
points="38615,42175
38157,42175
38157,41456
38615,41456
38615,42175
" /> 
<polyline style="fill-rule:evenodd;"
points="38157,42175
37700,42175
37700,41456
38157,41456
38157,42175
" /> 
<polyline style="fill-rule:evenodd;"
points="37700,42175
37242,42175
37242,41456
37700,41456
37700,42175
" /> 
<polyline style="fill-rule:evenodd;"
points="37242,42175
36784,42175
36784,41456
37242,41456
37242,42175
" /> 
<polyline style="fill-rule:evenodd;"
points="38615,42893
38157,42893
38157,42175
38615,42175
38615,42893
" /> 
<polyline style="fill-rule:evenodd;"
points="38157,42893
37700,42893
37700,42175
38157,42175
38157,42893
" /> 
<polyline style="fill-rule:evenodd;"
points="37700,42893
37242,42893
37242,42175
37700,42175
37700,42893
" /> 
<polyline style="fill-rule:evenodd;"
points="37242,42893
36784,42893
36784,42175
37242,42175
37242,42893
" /> 
<circle cx="37200" cy="44800" r="300" /> 
</g>
<g style="fill:#000000; fill-opacity:1.0; 
stroke:#000000; stroke-width:39.3701; stroke-opacity:1; 
stroke-linecap:round; stroke-linejoin:round;">
</g>
<g style="fill:#000000; fill-opacity:1.0; 
stroke:#000000; stroke-width:0; stroke-opacity:1; 
stroke-linecap:round; stroke-linejoin:round;">
<circle cx="38200" cy="44800" r="300" /> 
</g>
<g style="fill:#000000; fill-opacity:1.0; 
stroke:#000000; stroke-width:39.3701; stroke-opacity:1; 
stroke-linecap:round; stroke-linejoin:round;">
</g>
<g style="fill:#000000; fill-opacity:1.0; 
stroke:#000000; stroke-width:0; stroke-opacity:1; 
stroke-linecap:round; stroke-linejoin:round;">
<circle cx="38200" cy="45587" r="300" /> 
</g>
<g style="fill:#000000; fill-opacity:1.0; 
stroke:#000000; stroke-width:39.3701; stroke-opacity:1; 
stroke-linecap:round; stroke-linejoin:round;">
</g>
<g style="fill:#000000; fill-opacity:1.0; 
stroke:#000000; stroke-width:0; stroke-opacity:1; 
stroke-linecap:round; stroke-linejoin:round;">
<circle cx="37200" cy="45587" r="300" /> 
</g>
<g style="fill:#000000; fill-opacity:1.0; 
stroke:#000000; stroke-width:39.3701; stroke-opacity:1; 
stroke-linecap:round; stroke-linejoin:round;">
</g>
<g style="fill:#000000; fill-opacity:1.0; 
stroke:#000000; stroke-width:0; stroke-opacity:1; 
stroke-linecap:round; stroke-linejoin:round;">
<circle cx="35338" cy="46650" r="531.5" /> 
</g>
<g style="fill:#000000; fill-opacity:1.0; 
stroke:#000000; stroke-width:39.3701; stroke-opacity:1; 
stroke-linecap:round; stroke-linejoin:round;">
</g>
<g style="fill:#000000; fill-opacity:1.0; 
stroke:#000000; stroke-width:0; stroke-opacity:1; 
stroke-linecap:round; stroke-linejoin:round;">
<circle cx="40062" cy="46650" r="531.5" /> 
</g>
<g style="fill:#000000; fill-opacity:1.0; 
stroke:#000000; stroke-width:39.3701; stroke-opacity:1; 
stroke-linecap:round; stroke-linejoin:round;">
</g>
<g style="fill:#000000; fill-opacity:1.0; 
stroke:#000000; stroke-width:0; stroke-opacity:1; 
stroke-linecap:round; stroke-linejoin:round;">
<polyline style="fill-rule:evenodd;"
points="35640,40350
34960,40350
34960,39550
35640,39550
35640,40350
" /> 
</g>
<g style="fill:#000000; fill-opacity:1.0; 
stroke:#000000; stroke-width:680; stroke-opacity:1; 
stroke-linecap:round; stroke-linejoin:round;">
</g>
<g style="fill:#000000; fill-opacity:0.0; 
stroke:#000000; stroke-width:680; stroke-opacity:1; 
stroke-linecap:round; stroke-linejoin:round;">
<path d="M36300 40010
L36300 39890
" />
<path d="M37300 40010
L37300 39890
" />
<path d="M38300 40010
L38300 39890
" />
<path d="M39300 40010
L39300 39890
" />
<path d="M40300 40010
L40300 39890
" />
</g>
<g style="fill:#000000; fill-opacity:0.0; 
stroke:#000000; stroke-width:196.85; stroke-opacity:1; 
stroke-linecap:round; stroke-linejoin:round;">
<path d="M36141 37250
L36141 36791
" />
<path d="M36435 36498
L36700 36498
" />
<path d="M36141 36791
L36435 36498
" />
</g>
<g style="fill:#000000; fill-opacity:0.0; 
stroke:#000000; stroke-width:98.4252; stroke-opacity:1; 
stroke-linecap:round; stroke-linejoin:round;">
<path d="M37013 42534
L37013 42686
" />
<path d="M37013 42686
L36300 43400
" />
<path d="M38386 42534
L38386 42636
" />
<path d="M38386 42636
L39200 43450
" />
<path d="M39200 43450
L39300 43450
" />
<path d="M37404 43119
L37404 42600
" />
<path d="M37404 42600
L37471 42534
" />
<path d="M37404 43119
L37404 43540
" />
<path d="M37204 43740
L36850 43740
" />
<path d="M37404 43540
L37204 43740
" />
</g>
<g style="fill:#000000; fill-opacity:0.0; 
stroke:#000000; stroke-width:196.85; stroke-opacity:1; 
stroke-linecap:round; stroke-linejoin:round;">
<path d="M35016 35998
L35016 36840
" />
<path d="M35016 36840
L35024 36848
" />
<path d="M34829 35342
L34829 35810
" />
<path d="M34829 35810
L35016 35998
" />
<path d="M34275 36848
L34275 36573
" />
<path d="M34275 36573
L33550 35848
" />
<path d="M37700 33314
L37700 31197
" />
<path d="M37700 31197
L39405 29492
" />
<path d="M39405 29492
L39496 29492
" />
<path d="M39200 35498
L39620 35498
" />
<path d="M39803 30157
L40468 29492
" />
<path d="M39291 30157
L39803 30157
" />
<path d="M38228 31220
L39291 30157
" />
<path d="M38228 34251
L38228 31220
" />
<path d="M38582 34606
L38228 34251
" />
<path d="M39488 34606
L38582 34606
" />
<path d="M39724 34842
L39488 34606
" />
<path d="M39724 35393
L39724 34842
" />
<path d="M39620 35498
L39724 35393
" />
<path d="M40468 29492
L40496 29492
" />
<path d="M40496 29543
L40496 29492
" />
<path d="M35944 33503
L36417 33031
" />
<path d="M35883 35686
L35625 35428
" />
<path d="M35625 35428
L35625 34685
" />
<path d="M35625 34685
L35748 34562
" />
<path d="M35748 34562
L35791 34562
" />
<path d="M35791 34562
L35944 34409
" />
<path d="M35944 34409
L35944 33503
" />
<path d="M35883 35998
L35883 35686
" />
<path d="M35551 28937
L34996 29492
" />
<path d="M36259 28937
L35551 28937
" />
<path d="M36850 29527
L36259 28937
" />
<path d="M36850 32598
L36850 29527
" />
<path d="M36417 33031
L36850 32598
" />
<path d="M35883 35998
L35883 35931
" />
<path d="M35883 35998
L36700 35998
" />
<path d="M39300 39950
L39300 38500
" />
<path d="M36383 33666
L36383 33998
" />
<path d="M37400 32650
L36383 33666
" />
<path d="M37400 31000
L37400 32650
" />
<path d="M38900 29500
L37400 31000
" />
<path d="M38900 29250
L38900 29500
" />
<path d="M39150 29000
L38900 29250
" />
<path d="M40750 29000
L39150 29000
" />
<path d="M41050 29300
L40750 29000
" />
<path d="M41050 29750
L41050 29300
" />
<path d="M40800 30000
L41050 29750
" />
<path d="M40650 30000
L40800 30000
" />
<path d="M40150 30500
L40650 30000
" />
<path d="M39450 30500
L40150 30500
" />
<path d="M38550 31400
L39450 30500
" />
<path d="M38550 34000
L38550 31400
" />
<path d="M38850 34300
L38550 34000
" />
<path d="M39750 34300
L38850 34300
" />
<path d="M40050 34600
L39750 34300
" />
<path d="M40050 37750
L40050 34600
" />
<path d="M39300 38500
L40050 37750
" />
</g>
<g style="fill:#000000; fill-opacity:0.0; 
stroke:#000000; stroke-width:98.4252; stroke-opacity:1; 
stroke-linecap:round; stroke-linejoin:round;">
<path d="M36558 42076
L36276 42076
" />
<path d="M39300 40800
L39300 39950
" />
<path d="M39200 40900
L39300 40800
" />
<path d="M38850 40900
L39200 40900
" />
<path d="M38400 40900
L38850 40900
" />
<path d="M38150 40900
L38400 40900
" />
<path d="M36650 40900
L38150 40900
" />
<path d="M36200 41350
L36650 40900
" />
<path d="M36200 42000
L36200 41350
" />
<path d="M36276 42076
L36200 42000
" />
</g>
<g style="fill:#000000; fill-opacity:0.0; 
stroke:#000000; stroke-width:196.85; stroke-opacity:1; 
stroke-linecap:round; stroke-linejoin:round;">
<path d="M36383 33998
L36383 33971
" />
<path d="M36700 34998
L36700 34950
" />
<path d="M36383 33998
L36450 33998
" />
<path d="M36383 33998
L36383 34181
" />
<path d="M36700 34498
L36700 34998
" />
<path d="M36383 34181
L36700 34498
" />
<path d="M38300 39950
L38300 39050
" />
<path d="M39498 35998
L39200 35998
" />
<path d="M39750 36250
L39498 35998
" />
<path d="M39750 37600
L39750 36250
" />
<path d="M38300 39050
L39750 37600
" />
</g>
<g style="fill:#000000; fill-opacity:0.0; 
stroke:#000000; stroke-width:98.4252; stroke-opacity:1; 
stroke-linecap:round; stroke-linejoin:round;">
<path d="M36558 42273
L36173 42273
" />
<path d="M38300 40477
L38300 39950
" />
<path d="M38077 40700
L38300 40477
" />
<path d="M36550 40700
L38077 40700
" />
<path d="M36022 41227
L36550 40700
" />
<path d="M36022 42122
L36022 41227
" />
<path d="M36173 42273
L36022 42122
" />
</g>
<g style="fill:#000000; fill-opacity:0.0; 
stroke:#000000; stroke-width:196.85; stroke-opacity:1; 
stroke-linecap:round; stroke-linejoin:round;">
<path d="M39200 35998
L39423 35998
" />
<path d="M34200 35431
L34200 35248
" />
<path d="M34200 35248
L34794 34653
" />
<path d="M34794 34653
L34829 34653
" />
<path d="M39083 37248
L39083 37391
" />
<path d="M39083 37391
L38775 37700
" />
<path d="M37400 37700
L37008 37308
" />
<path d="M38775 37700
L37400 37700
" />
<path d="M37008 37308
L37008 37250
" />
<path d="M37008 37250
L37125 37250
" />
<path d="M39083 37248
L39083 36614
" />
<path d="M39083 36614
L39200 36498
" />
<path d="M39133 36564
L39200 36498
" />
<path d="M36050 34998
L36050 35348
" />
<path d="M36200 35498
L36700 35498
" />
<path d="M36050 35348
L36200 35498
" />
<path d="M37200 44800
L37200 44450
" />
</g>
<g style="fill:#000000; fill-opacity:0.0; 
stroke:#000000; stroke-width:98.4252; stroke-opacity:1; 
stroke-linecap:round; stroke-linejoin:round;">
<path d="M37798 43901
L37798 43119
" />
<path d="M37700 44000
L37798 43901
" />
</g>
<g style="fill:#000000; fill-opacity:0.0; 
stroke:#000000; stroke-width:196.85; stroke-opacity:1; 
stroke-linecap:round; stroke-linejoin:round;">
<path d="M37650 44000
L37700 44000
" />
<path d="M37200 44450
L37650 44000
" />
<path d="M37200 44800
L37250 44800
" />
</g>
<g style="fill:#000000; fill-opacity:0.0; 
stroke:#000000; stroke-width:98.4252; stroke-opacity:1; 
stroke-linecap:round; stroke-linejoin:round;">
<path d="M37601 43119
L37601 43598
" />
</g>
<g style="fill:#000000; fill-opacity:0.0; 
stroke:#000000; stroke-width:196.85; stroke-opacity:1; 
stroke-linecap:round; stroke-linejoin:round;">
<path d="M36700 45300
L36987 45587
" />
<path d="M36700 44500
L36700 45300
" />
<path d="M37100 44100
L36700 44500
" />
</g>
<g style="fill:#000000; fill-opacity:0.0; 
stroke:#000000; stroke-width:98.4252; stroke-opacity:1; 
stroke-linecap:round; stroke-linejoin:round;">
<path d="M37601 43598
L37100 44100
" />
</g>
<g style="fill:#000000; fill-opacity:0.0; 
stroke:#000000; stroke-width:196.85; stroke-opacity:1; 
stroke-linecap:round; stroke-linejoin:round;">
<path d="M36987 45587
L37200 45587
" />
</g>
<g style="fill:#000000; fill-opacity:0.0; 
stroke:#000000; stroke-width:98.4252; stroke-opacity:1; 
stroke-linecap:round; stroke-linejoin:round;">
<path d="M37175 45662
L37175 45650
" />
<path d="M37175 45662
L37162 45662
" />
</g>
<g style="fill:#000000; fill-opacity:0.0; 
stroke:#000000; stroke-width:196.85; stroke-opacity:1; 
stroke-linecap:round; stroke-linejoin:round;">
<path d="M37300 39950
L37300 38540
" />
<path d="M37897 37248
L38216 37248
" />
<path d="M37460 36811
L37897 37248
" />
<path d="M36653 36811
L37460 36811
" />
<path d="M36574 36889
L36653 36811
" />
<path d="M36574 37342
L36574 36889
" />
<path d="M36574 37814
L36574 37342
" />
<path d="M37300 38540
L36574 37814
" />
<path d="M35516 33998
L35516 33420
" />
<path d="M36535 29960
L36066 29492
" />
<path d="M36535 32401
L36535 29960
" />
<path d="M35516 33420
L36535 32401
" />
<path d="M36066 29492
L35996 29492
" />
<path d="M35516 33998
L35516 34281
" />
</g>
<g style="fill:#000000; fill-opacity:0.0; 
stroke:#000000; stroke-width:118.11; stroke-opacity:1; 
stroke-linecap:round; stroke-linejoin:round;">
<path d="M37750 36648
L38266 36648
" />
<path d="M37350 36248
L37750 36648
" />
<path d="M36250 36248
L37350 36248
" />
<path d="M36050 36448
L36250 36248
" />
<path d="M35650 36448
L36050 36448
" />
</g>
<g style="fill:#000000; fill-opacity:0.0; 
stroke:#000000; stroke-width:196.85; stroke-opacity:1; 
stroke-linecap:round; stroke-linejoin:round;">
<path d="M35450 36248
L35650 36448
" />
<path d="M35450 35748
L35450 36248
" />
<path d="M35350 35648
L35450 35748
" />
<path d="M35350 34448
L35350 35648
" />
<path d="M35516 34281
L35350 34448
" />
<path d="M38266 35448
L38266 36648
" />
<path d="M38266 36648
L38266 37198
" />
<path d="M38266 37198
L38216 37248
" />
<path d="M38266 37331
L38266 37248
" />
<path d="M33833 34564
L34200 34564
" />
<path d="M33550 34848
L33833 34564
" />
<path d="M33550 35848
L33550 34848
" />
<path d="M35516 33998
L35207 33998
" />
<path d="M35207 33998
L34953 33744
" />
<path d="M38266 35498
L38266 35448
" />
<path d="M38266 35448
L38266 34748
" />
<path d="M38266 34748
L37700 34181
" />
<path d="M38266 35498
L38266 35431
" />
<path d="M38700 34998
L39200 34998
" />
<path d="M38266 35431
L38700 34998
" />
<path d="M34953 33744
L34200 34498
" />
<path d="M34200 34498
L34200 34564
" />
</g>
<g style="fill:#000000; fill-opacity:0.0; 
stroke:#000000; stroke-width:98.4252; stroke-opacity:1; 
stroke-linecap:round; stroke-linejoin:round;">
<path d="M37300 39950
L37300 40100
" />
<path d="M37300 40100
L36877 40522
" />
<path d="M36877 40522
L36277 40522
" />
<path d="M36277 40522
L35750 41050
" />
<path d="M35750 41050
L35750 42550
" />
</g>
<g style="fill:#000000; fill-opacity:0.0; 
stroke:#000000; stroke-width:196.85; stroke-opacity:1; 
stroke-linecap:round; stroke-linejoin:round;">
<path d="M35750 42550
L35750 44950
" />
<path d="M35750 44950
L35750 45000
" />
<path d="M35750 45000
L35750 45050
" />
<path d="M35750 45050
L36300 45600
" />
</g>
<g style="fill:#000000; fill-opacity:0.0; 
stroke:#000000; stroke-width:98.4252; stroke-opacity:1; 
stroke-linecap:round; stroke-linejoin:round;">
<path d="M37995 43119
L37995 44104
" />
</g>
<g style="fill:#000000; fill-opacity:0.0; 
stroke:#000000; stroke-width:196.85; stroke-opacity:1; 
stroke-linecap:round; stroke-linejoin:round;">
<path d="M36900 46200
L36300 45600
" />
<path d="M37600 46200
L36900 46200
" />
<path d="M37700 46100
L37600 46200
" />
<path d="M37700 44400
L37700 46100
" />
<path d="M37750 44350
L37700 44400
" />
</g>
<g style="fill:#000000; fill-opacity:0.0; 
stroke:#000000; stroke-width:98.4252; stroke-opacity:1; 
stroke-linecap:round; stroke-linejoin:round;">
<path d="M37995 44104
L37750 44350
" />
</g>
<g style="fill:#000000; fill-opacity:0.0; 
stroke:#000000; stroke-width:196.85; stroke-opacity:1; 
stroke-linecap:round; stroke-linejoin:round;">
<path d="M37225 39775
L37200 39800
" />
</g>
<g style="fill:#000000; fill-opacity:0.0; 
stroke:#000000; stroke-width:98.4252; stroke-opacity:1; 
stroke-linecap:round; stroke-linejoin:round;">
<path d="M38192 43119
L38192 44857
" />
<path d="M38192 44857
L38175 44875
" />
<path d="M38192 43119
L38388 43119
" />
</g>
<g style="fill:#000000; fill-opacity:1.0; 
stroke:#000000; stroke-width:100; stroke-opacity:1; 
stroke-linecap:round; stroke-linejoin:round;">
<polyline style="fill-rule:evenodd;"
points="41944,50606
33350,50606
33350,47203
34855,47203
34911,47322
35200,47434
35511,47427
35764,47322
35820,47203
39579,47203
39635,47322
39924,47434
40235,47427
40488,47322
40544,47203
40062,46720
39579,47203
35820,47203
35338,46720
34855,47203
33350,47203
33350,46512
34553,46512
34560,46823
34665,47076
34784,47132
35267,46650
35408,46650
35891,47132
36010,47076
36122,46787
36115,46476
36010,46223
35891,46167
35408,46650
35267,46650
34784,46167
34665,46223
34553,46512
33350,46512
33350,46096
34855,46096
35338,46579
35820,46096
35764,45977
35475,45865
35164,45872
34911,45977
34855,46096
33350,46096
33350,40062
34710,40062
34710,40399
34748,40491
34818,40561
34910,40600
35187,40600
35250,40537
35250,40000
34772,40000
34710,40062
33350,40062
33350,39500
34710,39500
34710,39837
34772,39900
35250,39900
35250,39362
35187,39300
34910,39300
34818,39338
34748,39408
34710,39500
33350,39500
33350,37362
35655,37362
35655,37476
35693,37568
35764,37639
35855,37677
36029,37677
36091,37614
36091,37300
35718,37300
35655,37362
33350,37362
33350,36141
33807,36597
33804,36601
33784,36700
33784,36995
33802,37088
33857,37173
33940,37230
34039,37250
34512,37250
34604,37233
34645,37206
34646,37207
34738,37245
34911,37245
34974,37183
34974,36898
35074,36898
35074,37183
35136,37245
35309,37245
35401,37207
35472,37137
35510,37045
35510,37023
35655,37023
35655,37137
35718,37200
36091,37200
36091,36885
36029,36822
35855,36822
35764,36860
35693,36931
35655,37023
35510,37023
35510,36960
35447,36898
35074,36898
34974,36898
34966,36898
34966,36798
34974,36798
34974,36512
34911,36450
34738,36450
34646,36488
34645,36488
34611,36465
34602,36463
34597,36440
34597,36440
34522,36327
34522,36327
34305,36110
34530,36110
34530,36224
34568,36316
34639,36387
34730,36425
34904,36425
34966,36362
34966,36048
34593,36048
34530,36110
34305,36110
34116,35922
34377,35922
34469,35904
34530,35865
34530,35885
34593,35948
34966,35948
34966,35940
35066,35940
35066,35948
35074,35948
35074,36048
35066,36048
35066,36362
35129,36425
35157,36425
35170,36445
35174,36450
35136,36450
35074,36512
35074,36798
35447,36798
35492,36753
35516,36769
35650,36796
35783,36769
35802,36757
36050,36757
36168,36733
36240,36685
36263,36739
36263,36740
36252,36756
36252,36756
36236,36841
36191,36885
36191,37200
36199,37200
36199,37300
36191,37300
36191,37614
36226,37649
36226,37814
36226,37814
36232,37846
36252,37948
36319,38048
36328,38061
36951,38684
36951,39414
36882,39460
36800,39584
36717,39460
36525,39332
36300,39287
36074,39332
35882,39460
35876,39468
35851,39408
35781,39338
35689,39300
35412,39300
35350,39362
35350,39900
35357,39900
35357,40000
35350,40000
35350,40537
35412,40600
35689,40600
35781,40561
35851,40491
35876,40431
35882,40439
35915,40461
35538,40838
35473,40935
35450,41050
35450,42382
35428,42416
35401,42550
35401,45049
35401,45050
35415,45121
35428,45183
35491,45278
35503,45296
36053,45846
36053,45846
36653,46446
36653,46446
36753,46512
36766,46521
36900,46548
37599,46548
37600,46548
37711,46526
37733,46521
37746,46512
39277,46512
39284,46823
39389,47076
39508,47132
39991,46650
40132,46650
40615,47132
40734,47076
40846,46787
40839,46476
40734,46223
40615,46167
40132,46650
39991,46650
39508,46167
39389,46223
39277,46512
37746,46512
37846,46446
37846,46446
37946,46346
37946,46346
38021,46233
38028,46200
38045,46115
38118,46141
38336,46130
38419,46096
39579,46096
40062,46579
40544,46096
40488,45977
40199,45865
39888,45872
39635,45977
39579,46096
38419,46096
38487,46068
38515,45972
38200,45657
38194,45663
38123,45592
38129,45587
38270,45587
38585,45902
38681,45874
38754,45668
38743,45450
38681,45299
38585,45271
38270,45587
38129,45587
38123,45581
38194,45510
38200,45516
38406,45309
38511,45266
38665,45111
38749,44909
38750,44691
38666,44488
38511,44334
38491,44325
38491,43502
38530,43495
38615,43440
38673,43356
38693,43257
38693,43131
38756,43105
38827,43035
38853,42971
38979,42971
39072,42953
39157,42899
39214,42815
39234,42716
39234,42617
39224,42566
39234,42519
39234,42421
39224,42370
39234,42322
39234,42224
39224,42173
39234,42125
39234,42027
39224,41976
39234,41928
39234,41830
39224,41779
39234,41732
39234,41633
39216,41541
39162,41455
39078,41398
38979,41378
38853,41378
38827,41314
38756,41244
38693,41218
38693,41199
39200,41199
39314,41176
39411,41111
39511,41011
39576,40914
39599,40800
39599,40518
39717,40439
39800,40315
39882,40439
40074,40567
40300,40612
40525,40567
40717,40439
40845,40248
40890,40022
40890,39877
40845,39651
40717,39460
40525,39332
40300,39287
40074,39332
39882,39460
39800,39584
39717,39460
39648,39414
39648,38644
40296,37996
40296,37996
40371,37883
40381,37833
40398,37750
40398,37749
40398,34600
40398,34600
40373,34472
40371,34466
40296,34353
40296,34353
39996,34053
39968,34034
39883,33978
39848,33971
39750,33951
39749,33951
38994,33951
38898,33855
38898,31544
39594,30848
40149,30848
40150,30848
40261,30826
40283,30821
40396,30746
40794,30348
40799,30348
40800,30348
40911,30326
40933,30321
41046,30246
41296,29996
41296,29996
41371,29883
41371,29883
41398,29750
41398,29749
41398,29300
41398,29300
41375,29183
41371,29166
41296,29053
41296,29053
40996,28753
40883,28678
40861,28673
40750,28651
40749,28651
39150,28651
39150,28651
39016,28678
39016,28678
39016,28678
38903,28753
38903,28753
38653,29003
38578,29116
38578,29116
38551,29250
38551,29250
38551,29355
37198,30708
37198,29527
37172,29394
37096,29281
37096,29281
36506,28690
36487,28678
36393,28615
36371,28610
36259,28588
36259,28588
35551,28588
35551,28588
35417,28615
35304,28690
35304,28690
35048,28946
34888,28946
34687,29029
34534,29182
34450,29383
34450,29600
34533,29800
34686,29954
34887,30037
35104,30037
35304,29954
35458,29801
35496,29709
35533,29800
35686,29954
35887,30037
36104,30037
36115,30032
36187,30104
36187,32257
35270,33173
35195,33286
35195,33286
35168,33420
35168,33420
35168,33476
35087,33422
34953,33395
34820,33422
34707,33497
34707,33497
34131,34073
34022,34073
33930,34091
33845,34145
33791,34224
33699,34243
33677,34257
33586,34318
33586,34318
33350,34554
33350,28133
41944,28133
41944,50606
" /> 
<polyline style="fill-rule:evenodd;"
points="36173,42572
36174,42572
36165,42617
36165,42716
36183,42808
36237,42894
36321,42951
36420,42971
36546,42971
36572,43035
36643,43105
36706,43131
36706,43257
36724,43350
36779,43435
36862,43492
36961,43512
37060,43512
37111,43502
37158,43512
37257,43512
37265,43510
37006,43770
36966,43778
36853,43853
36453,44253
36378,44366
36378,44366
36351,44500
36351,44500
36351,45158
36098,44905
36098,42557
36173,42572
" /> 
<polyline style="fill-rule:evenodd;"
points="37054,42484
37429,42484
37437,42476
37504,42476
37512,42484
37887,42484
37895,42476
37962,42476
37970,42484
38345,42484
38353,42476
38436,42476
38436,42484
38444,42484
38444,42584
38436,42584
38436,42592
38353,42592
38345,42584
37970,42584
37962,42592
37895,42592
37887,42584
37512,42584
37504,42592
37437,42592
37429,42584
37054,42584
37046,42592
36963,42592
36963,42584
36955,42584
36955,42484
36963,42484
36963,42476
37046,42476
37054,42484
" /> 
<polyline style="fill-rule:evenodd;"
points="37054,41765
37429,41765
37437,41757
37504,41757
37512,41765
37887,41765
37895,41757
37962,41757
37970,41765
38345,41765
38353,41757
38436,41757
38436,41765
38444,41765
38444,41865
38436,41865
38436,41873
38353,41873
38345,41865
37970,41865
37962,41873
37895,41873
37887,41865
37512,41865
37504,41873
37437,41873
37429,41865
37054,41865
37046,41873
36963,41873
36963,41865
36955,41865
36955,41765
36963,41765
36963,41757
37046,41757
37054,41765
" /> 
<polyline style="fill-rule:evenodd;"
points="34879,35292
34887,35292
34887,35392
34879,35392
34879,35400
34779,35400
34779,35392
34772,35392
34772,35292
34779,35292
34779,35284
34879,35284
34879,35292
" /> 
</g>
<g style="fill:#FFFFFF; fill-opacity:1.0; 
stroke:#FFFFFF; stroke-width:100; stroke-opacity:1; 
stroke-linecap:round; stroke-linejoin:round;">
</g>
<g style="fill:#FFFFFF; fill-opacity:1.0; 
stroke:#FFFFFF; stroke-width:0; stroke-opacity:1; 
stroke-linecap:round; stroke-linejoin:round;">
<circle cx="39496.1" cy="29492.1" r="118.11" /> 
</g>
<g style="fill:#FFFFFF; fill-opacity:1.0; 
stroke:#FFFFFF; stroke-width:39.3701; stroke-opacity:1; 
stroke-linecap:round; stroke-linejoin:round;">
</g>
<g style="fill:#FFFFFF; fill-opacity:1.0; 
stroke:#FFFFFF; stroke-width:0; stroke-opacity:1; 
stroke-linecap:round; stroke-linejoin:round;">
<circle cx="40496.1" cy="29492.1" r="118.11" /> 
</g>
<g style="fill:#FFFFFF; fill-opacity:1.0; 
stroke:#FFFFFF; stroke-width:39.3701; stroke-opacity:1; 
stroke-linecap:round; stroke-linejoin:round;">
</g>
<g style="fill:#FFFFFF; fill-opacity:1.0; 
stroke:#FFFFFF; stroke-width:0; stroke-opacity:1; 
stroke-linecap:round; stroke-linejoin:round;">
<circle cx="34996.1" cy="29492.1" r="118.11" /> 
</g>
<g style="fill:#FFFFFF; fill-opacity:1.0; 
stroke:#FFFFFF; stroke-width:39.3701; stroke-opacity:1; 
stroke-linecap:round; stroke-linejoin:round;">
</g>
<g style="fill:#FFFFFF; fill-opacity:1.0; 
stroke:#FFFFFF; stroke-width:0; stroke-opacity:1; 
stroke-linecap:round; stroke-linejoin:round;">
<circle cx="35996.1" cy="29492.1" r="118.11" /> 
</g>
<g style="fill:#FFFFFF; fill-opacity:1.0; 
stroke:#FFFFFF; stroke-width:39.3701; stroke-opacity:1; 
stroke-linecap:round; stroke-linejoin:round;">
</g>
<g style="fill:#FFFFFF; fill-opacity:1.0; 
stroke:#FFFFFF; stroke-width:0; stroke-opacity:1; 
stroke-linecap:round; stroke-linejoin:round;">
<circle cx="37200" cy="44800" r="160" /> 
</g>
<g style="fill:#FFFFFF; fill-opacity:1.0; 
stroke:#FFFFFF; stroke-width:39.3701; stroke-opacity:1; 
stroke-linecap:round; stroke-linejoin:round;">
</g>
<g style="fill:#FFFFFF; fill-opacity:1.0; 
stroke:#FFFFFF; stroke-width:0; stroke-opacity:1; 
stroke-linecap:round; stroke-linejoin:round;">
<circle cx="38200" cy="44800" r="160" /> 
</g>
<g style="fill:#FFFFFF; fill-opacity:1.0; 
stroke:#FFFFFF; stroke-width:39.3701; stroke-opacity:1; 
stroke-linecap:round; stroke-linejoin:round;">
</g>
<g style="fill:#FFFFFF; fill-opacity:1.0; 
stroke:#FFFFFF; stroke-width:0; stroke-opacity:1; 
stroke-linecap:round; stroke-linejoin:round;">
<circle cx="38200" cy="45587" r="160" /> 
</g>
<g style="fill:#FFFFFF; fill-opacity:1.0; 
stroke:#FFFFFF; stroke-width:39.3701; stroke-opacity:1; 
stroke-linecap:round; stroke-linejoin:round;">
</g>
<g style="fill:#FFFFFF; fill-opacity:1.0; 
stroke:#FFFFFF; stroke-width:0; stroke-opacity:1; 
stroke-linecap:round; stroke-linejoin:round;">
<circle cx="37200" cy="45587" r="160" /> 
</g>
<g style="fill:#FFFFFF; fill-opacity:1.0; 
stroke:#FFFFFF; stroke-width:39.3701; stroke-opacity:1; 
stroke-linecap:round; stroke-linejoin:round;">
</g>
<g style="fill:#FFFFFF; fill-opacity:1.0; 
stroke:#FFFFFF; stroke-width:0; stroke-opacity:1; 
stroke-linecap:round; stroke-linejoin:round;">
<circle cx="35338" cy="46650" r="453" /> 
</g>
<g style="fill:#FFFFFF; fill-opacity:1.0; 
stroke:#FFFFFF; stroke-width:39.3701; stroke-opacity:1; 
stroke-linecap:round; stroke-linejoin:round;">
</g>
<g style="fill:#FFFFFF; fill-opacity:1.0; 
stroke:#FFFFFF; stroke-width:0; stroke-opacity:1; 
stroke-linecap:round; stroke-linejoin:round;">
<circle cx="40062" cy="46650" r="453" /> 
</g>
<g style="fill:#FFFFFF; fill-opacity:1.0; 
stroke:#FFFFFF; stroke-width:39.3701; stroke-opacity:1; 
stroke-linecap:round; stroke-linejoin:round;">
</g>
<g style="fill:#FFFFFF; fill-opacity:1.0; 
stroke:#FFFFFF; stroke-width:0; stroke-opacity:1; 
stroke-linecap:round; stroke-linejoin:round;">
<circle cx="35300" cy="39950" r="200" /> 
</g>
<g style="fill:#FFFFFF; fill-opacity:1.0; 
stroke:#FFFFFF; stroke-width:39.3701; stroke-opacity:1; 
stroke-linecap:round; stroke-linejoin:round;">
</g>
<g style="fill:#FFFFFF; fill-opacity:1.0; 
stroke:#FFFFFF; stroke-width:0; stroke-opacity:1; 
stroke-linecap:round; stroke-linejoin:round;">
<circle cx="36300" cy="39950" r="200" /> 
</g>
<g style="fill:#FFFFFF; fill-opacity:1.0; 
stroke:#FFFFFF; stroke-width:39.3701; stroke-opacity:1; 
stroke-linecap:round; stroke-linejoin:round;">
</g>
<g style="fill:#FFFFFF; fill-opacity:1.0; 
stroke:#FFFFFF; stroke-width:0; stroke-opacity:1; 
stroke-linecap:round; stroke-linejoin:round;">
<circle cx="37300" cy="39950" r="200" /> 
</g>
<g style="fill:#FFFFFF; fill-opacity:1.0; 
stroke:#FFFFFF; stroke-width:39.3701; stroke-opacity:1; 
stroke-linecap:round; stroke-linejoin:round;">
</g>
<g style="fill:#FFFFFF; fill-opacity:1.0; 
stroke:#FFFFFF; stroke-width:0; stroke-opacity:1; 
stroke-linecap:round; stroke-linejoin:round;">
<circle cx="38300" cy="39950" r="200" /> 
</g>
<g style="fill:#FFFFFF; fill-opacity:1.0; 
stroke:#FFFFFF; stroke-width:39.3701; stroke-opacity:1; 
stroke-linecap:round; stroke-linejoin:round;">
</g>
<g style="fill:#FFFFFF; fill-opacity:1.0; 
stroke:#FFFFFF; stroke-width:0; stroke-opacity:1; 
stroke-linecap:round; stroke-linejoin:round;">
<circle cx="39300" cy="39950" r="200" /> 
</g>
<g style="fill:#FFFFFF; fill-opacity:1.0; 
stroke:#FFFFFF; stroke-width:39.3701; stroke-opacity:1; 
stroke-linecap:round; stroke-linejoin:round;">
</g>
<g style="fill:#FFFFFF; fill-opacity:1.0; 
stroke:#FFFFFF; stroke-width:0; stroke-opacity:1; 
stroke-linecap:round; stroke-linejoin:round;">
<circle cx="40300" cy="39950" r="200" /> 
</g>
<g style="fill:#FFFFFF; fill-opacity:1.0; 
stroke:#FFFFFF; stroke-width:39.3701; stroke-opacity:1; 
stroke-linecap:round; stroke-linejoin:round;">
</g>
<g style="fill:#000000; fill-opacity:1.0; 
stroke:#000000; stroke-width:39.3701; stroke-opacity:1; 
stroke-linecap:round; stroke-linejoin:round;">
</g> 
</svg>
