<?xml version="1.0" encoding="UTF-8" standalone="no"?>
<!-- Created with Inkscape (http://www.inkscape.org/) -->

<svg
   xmlns:dc="http://purl.org/dc/elements/1.1/"
   xmlns:cc="http://creativecommons.org/ns#"
   xmlns:rdf="http://www.w3.org/1999/02/22-rdf-syntax-ns#"
   xmlns:svg="http://www.w3.org/2000/svg"
   xmlns="http://www.w3.org/2000/svg"
   xmlns:sodipodi="http://sodipodi.sourceforge.net/DTD/sodipodi-0.dtd"
   xmlns:inkscape="http://www.inkscape.org/namespaces/inkscape"
   width="210mm"
   height="297mm"
   viewBox="0 0 744.09448819 1052.3622047"
   id="svg2"
   version="1.1"
   inkscape:version="0.91 r13725"
   sodipodi:docname="3d_drawing.svg">
  <defs
     id="defs4">
    <marker
       inkscape:isstock="true"
       style="overflow:visible"
       id="marker16541"
       refX="0"
       refY="0"
       orient="auto"
       inkscape:stockid="Arrow2Mend">
      <path
         transform="scale(-0.6,-0.6)"
         d="M 8.7185878,4.0337352 -2.2072895,0.01601326 8.7185884,-4.0017078 c -1.7454984,2.3720609 -1.7354408,5.6174519 -6e-7,8.035443 z"
         style="fill:#000000;fill-opacity:1;fill-rule:evenodd;stroke:#000000;stroke-width:0.625;stroke-linejoin:round;stroke-opacity:1"
         id="path16543"
         inkscape:connector-curvature="0" />
    </marker>
    <marker
       inkscape:isstock="true"
       style="overflow:visible"
       id="marker12154"
       refX="0"
       refY="0"
       orient="auto"
       inkscape:stockid="Arrow2Mend">
      <path
         transform="scale(-0.6,-0.6)"
         d="M 8.7185878,4.0337352 -2.2072895,0.01601326 8.7185884,-4.0017078 c -1.7454984,2.3720609 -1.7354408,5.6174519 -6e-7,8.035443 z"
         style="fill:#000000;fill-opacity:1;fill-rule:evenodd;stroke:#000000;stroke-width:0.625;stroke-linejoin:round;stroke-opacity:1"
         id="path12156"
         inkscape:connector-curvature="0" />
    </marker>
    <marker
       inkscape:stockid="Arrow2Mstart"
       orient="auto"
       refY="0"
       refX="0"
       id="marker11922"
       style="overflow:visible"
       inkscape:isstock="true">
      <path
         inkscape:connector-curvature="0"
         id="path11924"
         style="fill:#000000;fill-opacity:1;fill-rule:evenodd;stroke:#000000;stroke-width:0.625;stroke-linejoin:round;stroke-opacity:1"
         d="M 8.7185878,4.0337352 -2.2072895,0.01601326 8.7185884,-4.0017078 c -1.7454984,2.3720609 -1.7354408,5.6174519 -6e-7,8.035443 z"
         transform="scale(0.6,0.6)" />
    </marker>
    <marker
       inkscape:isstock="true"
       style="overflow:visible"
       id="marker9721"
       refX="0"
       refY="0"
       orient="auto"
       inkscape:stockid="Arrow2Mstart">
      <path
         transform="scale(0.6,0.6)"
         d="M 8.7185878,4.0337352 -2.2072895,0.01601326 8.7185884,-4.0017078 c -1.7454984,2.3720609 -1.7354408,5.6174519 -6e-7,8.035443 z"
         style="fill:#000000;fill-opacity:1;fill-rule:evenodd;stroke:#000000;stroke-width:0.625;stroke-linejoin:round;stroke-opacity:1"
         id="path9723"
         inkscape:connector-curvature="0" />
    </marker>
    <marker
       inkscape:stockid="Arrow2Mend"
       orient="auto"
       refY="0"
       refX="0"
       id="marker9501"
       style="overflow:visible"
       inkscape:isstock="true">
      <path
         inkscape:connector-curvature="0"
         id="path9503"
         style="fill:#000000;fill-opacity:1;fill-rule:evenodd;stroke:#000000;stroke-width:0.625;stroke-linejoin:round;stroke-opacity:1"
         d="M 8.7185878,4.0337352 -2.2072895,0.01601326 8.7185884,-4.0017078 c -1.7454984,2.3720609 -1.7354408,5.6174519 -6e-7,8.035443 z"
         transform="scale(-0.6,-0.6)" />
    </marker>
    <marker
       inkscape:isstock="true"
       style="overflow:visible"
       id="marker9017"
       refX="0"
       refY="0"
       orient="auto"
       inkscape:stockid="Arrow2Mstart">
      <path
         transform="scale(0.6,0.6)"
         d="M 8.7185878,4.0337352 -2.2072895,0.01601326 8.7185884,-4.0017078 c -1.7454984,2.3720609 -1.7354408,5.6174519 -6e-7,8.035443 z"
         style="fill:#000000;fill-opacity:1;fill-rule:evenodd;stroke:#000000;stroke-width:0.625;stroke-linejoin:round;stroke-opacity:1"
         id="path9019"
         inkscape:connector-curvature="0" />
    </marker>
    <marker
       inkscape:stockid="Arrow2Mend"
       orient="auto"
       refY="0"
       refX="0"
       id="marker8585"
       style="overflow:visible"
       inkscape:isstock="true"
       inkscape:collect="always">
      <path
         inkscape:connector-curvature="0"
         id="path8587"
         style="fill:#000000;fill-opacity:1;fill-rule:evenodd;stroke:#000000;stroke-width:0.625;stroke-linejoin:round;stroke-opacity:1"
         d="M 8.7185878,4.0337352 -2.2072895,0.01601326 8.7185884,-4.0017078 c -1.7454984,2.3720609 -1.7354408,5.6174519 -6e-7,8.035443 z"
         transform="scale(-0.6,-0.6)" />
    </marker>
    <marker
       inkscape:isstock="true"
       style="overflow:visible"
       id="marker8401"
       refX="0"
       refY="0"
       orient="auto"
       inkscape:stockid="Arrow2Mstart"
       inkscape:collect="always">
      <path
         transform="scale(0.6,0.6)"
         d="M 8.7185878,4.0337352 -2.2072895,0.01601326 8.7185884,-4.0017078 c -1.7454984,2.3720609 -1.7354408,5.6174519 -6e-7,8.035443 z"
         style="fill:#000000;fill-opacity:1;fill-rule:evenodd;stroke:#000000;stroke-width:0.625;stroke-linejoin:round;stroke-opacity:1"
         id="path8403"
         inkscape:connector-curvature="0" />
    </marker>
    <marker
       inkscape:stockid="Arrow2Mend"
       orient="auto"
       refY="0"
       refX="0"
       id="marker8221"
       style="overflow:visible"
       inkscape:isstock="true">
      <path
         inkscape:connector-curvature="0"
         id="path8223"
         style="fill:#000000;fill-opacity:1;fill-rule:evenodd;stroke:#000000;stroke-width:0.625;stroke-linejoin:round;stroke-opacity:1"
         d="M 8.7185878,4.0337352 -2.2072895,0.01601326 8.7185884,-4.0017078 c -1.7454984,2.3720609 -1.7354408,5.6174519 -6e-7,8.035443 z"
         transform="scale(-0.6,-0.6)" />
    </marker>
    <marker
       inkscape:stockid="Arrow2Mend"
       orient="auto"
       refY="0"
       refX="0"
       id="marker8025"
       style="overflow:visible"
       inkscape:isstock="true">
      <path
         inkscape:connector-curvature="0"
         id="path8027"
         style="fill:#000000;fill-opacity:1;fill-rule:evenodd;stroke:#000000;stroke-width:0.625;stroke-linejoin:round;stroke-opacity:1"
         d="M 8.7185878,4.0337352 -2.2072895,0.01601326 8.7185884,-4.0017078 c -1.7454984,2.3720609 -1.7354408,5.6174519 -6e-7,8.035443 z"
         transform="scale(-0.6,-0.6)" />
    </marker>
    <marker
       inkscape:isstock="true"
       style="overflow:visible"
       id="marker7697"
       refX="0"
       refY="0"
       orient="auto"
       inkscape:stockid="Arrow2Mend">
      <path
         transform="scale(-0.6,-0.6)"
         d="M 8.7185878,4.0337352 -2.2072895,0.01601326 8.7185884,-4.0017078 c -1.7454984,2.3720609 -1.7354408,5.6174519 -6e-7,8.035443 z"
         style="fill:#000000;fill-opacity:1;fill-rule:evenodd;stroke:#000000;stroke-width:0.625;stroke-linejoin:round;stroke-opacity:1"
         id="path7699"
         inkscape:connector-curvature="0" />
    </marker>
    <marker
       inkscape:stockid="Arrow2Mend"
       orient="auto"
       refY="0"
       refX="0"
       id="marker7051"
       style="overflow:visible"
       inkscape:isstock="true">
      <path
         inkscape:connector-curvature="0"
         id="path7053"
         style="fill:#000000;fill-opacity:1;fill-rule:evenodd;stroke:#000000;stroke-width:0.625;stroke-linejoin:round;stroke-opacity:1"
         d="M 8.7185878,4.0337352 -2.2072895,0.01601326 8.7185884,-4.0017078 c -1.7454984,2.3720609 -1.7354408,5.6174519 -6e-7,8.035443 z"
         transform="scale(-0.6,-0.6)" />
    </marker>
    <marker
       inkscape:stockid="Arrow2Mstart"
       orient="auto"
       refY="0"
       refX="0"
       id="marker6667"
       style="overflow:visible"
       inkscape:isstock="true"
       inkscape:collect="always">
      <path
         inkscape:connector-curvature="0"
         id="path6669"
         style="fill:#000000;fill-opacity:1;fill-rule:evenodd;stroke:#000000;stroke-width:0.625;stroke-linejoin:round;stroke-opacity:1"
         d="M 8.7185878,4.0337352 -2.2072895,0.01601326 8.7185884,-4.0017078 c -1.7454984,2.3720609 -1.7354408,5.6174519 -6e-7,8.035443 z"
         transform="scale(0.6,0.6)" />
    </marker>
    <marker
       inkscape:isstock="true"
       style="overflow:visible"
       id="marker6519"
       refX="0"
       refY="0"
       orient="auto"
       inkscape:stockid="Arrow2Mend"
       inkscape:collect="always">
      <path
         transform="scale(-0.6,-0.6)"
         d="M 8.7185878,4.0337352 -2.2072895,0.01601326 8.7185884,-4.0017078 c -1.7454984,2.3720609 -1.7354408,5.6174519 -6e-7,8.035443 z"
         style="fill:#000000;fill-opacity:1;fill-rule:evenodd;stroke:#000000;stroke-width:0.625;stroke-linejoin:round;stroke-opacity:1"
         id="path6521"
         inkscape:connector-curvature="0" />
    </marker>
    <marker
       inkscape:isstock="true"
       style="overflow:visible"
       id="marker6383"
       refX="0"
       refY="0"
       orient="auto"
       inkscape:stockid="Arrow2Mstart"
       inkscape:collect="always">
      <path
         transform="scale(0.6,0.6)"
         d="M 8.7185878,4.0337352 -2.2072895,0.01601326 8.7185884,-4.0017078 c -1.7454984,2.3720609 -1.7354408,5.6174519 -6e-7,8.035443 z"
         style="fill:#000000;fill-opacity:1;fill-rule:evenodd;stroke:#000000;stroke-width:0.625;stroke-linejoin:round;stroke-opacity:1"
         id="path6385"
         inkscape:connector-curvature="0" />
    </marker>
    <marker
       inkscape:isstock="true"
       style="overflow:visible"
       id="marker5359"
       refX="0"
       refY="0"
       orient="auto"
       inkscape:stockid="Arrow2Mend"
       inkscape:collect="always">
      <path
         transform="scale(-0.6,-0.6)"
         d="M 8.7185878,4.0337352 -2.2072895,0.01601326 8.7185884,-4.0017078 c -1.7454984,2.3720609 -1.7354408,5.6174519 -6e-7,8.035443 z"
         style="fill:#000000;fill-opacity:1;fill-rule:evenodd;stroke:#000000;stroke-width:0.625;stroke-linejoin:round;stroke-opacity:1"
         id="path5361"
         inkscape:connector-curvature="0" />
    </marker>
    <marker
       inkscape:isstock="true"
       style="overflow:visible"
       id="marker5235"
       refX="0"
       refY="0"
       orient="auto"
       inkscape:stockid="Arrow2Mstart"
       inkscape:collect="always">
      <path
         transform="scale(0.6,0.6)"
         d="M 8.7185878,4.0337352 -2.2072895,0.01601326 8.7185884,-4.0017078 c -1.7454984,2.3720609 -1.7354408,5.6174519 -6e-7,8.035443 z"
         style="fill:#000000;fill-opacity:1;fill-rule:evenodd;stroke:#000000;stroke-width:0.625;stroke-linejoin:round;stroke-opacity:1"
         id="path5237"
         inkscape:connector-curvature="0" />
    </marker>
    <marker
       inkscape:isstock="true"
       style="overflow:visible"
       id="marker5091"
       refX="0"
       refY="0"
       orient="auto"
       inkscape:stockid="Arrow2Mstart">
      <path
         transform="scale(0.6,0.6)"
         d="M 8.7185878,4.0337352 -2.2072895,0.01601326 8.7185884,-4.0017078 c -1.7454984,2.3720609 -1.7354408,5.6174519 -6e-7,8.035443 z"
         style="fill:#000000;fill-opacity:1;fill-rule:evenodd;stroke:#000000;stroke-width:0.625;stroke-linejoin:round;stroke-opacity:1"
         id="path5093"
         inkscape:connector-curvature="0" />
    </marker>
    <marker
       inkscape:stockid="Arrow2Mstart"
       orient="auto"
       refY="0"
       refX="0"
       id="Arrow2Mstart-2"
       style="overflow:visible"
       inkscape:isstock="true">
      <path
         inkscape:connector-curvature="0"
         id="path4305-5"
         style="fill:#000000;fill-opacity:1;fill-rule:evenodd;stroke:#000000;stroke-width:0.625;stroke-linejoin:round;stroke-opacity:1"
         d="M 8.7185878,4.0337352 -2.2072895,0.01601326 8.7185884,-4.0017078 c -1.7454984,2.3720609 -1.7354408,5.6174519 -6e-7,8.035443 z"
         transform="scale(0.6,0.6)" />
    </marker>
    <marker
       inkscape:stockid="Arrow2Mend"
       orient="auto"
       refY="0"
       refX="0"
       id="marker4615-1"
       style="overflow:visible"
       inkscape:isstock="true"
       inkscape:collect="always">
      <path
         inkscape:connector-curvature="0"
         id="path4617-09"
         style="fill:#000000;fill-opacity:1;fill-rule:evenodd;stroke:#000000;stroke-width:0.625;stroke-linejoin:round;stroke-opacity:1"
         d="M 8.7185878,4.0337352 -2.2072895,0.01601326 8.7185884,-4.0017078 c -1.7454984,2.3720609 -1.7354408,5.6174519 -6e-7,8.035443 z"
         transform="scale(-0.6,-0.6)" />
    </marker>
    <marker
       inkscape:stockid="Arrow2Mstart"
       orient="auto"
       refY="0"
       refX="0"
       id="Arrow2Mstart-2-5"
       style="overflow:visible"
       inkscape:isstock="true"
       inkscape:collect="always">
      <path
         inkscape:connector-curvature="0"
         id="path4305-5-5"
         style="fill:#000000;fill-opacity:1;fill-rule:evenodd;stroke:#000000;stroke-width:0.625;stroke-linejoin:round;stroke-opacity:1"
         d="M 8.7185878,4.0337352 -2.2072895,0.01601326 8.7185884,-4.0017078 c -1.7454984,2.3720609 -1.7354408,5.6174519 -6e-7,8.035443 z"
         transform="scale(0.6,0.6)" />
    </marker>
    <marker
       inkscape:stockid="Arrow2Mend"
       orient="auto"
       refY="0"
       refX="0"
       id="marker4615-1-8"
       style="overflow:visible"
       inkscape:isstock="true"
       inkscape:collect="always">
      <path
         inkscape:connector-curvature="0"
         id="path4617-09-1"
         style="fill:#000000;fill-opacity:1;fill-rule:evenodd;stroke:#000000;stroke-width:0.625;stroke-linejoin:round;stroke-opacity:1"
         d="M 8.7185878,4.0337352 -2.2072895,0.01601326 8.7185884,-4.0017078 c -1.7454984,2.3720609 -1.7354408,5.6174519 -6e-7,8.035443 z"
         transform="scale(-0.6,-0.6)" />
    </marker>
    <marker
       inkscape:stockid="Arrow2Mstart"
       orient="auto"
       refY="0"
       refX="0"
       id="Arrow2Mstart-6"
       style="overflow:visible"
       inkscape:isstock="true"
       inkscape:collect="always">
      <path
         inkscape:connector-curvature="0"
         id="path4305-4"
         style="fill:#000000;fill-opacity:1;fill-rule:evenodd;stroke:#000000;stroke-width:0.625;stroke-linejoin:round;stroke-opacity:1"
         d="M 8.7185878,4.0337352 -2.2072895,0.01601326 8.7185884,-4.0017078 c -1.7454984,2.3720609 -1.7354408,5.6174519 -6e-7,8.035443 z"
         transform="scale(0.6,0.6)" />
    </marker>
    <marker
       inkscape:stockid="Arrow2Mend"
       orient="auto"
       refY="0"
       refX="0"
       id="marker4615-3"
       style="overflow:visible"
       inkscape:isstock="true">
      <path
         inkscape:connector-curvature="0"
         id="path4617-0"
         style="fill:#000000;fill-opacity:1;fill-rule:evenodd;stroke:#000000;stroke-width:0.625;stroke-linejoin:round;stroke-opacity:1"
         d="M 8.7185878,4.0337352 -2.2072895,0.01601326 8.7185884,-4.0017078 c -1.7454984,2.3720609 -1.7354408,5.6174519 -6e-7,8.035443 z"
         transform="scale(-0.6,-0.6)" />
    </marker>
    <marker
       inkscape:stockid="Arrow2Mstart"
       orient="auto"
       refY="0"
       refX="0"
       id="Arrow2Mstart"
       style="overflow:visible"
       inkscape:isstock="true"
       inkscape:collect="always">
      <path
         inkscape:connector-curvature="0"
         id="path4305"
         style="fill:#000000;fill-opacity:1;fill-rule:evenodd;stroke:#000000;stroke-width:0.625;stroke-linejoin:round;stroke-opacity:1"
         d="M 8.7185878,4.0337352 -2.2072895,0.01601326 8.7185884,-4.0017078 c -1.7454984,2.3720609 -1.7354408,5.6174519 -6e-7,8.035443 z"
         transform="scale(0.6,0.6)" />
    </marker>
    <marker
       inkscape:stockid="Arrow2Mend"
       orient="auto"
       refY="0"
       refX="0"
       id="marker4615"
       style="overflow:visible"
       inkscape:isstock="true"
       inkscape:collect="always">
      <path
         inkscape:connector-curvature="0"
         id="path4617"
         style="fill:#000000;fill-opacity:1;fill-rule:evenodd;stroke:#000000;stroke-width:0.625;stroke-linejoin:round;stroke-opacity:1"
         d="M 8.7185878,4.0337352 -2.2072895,0.01601326 8.7185884,-4.0017078 c -1.7454984,2.3720609 -1.7354408,5.6174519 -6e-7,8.035443 z"
         transform="scale(-0.6,-0.6)" />
    </marker>
    <marker
       inkscape:isstock="true"
       style="overflow:visible"
       id="marker8835"
       refX="0"
       refY="0"
       orient="auto"
       inkscape:stockid="Arrow2Mstart">
      <path
         inkscape:connector-curvature="0"
         transform="scale(0.6,0.6)"
         d="M 8.7185878,4.0337352 -2.2072895,0.01601326 8.7185884,-4.0017078 c -1.7454984,2.3720609 -1.7354408,5.6174519 -6e-7,8.035443 z"
         style="fill:#000000;fill-opacity:1;fill-rule:evenodd;stroke:#000000;stroke-width:0.625;stroke-linejoin:round;stroke-opacity:1"
         id="path8837" />
    </marker>
    <marker
       inkscape:isstock="true"
       style="overflow:visible"
       id="marker8935"
       refX="0"
       refY="0"
       orient="auto"
       inkscape:stockid="Arrow2Mend">
      <path
         inkscape:connector-curvature="0"
         transform="scale(-0.6,-0.6)"
         d="M 8.7185878,4.0337352 -2.2072895,0.01601326 8.7185884,-4.0017078 c -1.7454984,2.3720609 -1.7354408,5.6174519 -6e-7,8.035443 z"
         style="fill:#000000;fill-opacity:1;fill-rule:evenodd;stroke:#000000;stroke-width:0.625;stroke-linejoin:round;stroke-opacity:1"
         id="path8937" />
    </marker>
    <marker
       inkscape:isstock="true"
       style="overflow:visible"
       id="marker8835-3"
       refX="0"
       refY="0"
       orient="auto"
       inkscape:stockid="Arrow2Mstart">
      <path
         inkscape:connector-curvature="0"
         transform="scale(0.6,0.6)"
         d="M 8.7185878,4.0337352 -2.2072895,0.01601326 8.7185884,-4.0017078 c -1.7454984,2.3720609 -1.7354408,5.6174519 -6e-7,8.035443 z"
         style="fill:#000000;fill-opacity:1;fill-rule:evenodd;stroke:#000000;stroke-width:0.625;stroke-linejoin:round;stroke-opacity:1"
         id="path8837-7" />
    </marker>
    <marker
       inkscape:isstock="true"
       style="overflow:visible"
       id="marker8935-2"
       refX="0"
       refY="0"
       orient="auto"
       inkscape:stockid="Arrow2Mend">
      <path
         inkscape:connector-curvature="0"
         transform="scale(-0.6,-0.6)"
         d="M 8.7185878,4.0337352 -2.2072895,0.01601326 8.7185884,-4.0017078 c -1.7454984,2.3720609 -1.7354408,5.6174519 -6e-7,8.035443 z"
         style="fill:#000000;fill-opacity:1;fill-rule:evenodd;stroke:#000000;stroke-width:0.625;stroke-linejoin:round;stroke-opacity:1"
         id="path8937-3" />
    </marker>
    <marker
       inkscape:isstock="true"
       style="overflow:visible"
       id="marker8835-9"
       refX="0"
       refY="0"
       orient="auto"
       inkscape:stockid="Arrow2Mstart">
      <path
         inkscape:connector-curvature="0"
         transform="scale(0.6,0.6)"
         d="M 8.7185878,4.0337352 -2.2072895,0.01601326 8.7185884,-4.0017078 c -1.7454984,2.3720609 -1.7354408,5.6174519 -6e-7,8.035443 z"
         style="fill:#000000;fill-opacity:1;fill-rule:evenodd;stroke:#000000;stroke-width:0.625;stroke-linejoin:round;stroke-opacity:1"
         id="path8837-8" />
    </marker>
    <marker
       inkscape:isstock="true"
       style="overflow:visible"
       id="marker8935-9"
       refX="0"
       refY="0"
       orient="auto"
       inkscape:stockid="Arrow2Mend">
      <path
         inkscape:connector-curvature="0"
         transform="scale(-0.6,-0.6)"
         d="M 8.7185878,4.0337352 -2.2072895,0.01601326 8.7185884,-4.0017078 c -1.7454984,2.3720609 -1.7354408,5.6174519 -6e-7,8.035443 z"
         style="fill:#000000;fill-opacity:1;fill-rule:evenodd;stroke:#000000;stroke-width:0.625;stroke-linejoin:round;stroke-opacity:1"
         id="path8937-1" />
    </marker>
    <marker
       inkscape:isstock="true"
       style="overflow:visible"
       id="marker9721-3"
       refX="0"
       refY="0"
       orient="auto"
       inkscape:stockid="Arrow2Mstart">
      <path
         transform="scale(0.6,0.6)"
         d="M 8.7185878,4.0337352 -2.2072895,0.01601326 8.7185884,-4.0017078 c -1.7454984,2.3720609 -1.7354408,5.6174519 -6e-7,8.035443 z"
         style="fill:#000000;fill-opacity:1;fill-rule:evenodd;stroke:#000000;stroke-width:0.625;stroke-linejoin:round;stroke-opacity:1"
         id="path9723-8"
         inkscape:connector-curvature="0" />
    </marker>
    <marker
       inkscape:isstock="true"
       style="overflow:visible"
       id="marker9721-3-7"
       refX="0"
       refY="0"
       orient="auto"
       inkscape:stockid="Arrow2Mstart">
      <path
         transform="scale(0.6,0.6)"
         d="M 8.7185878,4.0337352 -2.2072895,0.01601326 8.7185884,-4.0017078 c -1.7454984,2.3720609 -1.7354408,5.6174519 -6e-7,8.035443 z"
         style="fill:#000000;fill-opacity:1;fill-rule:evenodd;stroke:#000000;stroke-width:0.625;stroke-linejoin:round;stroke-opacity:1"
         id="path9723-8-8"
         inkscape:connector-curvature="0" />
    </marker>
    <marker
       inkscape:isstock="true"
       style="overflow:visible"
       id="marker9721-1"
       refX="0"
       refY="0"
       orient="auto"
       inkscape:stockid="Arrow2Mstart">
      <path
         transform="scale(0.6,0.6)"
         d="M 8.7185878,4.0337352 -2.2072895,0.01601326 8.7185884,-4.0017078 c -1.7454984,2.3720609 -1.7354408,5.6174519 -6e-7,8.035443 z"
         style="fill:#000000;fill-opacity:1;fill-rule:evenodd;stroke:#000000;stroke-width:0.625;stroke-linejoin:round;stroke-opacity:1"
         id="path9723-5"
         inkscape:connector-curvature="0" />
    </marker>
    <marker
       inkscape:isstock="true"
       style="overflow:visible"
       id="marker9721-1-4"
       refX="0"
       refY="0"
       orient="auto"
       inkscape:stockid="Arrow2Mstart">
      <path
         transform="scale(0.6,0.6)"
         d="M 8.7185878,4.0337352 -2.2072895,0.01601326 8.7185884,-4.0017078 c -1.7454984,2.3720609 -1.7354408,5.6174519 -6e-7,8.035443 z"
         style="fill:#000000;fill-opacity:1;fill-rule:evenodd;stroke:#000000;stroke-width:0.625;stroke-linejoin:round;stroke-opacity:1"
         id="path9723-5-2"
         inkscape:connector-curvature="0" />
    </marker>
    <marker
       inkscape:isstock="true"
       style="overflow:visible"
       id="marker9721-3-7-7"
       refX="0"
       refY="0"
       orient="auto"
       inkscape:stockid="Arrow2Mstart">
      <path
         transform="scale(0.6,0.6)"
         d="M 8.7185878,4.0337352 -2.2072895,0.01601326 8.7185884,-4.0017078 c -1.7454984,2.3720609 -1.7354408,5.6174519 -6e-7,8.035443 z"
         style="fill:#000000;fill-opacity:1;fill-rule:evenodd;stroke:#000000;stroke-width:0.625;stroke-linejoin:round;stroke-opacity:1"
         id="path9723-8-8-5"
         inkscape:connector-curvature="0" />
    </marker>
    <marker
       inkscape:isstock="true"
       style="overflow:visible"
       id="marker9721-1-4-5"
       refX="0"
       refY="0"
       orient="auto"
       inkscape:stockid="Arrow2Mstart">
      <path
         transform="scale(0.6,0.6)"
         d="M 8.7185878,4.0337352 -2.2072895,0.01601326 8.7185884,-4.0017078 c -1.7454984,2.3720609 -1.7354408,5.6174519 -6e-7,8.035443 z"
         style="fill:#000000;fill-opacity:1;fill-rule:evenodd;stroke:#000000;stroke-width:0.625;stroke-linejoin:round;stroke-opacity:1"
         id="path9723-5-2-7"
         inkscape:connector-curvature="0" />
    </marker>
    <marker
       inkscape:isstock="true"
       style="overflow:visible"
       id="marker9721-3-7-7-1"
       refX="0"
       refY="0"
       orient="auto"
       inkscape:stockid="Arrow2Mstart">
      <path
         transform="scale(0.6,0.6)"
         d="M 8.7185878,4.0337352 -2.2072895,0.01601326 8.7185884,-4.0017078 c -1.7454984,2.3720609 -1.7354408,5.6174519 -6e-7,8.035443 z"
         style="fill:#000000;fill-opacity:1;fill-rule:evenodd;stroke:#000000;stroke-width:0.625;stroke-linejoin:round;stroke-opacity:1"
         id="path9723-8-8-5-1"
         inkscape:connector-curvature="0" />
    </marker>
    <marker
       inkscape:isstock="true"
       style="overflow:visible"
       id="marker9017-3"
       refX="0"
       refY="0"
       orient="auto"
       inkscape:stockid="Arrow2Mstart">
      <path
         transform="scale(0.6,0.6)"
         d="M 8.7185878,4.0337352 -2.2072895,0.01601326 8.7185884,-4.0017078 c -1.7454984,2.3720609 -1.7354408,5.6174519 -6e-7,8.035443 z"
         style="fill:#000000;fill-opacity:1;fill-rule:evenodd;stroke:#000000;stroke-width:0.625;stroke-linejoin:round;stroke-opacity:1"
         id="path9019-8"
         inkscape:connector-curvature="0" />
    </marker>
    <marker
       inkscape:isstock="true"
       style="overflow:visible"
       id="marker16541-0"
       refX="0"
       refY="0"
       orient="auto"
       inkscape:stockid="Arrow2Mend">
      <path
         transform="scale(-0.6,-0.6)"
         d="M 8.7185878,4.0337352 -2.2072895,0.01601326 8.7185884,-4.0017078 c -1.7454984,2.3720609 -1.7354408,5.6174519 -6e-7,8.035443 z"
         style="fill:#000000;fill-opacity:1;fill-rule:evenodd;stroke:#000000;stroke-width:0.625;stroke-linejoin:round;stroke-opacity:1"
         id="path16543-9"
         inkscape:connector-curvature="0" />
    </marker>
    <marker
       inkscape:isstock="true"
       style="overflow:visible"
       id="marker9017-8"
       refX="0"
       refY="0"
       orient="auto"
       inkscape:stockid="Arrow2Mstart">
      <path
         transform="scale(0.6,0.6)"
         d="M 8.7185878,4.0337352 -2.2072895,0.01601326 8.7185884,-4.0017078 c -1.7454984,2.3720609 -1.7354408,5.6174519 -6e-7,8.035443 z"
         style="fill:#000000;fill-opacity:1;fill-rule:evenodd;stroke:#000000;stroke-width:0.625;stroke-linejoin:round;stroke-opacity:1"
         id="path9019-2"
         inkscape:connector-curvature="0" />
    </marker>
    <marker
       inkscape:isstock="true"
       style="overflow:visible"
       id="marker16541-07"
       refX="0"
       refY="0"
       orient="auto"
       inkscape:stockid="Arrow2Mend">
      <path
         transform="scale(-0.6,-0.6)"
         d="M 8.7185878,4.0337352 -2.2072895,0.01601326 8.7185884,-4.0017078 c -1.7454984,2.3720609 -1.7354408,5.6174519 -6e-7,8.035443 z"
         style="fill:#000000;fill-opacity:1;fill-rule:evenodd;stroke:#000000;stroke-width:0.625;stroke-linejoin:round;stroke-opacity:1"
         id="path16543-2"
         inkscape:connector-curvature="0" />
    </marker>
    <marker
       inkscape:isstock="true"
       style="overflow:visible"
       id="marker9721-3-7-7-6"
       refX="0"
       refY="0"
       orient="auto"
       inkscape:stockid="Arrow2Mstart">
      <path
         transform="scale(0.6,0.6)"
         d="M 8.7185878,4.0337352 -2.2072895,0.01601326 8.7185884,-4.0017078 c -1.7454984,2.3720609 -1.7354408,5.6174519 -6e-7,8.035443 z"
         style="fill:#000000;fill-opacity:1;fill-rule:evenodd;stroke:#000000;stroke-width:0.625;stroke-linejoin:round;stroke-opacity:1"
         id="path9723-8-8-5-6"
         inkscape:connector-curvature="0" />
    </marker>
    <marker
       inkscape:isstock="true"
       style="overflow:visible"
       id="marker9721-1-4-0"
       refX="0"
       refY="0"
       orient="auto"
       inkscape:stockid="Arrow2Mstart">
      <path
         transform="scale(0.6,0.6)"
         d="M 8.7185878,4.0337352 -2.2072895,0.01601326 8.7185884,-4.0017078 c -1.7454984,2.3720609 -1.7354408,5.6174519 -6e-7,8.035443 z"
         style="fill:#000000;fill-opacity:1;fill-rule:evenodd;stroke:#000000;stroke-width:0.625;stroke-linejoin:round;stroke-opacity:1"
         id="path9723-5-2-3"
         inkscape:connector-curvature="0" />
    </marker>
    <marker
       inkscape:isstock="true"
       style="overflow:visible"
       id="marker9017-6"
       refX="0"
       refY="0"
       orient="auto"
       inkscape:stockid="Arrow2Mstart">
      <path
         transform="scale(0.6,0.6)"
         d="M 8.7185878,4.0337352 -2.2072895,0.01601326 8.7185884,-4.0017078 c -1.7454984,2.3720609 -1.7354408,5.6174519 -6e-7,8.035443 z"
         style="fill:#000000;fill-opacity:1;fill-rule:evenodd;stroke:#000000;stroke-width:0.625;stroke-linejoin:round;stroke-opacity:1"
         id="path9019-81"
         inkscape:connector-curvature="0" />
    </marker>
    <marker
       inkscape:isstock="true"
       style="overflow:visible"
       id="marker16541-9"
       refX="0"
       refY="0"
       orient="auto"
       inkscape:stockid="Arrow2Mend">
      <path
         transform="scale(-0.6,-0.6)"
         d="M 8.7185878,4.0337352 -2.2072895,0.01601326 8.7185884,-4.0017078 c -1.7454984,2.3720609 -1.7354408,5.6174519 -6e-7,8.035443 z"
         style="fill:#000000;fill-opacity:1;fill-rule:evenodd;stroke:#000000;stroke-width:0.625;stroke-linejoin:round;stroke-opacity:1"
         id="path16543-1"
         inkscape:connector-curvature="0" />
    </marker>
    <marker
       inkscape:isstock="true"
       style="overflow:visible"
       id="marker9017-6-2"
       refX="0"
       refY="0"
       orient="auto"
       inkscape:stockid="Arrow2Mstart">
      <path
         transform="scale(0.6,0.6)"
         d="M 8.7185878,4.0337352 -2.2072895,0.01601326 8.7185884,-4.0017078 c -1.7454984,2.3720609 -1.7354408,5.6174519 -6e-7,8.035443 z"
         style="fill:#000000;fill-opacity:1;fill-rule:evenodd;stroke:#000000;stroke-width:0.625;stroke-linejoin:round;stroke-opacity:1"
         id="path9019-81-7"
         inkscape:connector-curvature="0" />
    </marker>
    <marker
       inkscape:isstock="true"
       style="overflow:visible"
       id="marker16541-9-1"
       refX="0"
       refY="0"
       orient="auto"
       inkscape:stockid="Arrow2Mend">
      <path
         transform="scale(-0.6,-0.6)"
         d="M 8.7185878,4.0337352 -2.2072895,0.01601326 8.7185884,-4.0017078 c -1.7454984,2.3720609 -1.7354408,5.6174519 -6e-7,8.035443 z"
         style="fill:#000000;fill-opacity:1;fill-rule:evenodd;stroke:#000000;stroke-width:0.625;stroke-linejoin:round;stroke-opacity:1"
         id="path16543-1-8"
         inkscape:connector-curvature="0" />
    </marker>
  </defs>
  <sodipodi:namedview
     id="base"
     pagecolor="#ffffff"
     bordercolor="#666666"
     borderopacity="1.0"
     inkscape:pageopacity="0.0"
     inkscape:pageshadow="2"
     inkscape:zoom="1.4142136"
     inkscape:cx="329.42649"
     inkscape:cy="792.77484"
     inkscape:document-units="px"
     inkscape:current-layer="layer1"
     showgrid="false"
     inkscape:snap-text-baseline="true"
     inkscape:window-width="1440"
     inkscape:window-height="847"
     inkscape:window-x="-8"
     inkscape:window-y="-8"
     inkscape:window-maximized="1" />
  <metadata
     id="metadata7">
    <rdf:RDF>
      <cc:Work
         rdf:about="">
        <dc:format>image/svg+xml</dc:format>
        <dc:type
           rdf:resource="http://purl.org/dc/dcmitype/StillImage" />
        <dc:title></dc:title>
      </cc:Work>
    </rdf:RDF>
  </metadata>
  <g
     inkscape:label="Layer 1"
     inkscape:groupmode="layer"
     id="layer1">
    <path
       style="fill:#000000"
       d="m 245.76533,478.4951 0,-95.52789 23.14522,0 23.14523,0 0.28817,-1.22155 0.28818,-1.22155 -23.4334,0 -23.4334,0 0,-6.84068 0,-6.84069 56.09606,0 56.09607,0 -0.16777,6.62781 -0.16776,6.62781 -25.54833,-0.0463 c -23.26641,-0.0422 -25.515,0.0241 -25.17527,0.74146 0.20517,0.43326 0.37305,1.09958 0.37305,1.48072 0,0.58636 3.61776,0.69296 23.51702,0.69296 l 23.51702,0 0,68.89547 c 0,41.51343 0.22006,68.89546 0.55368,68.89546 0.30453,0 0.98291,0.13346 1.5075,0.29659 0.85961,0.26729 0.95383,-1.56667 0.95383,-18.56757 l 0,-18.86416 5.427,0 5.42701,0 0,43.97583 0,43.97583 -5.42701,0 -5.427,0 0,-19.77338 0,-19.77338 -1.35675,0.40651 -1.35676,0.4065 -0.3015,20.46627 -0.3015,20.46627 -54.1193,0.12477 -54.11929,0.12476 0,-95.52788 z m 107.93709,74.30557 0,-20.72847 -2.06111,-0.5512 c -2.57796,-0.68942 -3.96889,-2.36233 -3.96889,-4.7735 0,-2.30534 1.34371,-3.92721 3.99831,-4.82598 l 2.03169,-0.68787 0,-68.88891 0,-68.88891 -23.81852,0 c -21.01263,0 -23.81852,0.0884 -23.81852,0.75013 0,2.38099 -4.31368,4.51919 -7.84813,3.89014 -1.75529,-0.31239 -4.81488,-2.90222 -4.81488,-4.07561 0,-0.41748 -6.12988,-0.56466 -23.51702,-0.56466 l -23.51702,0 0,95.03666 0,95.03665 53.66704,0 53.66705,0 0,-20.72847 z m 13.86902,-3.45824 0,-21.7436 -4.82401,0 -4.824,0 0,21.7436 0,21.7436 4.824,0 4.82401,0 0,-21.7436 z m -0.603,-22.94897 c 0.49747,-0.0931 -1.74117,-0.16329 -4.97476,-0.15604 -3.23359,0.007 -5.87925,0.17022 -5.87925,0.36217 0,0.32862 8.89909,0.15961 10.85401,-0.20613 z m 0.603,-21.51548 0,-20.76636 -4.82401,0 -4.824,0 0,20.76636 0,20.76637 4.824,0 4.82401,0 0,-20.76637 z m -5.42701,16.91723 c 0,-0.23583 0.40702,-0.70251 0.9045,-1.03707 0.49748,-0.33455 0.90035,-0.96614 0.89527,-1.40353 -0.008,-0.68009 -0.0905,-0.69116 -0.57022,-0.0765 -0.30853,0.39533 -0.73858,0.57487 -0.95564,0.39897 -0.58093,-0.47072 0.26201,-1.36206 1.2881,-1.36206 1.37739,0 1.71135,1.40189 0.57611,2.41837 -0.96437,0.8635 -0.95992,0.92936 0.0776,1.14667 0.73238,0.1534 0.5458,0.24953 -0.55749,0.28724 -0.91204,0.0312 -1.65825,-0.13627 -1.65825,-0.37211 z M 300.63838,374.41636 c 0,-4.39758 -0.22873,-7.085 -0.60301,-7.085 -0.37427,0 -0.603,2.68742 -0.603,7.085 0,4.39758 0.22873,7.08499 0.603,7.08499 0.37428,0 0.60301,-2.68741 0.60301,-7.08499 z m -1.80901,-0.97724 0,-6.10776 -26.23052,0 -26.23052,0 0,6.10776 0,6.10775 26.23052,0 26.23052,0 0,-6.10775 z m 58.49106,0 0,-6.10776 -28.03953,0 -28.03952,0 0,6.10776 0,6.10775 28.03952,0 28.03953,0 0,-6.10775 z m -48.9938,4.31829 c 0.41456,-0.13555 0.75375,-0.77783 0.75375,-1.42729 0,-0.64946 -0.33919,-1.1842 -0.75375,-1.18831 -0.5025,-0.005 -0.45225,-0.16537 0.15075,-0.48114 1.48918,-0.77983 1.809,-0.57106 1.809,1.18083 0,0.9182 0.33919,1.78036 0.75376,1.91591 0.41456,0.13555 -0.19598,0.24645 -1.35676,0.24645 -1.16077,0 -1.77131,-0.1109 -1.35675,-0.24645 z"
       id="path3371"
       inkscape:connector-curvature="0" />
    <path
       style="fill:#000000"
       d="m 411.3798,572.81211 c -0.74859,-0.30363 -1.51419,-0.69629 -1.70133,-0.87256 -0.18715,-0.17627 -0.87619,-0.46193 -1.5312,-0.63479 -1.12209,-0.29613 -1.19094,-2.83386 -1.19094,-43.8959 0,-43.25707 0.0101,-43.58159 1.36107,-43.58159 1.35185,0 1.36107,-0.32452 1.36107,-47.92252 l 0,-47.92251 -2.38187,-1.29949 c -2.00097,-1.09167 -2.38187,-1.60161 -2.38187,-3.1888 0,-1.35489 -0.28876,-1.88933 -1.0208,-1.88933 -0.85492,0 -1.0208,-1.02625 -1.0208,-6.31557 l 0,-6.31557 2.00781,-0.74266 c 1.47383,-0.54515 4.18861,-0.74266 10.208,-0.74266 l 8.20019,0 0,6.47367 0,6.47367 -2.21611,0.57319 c -1.21887,0.31527 -3.28598,0.44899 -4.5936,0.29717 l -2.37749,-0.27603 0.18403,51.27703 c 0.11814,32.91656 0.42273,51.33512 0.85067,51.43928 0.42144,0.10258 0.66663,7.93562 0.66663,21.29638 l 0,21.13414 2.75686,0 2.75687,0 -0.13273,-3.77251 c -0.073,-2.07488 -0.0886,-11.60349 -0.0347,-21.17469 0.096,-17.0543 0.12521,-17.40219 1.45907,-17.40219 1.3409,0 1.36106,0.32452 1.36106,21.90485 l 0,21.90486 -4.0832,0 -4.0832,0 0,2.70598 c 0,1.68004 -0.25801,2.59193 -0.68053,2.40515 -0.44919,-0.19857 -0.68053,6.07963 -0.68053,18.4687 l 0,18.76955 4.82044,0 c 3.55258,0 4.74652,0.16004 4.53936,0.60847 -0.17796,0.38523 -1.94643,0.66127 -4.82044,0.7524 -3.98166,0.12625 -4.53936,0.26081 -4.53936,1.09524 0,1.06614 -1.03673,1.19128 -3.06241,0.36964 z m -2.55254,-34.31116 c -0.10805,-6.10905 -0.19657,-1.25018 -0.19672,10.79749 -1.5e-4,12.04767 0.0882,17.04598 0.19646,11.10736 0.10819,-5.93863 0.10832,-15.79581 2.6e-4,-21.90485 z m 11.22934,32.10009 c -1.96504,-0.0983 -5.18056,-0.0983 -7.1456,0 -1.96504,0.0983 -0.35728,0.17878 3.5728,0.17878 3.93008,0 5.53784,-0.0805 3.5728,-0.17878 z m 3.03943,-47.71011 c -0.15592,-0.73625 -0.2835,-0.13387 -0.2835,1.33863 0,1.47249 0.12758,2.07487 0.2835,1.33862 0.15593,-0.73624 0.15593,-1.94101 0,-2.67725 z m -14.26881,-28.2 c -0.10864,-5.84115 -0.19765,-1.20119 -0.19781,10.31103 -1.6e-4,11.51222 0.0887,16.29134 0.19751,10.62028 0.1088,-5.67107 0.10893,-15.09015 3e-4,-20.93131 z m 14.29092,-1.94863 c -0.11152,-4.7694 -0.20295,-1.00494 -0.20318,8.36547 -2.3e-4,9.37041 0.091,13.27265 0.20276,8.67164 0.11174,-4.601 0.11193,-12.2677 4.1e-4,-17.03711 z M 406.06015,381.51335 c -0.21725,-0.38832 -0.37851,-0.27297 -0.41116,0.29409 -0.0295,0.51315 0.1313,0.80065 0.35743,0.6389 0.22614,-0.16175 0.25032,-0.5816 0.0537,-0.93299 z m 0.0404,-9.98906 c -0.13128,-1.81828 -0.23968,-0.45834 -0.24087,3.0221 -0.001,3.48044 0.10623,4.96813 0.23872,3.30597 0.13248,-1.66215 0.13345,-4.50978 0.002,-6.32807 z m 2.04161,-0.48677 c -0.1313,-1.81829 -0.23969,-0.45834 -0.24088,3.02209 -10e-4,3.48044 0.10623,4.96813 0.23871,3.30598 0.13249,-1.66216 0.13346,-4.50979 0.002,-6.32807 z m 14.46644,3.02209 0,-6.08468 -6.80534,0 -6.80533,0 0,6.08468 0,6.08469 6.80533,0 6.80534,0 0,-6.08469 z"
       id="path3369"
       inkscape:connector-curvature="0" />
    <path
       style="fill:#808000"
       d="m 246.61406,478.38992 0,-94.93636 22.99504,0.12348 22.99504,0.12349 1.34388,1.53626 c 0.73914,0.84495 1.93707,1.88389 2.66206,2.30877 1.17958,0.69128 1.5432,0.75806 3.45816,0.63517 2.82288,-0.18116 5.08301,-1.33915 5.76318,-2.95279 0.25479,-0.60448 0.6622,-1.19041 0.90534,-1.30206 0.24314,-0.11166 10.88619,-0.26124 23.65121,-0.33242 l 23.20913,-0.12942 0,68.80899 0,68.80898 -1.73174,0.63143 c -3.03444,1.10641 -4.23065,2.5335 -4.23065,5.04722 0,2.56635 1.3377,4.1158 4.25312,4.92636 l 1.70927,0.47522 0,20.58202 0,20.58202 -53.49152,0 -53.49152,0 0,-94.93636 z"
       id="path3377"
       inkscape:connector-curvature="0" />
    <path
       style="fill:#808000"
       d="m 246.61406,373.50671 0,-5.89438 26.08264,0 26.08264,0 0,5.89438 0,5.89439 -26.08264,0 -26.08264,0 0,-5.89439 z"
       id="path3379"
       inkscape:connector-curvature="0" />
    <path
       style="fill:#808000"
       d="m 301.43182,373.50671 0,-5.89438 27.85096,0 27.85095,0 0,5.89438 0,5.89439 -27.85095,0 -27.85096,0 0,-5.89439 z m 9.46253,4.12607 c -0.0637,-0.24314 -0.26273,-1.06108 -0.44227,-1.81763 -0.41615,-1.75358 -0.55851,-1.87733 -1.64283,-1.42819 -0.98179,0.40666 -1.13044,0.73413 -0.45153,0.99465 0.50029,0.19198 0.61029,1.8177 0.14255,2.10678 -0.61853,0.38227 0.10295,0.76187 1.28441,0.67577 0.91832,-0.0669 1.19647,-0.20011 1.10967,-0.53138 z"
       id="path3381"
       inkscape:connector-curvature="0" />
    <path
       style="fill:#808000"
       d="m 299.88381,380.57997 c -0.28191,-0.97858 -0.24154,-11.77589 0.0468,-12.51313 0.52122,-1.3327 0.8099,7.93793 0.36212,11.62898 -0.16002,1.31902 -0.23618,1.48371 -0.40891,0.88415 z"
       id="path3383"
       inkscape:connector-curvature="0" />
    <path
       style="fill:#808000"
       d="m 358.01789,549.30667 0,-21.66186 4.7155,0 4.71551,0 0,21.66186 0,21.66185 -4.71551,0 -4.7155,0 0,-21.66185 z"
       id="path3385"
       inkscape:connector-curvature="0" />
    <path
       style="fill:#808000"
       d="m 358.01789,504.95144 0,-20.63034 4.7155,0 4.71551,0 0,20.63034 0,20.63034 -4.71551,0 -4.7155,0 0,-20.63034 z m 6.77854,17.09371 c 0,-0.16209 -0.19894,-0.29472 -0.44208,-0.29472 -0.58508,0 -0.55802,-0.20171 0.14736,-1.09846 1.02409,-1.30191 0.6014,-2.43817 -0.90701,-2.43817 -0.92735,0 -1.59345,0.67662 -1.33335,1.35441 0.16889,0.44014 0.24112,0.4399 0.91713,-0.003 1.02386,-0.67085 0.91618,-0.12603 -0.18856,0.95406 -1.20324,1.17639 -0.98443,1.82064 0.61838,1.82064 0.65347,0 1.18813,-0.13263 1.18813,-0.29472 z"
       id="path3387"
       inkscape:connector-curvature="0" />
    <path
       inkscape:connector-curvature="0"
       style="fill:#808000"
       d="m 361.72607,526.47527 -0.31993,0.16037 c -0.15112,-0.0109 -0.24928,-0.0572 -0.40133,-0.0105 -0.0376,0.0129 -0.0764,0.0226 -0.11443,0.0347 0.48706,-0.006 0.93978,-0.0137 1.3998,-0.0217 -0.0429,-0.0118 -0.0845,-0.027 -0.13055,-0.029 -0.0489,-0.0173 -0.10781,-0.0195 -0.14747,-0.0516 -0.0859,0.002 -0.17227,0.005 -0.25788,-0.005 -0.0766,-0.009 -0.11694,-0.0136 -0.11685,-0.0169 3.9e-4,-0.0143 0.0271,-0.0111 0.0387,-0.0194 0.0176,-0.0126 0.0336,-0.0269 0.05,-0.0411 z"
       id="path3468" />
    <path
       style="fill:#808000"
       d="m 356.34873,526.63585 -0.1842,-0.0538 0.22104,-0.0498 c 0.84561,-0.19069 5.89129,-0.32628 8.75339,-0.23523 0.96459,0.0307 1.74376,0.0651 1.73147,0.0765 -0.11259,0.10465 -4.48165,0.34754 -4.59276,0.25533 -0.0695,-0.0577 -0.38611,-0.0811 -1.04211,-0.0771 -0.12865,8.3e-4 -0.25494,0.0354 -0.28065,0.077 -0.054,0.0874 -4.3091,0.0939 -4.60618,0.007 z"
       id="path3499"
       inkscape:connector-curvature="0" />
    <path
       style="fill:#808000;fill-rule:evenodd;stroke:#000000;stroke-width:0.41260678px;stroke-linecap:butt;stroke-linejoin:miter;stroke-opacity:1"
       d="m 351.04066,522.72349 -0.0737,7.95741 5.15759,-3.9787 z"
       id="path3507"
       inkscape:connector-curvature="0" />
    <path
       style="fill:#ff0000"
       d="m 351.23839,526.72281 c 0.0258,-1.89449 0.0545,-3.45395 0.0637,-3.46546 0.0352,-0.0437 4.38645,3.40124 4.36705,3.45748 -0.0204,0.059 -4.39272,3.45251 -4.44836,3.45251 -0.0161,0 -0.008,-1.55004 0.0176,-3.44453 z"
       id="path3509"
       inkscape:connector-curvature="0" />
    <path
       style="fill:#ff0000;fill-rule:evenodd;stroke:#000000;stroke-width:0.41260678px;stroke-linecap:butt;stroke-linejoin:miter;stroke-opacity:1"
       d="m 300.05425,381.55303 -5.19442,4.12607 10.35201,0 z"
       id="path3511"
       inkscape:connector-curvature="0" />
    <path
       style="fill:#808000"
       d="m 409.05518,374.04607 0,-6.04174 6.7417,0 6.7417,0 0,6.04174 0,6.04174 -6.7417,0 -6.7417,0 0,-6.04174 z"
       id="path3551"
       inkscape:connector-curvature="0" />
    <rect
       style="fill:#808000"
       id="rect3553"
       width="1.4735956"
       height="41.039639"
       x="421.82089"
       y="486.0321" />
    <rect
       style="fill:#808000"
       id="rect3555"
       width="9.1482992"
       height="0.88415736"
       x="414.07248"
       y="526.4823" />
    <rect
       style="fill:#808000"
       id="rect3557"
       width="14.846476"
       height="0.60785818"
       x="407.91382"
       y="570.24805" />
    <rect
       style="fill:#808000"
       id="rect3559"
       width="2.7998264"
       height="101.82545"
       x="410.32681"
       y="381.4805" />
    <rect
       style="fill:#808000"
       id="rect3561"
       width="2.7998316"
       height="85.173828"
       x="410.32681"
       y="484.48483" />
    <path
       style="fill:#cccccc"
       d="m 410.37319,528.5086 0,-41.15858 1.35459,0 1.35459,0 0,41.15858 0,41.15858 -1.35459,0 -1.35459,0 0,-41.15858 z"
       id="path3565"
       inkscape:connector-curvature="0" />
    <path
       style="fill:#cccccc"
       d="m 410.47124,431.53587 0,-51.67957 1.25039,0 1.25038,0 0,51.67957 0,51.67958 -1.25038,0 -1.25039,0 0,-51.67958 z"
       id="path3567"
       inkscape:connector-curvature="0" />
    <path
       style="fill:#cccccc"
       d="m 410.47124,485.82042 0,-1.35458 1.25039,0 1.25038,0 0,1.35458 0,1.35459 -1.25038,0 -1.25039,0 0,-1.35459 z"
       id="path3569"
       inkscape:connector-curvature="0" />
    <path
       style="fill:#cccccc"
       d="m 410.47124,390.68679 0,-9.16951 1.25039,0 1.25038,0 0,9.16951 0,9.16951 -1.25038,0 -1.25039,0 0,-9.16951 z"
       id="path3571"
       inkscape:connector-curvature="0" />
    <rect
       style="fill:#808000"
       id="rect3573"
       width="0.88415736"
       height="86.007423"
       x="408.11642"
       y="483.94595" />
    <path
       style="fill:#ff0000;fill-rule:evenodd;stroke:#000000;stroke-width:0.41260678px;stroke-linecap:butt;stroke-linejoin:miter;stroke-opacity:1"
       d="m 414.56215,522.86587 -0.20839,7.71072 -5.20995,-4.16796 z"
       id="path3575"
       inkscape:connector-curvature="0" />
    <rect
       style="fill:#808000"
       id="rect3577"
       width="5.9393396"
       height="0.67729312"
       x="408.93539"
       y="483.47867" />
    <rect
       style="fill:#808000"
       id="rect3579"
       width="1.0419894"
       height="39.283001"
       x="413.83273"
       y="483.89548" />
    <rect
       style="fill:#808000"
       id="rect3597"
       width="5.2681046"
       height="6.7048602"
       x="360.61902"
       y="516.93964" />
    <path
       style="fill:#808000"
       d="m 299.88811,381.29637 c -0.0661,-0.12342 -0.18424,-0.78381 -0.24215,-1.35305 -0.16454,-1.61755 -0.23705,-4.72375 -0.17393,-7.45085 0.0586,-2.53133 0.13691,-3.69337 0.30476,-4.52211 0.11543,-0.56988 0.26867,-0.75853 0.3867,-0.47605 0.29039,0.69501 0.45579,3.20725 0.45579,6.92303 0,3.51976 -0.14444,5.91379 -0.41046,6.80336 -0.0351,0.11731 -0.0492,0.12988 -0.10617,0.0943 -0.0492,-0.0307 -0.0797,-0.0294 -0.12137,0.005 -0.0458,0.038 -0.0623,0.0338 -0.0932,-0.0238 z m 0.23467,-0.49935 c 0.11912,-0.2851 0.2822,-1.85213 0.34974,-3.3608 0.0491,-1.09741 0.0498,-4.78913 0.001,-5.92923 -0.0984,-2.30358 -0.25597,-3.57347 -0.44333,-3.57347 -0.20029,0 -0.27143,0.99432 -0.33369,4.66395 -0.055,3.2411 0.019,7.14946 0.14888,7.86757 0.0428,0.23651 0.13175,0.45454 0.18547,0.45454 0.0223,0 0.0636,-0.0551 0.0918,-0.12256 z"
       id="path3599"
       inkscape:connector-curvature="0" />
    <text
       xml:space="preserve"
       style="font-style:normal;font-variant:normal;font-weight:normal;font-stretch:normal;font-size:10px;line-height:100%;font-family:'Times New Roman';-inkscape-font-specification:'Times New Roman, Normal';text-align:start;letter-spacing:0px;word-spacing:0px;writing-mode:lr-tb;text-anchor:start;fill:#000000;fill-opacity:1;stroke:none;stroke-width:1px;stroke-linecap:butt;stroke-linejoin:miter;stroke-opacity:1"
       x="450.16522"
       y="565.46674"
       id="text5492"
       sodipodi:linespacing="100%"><tspan
         sodipodi:role="line"
         id="tspan5494"
         x="450.16522"
         y="565.46674"
         style="font-style:italic">y</tspan></text>
    <text
       xml:space="preserve"
       style="font-style:normal;font-variant:normal;font-weight:normal;font-stretch:normal;font-size:10px;line-height:100%;font-family:'Times New Roman';-inkscape-font-specification:'Times New Roman, Normal';text-align:start;letter-spacing:0px;word-spacing:0px;writing-mode:lr-tb;text-anchor:start;fill:#000000;fill-opacity:1;stroke:none;stroke-width:1px;stroke-linecap:butt;stroke-linejoin:miter;stroke-opacity:1"
       x="432.69519"
       y="584.47369"
       id="text5496"
       sodipodi:linespacing="100%"><tspan
         sodipodi:role="line"
         id="tspan5498"
         x="432.69519"
         y="584.47369"
         style="font-style:italic">z</tspan></text>
    <path
       style="fill:none;fill-rule:evenodd;stroke:#000000;stroke-width:1px;stroke-linecap:butt;stroke-linejoin:miter;stroke-opacity:1;marker-start:url(#Arrow2Mstart-2-5);marker-end:url(#marker4615-1-8)"
       d="m 451.88017,571.07948 0,11.52176 -11.49864,0"
       id="path4613-9"
       inkscape:connector-curvature="0"
       sodipodi:nodetypes="ccc" />
    <text
       xml:space="preserve"
       style="font-style:normal;font-variant:normal;font-weight:normal;font-stretch:normal;font-size:10px;line-height:100%;font-family:'Times New Roman';-inkscape-font-specification:'Times New Roman, Normal';text-align:start;letter-spacing:0px;word-spacing:0px;writing-mode:lr-tb;text-anchor:start;fill:#000000;fill-opacity:1;stroke:none;stroke-width:1px;stroke-linecap:butt;stroke-linejoin:miter;stroke-opacity:1"
       x="388.66922"
       y="346.72839"
       id="text3453"
       sodipodi:linespacing="100%"><tspan
         sodipodi:role="line"
         id="tspan3455"
         x="388.66922"
         y="346.72839"
         style="font-style:italic">z</tspan></text>
    <text
       xml:space="preserve"
       style="font-style:normal;font-variant:normal;font-weight:normal;font-stretch:normal;font-size:10px;line-height:100%;font-family:'Times New Roman';-inkscape-font-specification:'Times New Roman, Normal';text-align:start;letter-spacing:0px;word-spacing:0px;writing-mode:lr-tb;text-anchor:start;fill:#000000;fill-opacity:1;stroke:none;stroke-width:1px;stroke-linecap:butt;stroke-linejoin:miter;stroke-opacity:1"
       x="408.53555"
       y="330.42108"
       id="text3457"
       sodipodi:linespacing="100%"><tspan
         sodipodi:role="line"
         id="tspan3459"
         x="408.53555"
         y="330.42108"
         style="font-style:italic">x</tspan></text>
    <path
       style="fill:none;fill-rule:evenodd;stroke:#000000;stroke-width:1px;stroke-linecap:butt;stroke-linejoin:miter;stroke-opacity:1;marker-start:url(#Arrow2Mstart-6);marker-end:url(#marker4615-3)"
       d="m 390.86496,339.04862 0,-10.32279 13.82269,0"
       id="path4613-0"
       inkscape:connector-curvature="0"
       sodipodi:nodetypes="ccc" />
    <text
       xml:space="preserve"
       style="font-style:normal;font-variant:normal;font-weight:normal;font-stretch:normal;font-size:10px;line-height:100%;font-family:'Times New Roman';-inkscape-font-specification:'Times New Roman, Normal';text-align:start;letter-spacing:0px;word-spacing:0px;writing-mode:lr-tb;text-anchor:start;fill:#000000;fill-opacity:1;stroke:none;stroke-width:1px;stroke-linecap:butt;stroke-linejoin:miter;stroke-opacity:1"
       x="382.37173"
       y="566.2431"
       id="text3461"
       sodipodi:linespacing="100%"><tspan
         sodipodi:role="line"
         id="tspan3463"
         x="382.37173"
         y="566.2431"
         style="font-style:italic">y</tspan></text>
    <text
       xml:space="preserve"
       style="font-style:normal;font-variant:normal;font-weight:normal;font-stretch:normal;font-size:10px;line-height:100%;font-family:'Times New Roman';-inkscape-font-specification:'Times New Roman, Normal';text-align:start;letter-spacing:0px;word-spacing:0px;writing-mode:lr-tb;text-anchor:start;fill:#000000;fill-opacity:1;stroke:none;stroke-width:1px;stroke-linecap:butt;stroke-linejoin:miter;stroke-opacity:1"
       x="398.94263"
       y="585.90472"
       id="text3465"
       sodipodi:linespacing="100%"><tspan
         sodipodi:role="line"
         id="tspan3467"
         x="398.94263"
         y="585.90472"
         style="font-style:italic">x</tspan></text>
    <path
       style="fill:none;fill-rule:evenodd;stroke:#000000;stroke-width:1px;stroke-linecap:butt;stroke-linejoin:miter;stroke-opacity:1;marker-start:url(#Arrow2Mstart);marker-end:url(#marker4615)"
       d="m 383.52898,571.92299 0,11.52176 11.71565,0"
       id="path4613"
       inkscape:connector-curvature="0"
       sodipodi:nodetypes="ccc" />
    <rect
       style="fill:#808000"
       id="rect3781"
       width="7.0079331"
       height="7.0710678"
       x="305.76056"
       y="371.58252" />
    <g
       id="g3882"
       transform="matrix(1,0,0,1.0046415,0,-2.6577392)">
      <path
         sodipodi:nodetypes="cc"
         inkscape:connector-curvature="0"
         id="path8827"
         d="m 240.41631,385.62797 0,185.43008"
         style="fill:none;fill-rule:evenodd;stroke:#000000;stroke-width:1.02051008px;stroke-linecap:butt;stroke-linejoin:miter;stroke-opacity:1;marker-start:url(#marker8835);marker-end:url(#marker8935)" />
    </g>
    <path
       style="fill:none;fill-rule:evenodd;stroke:#000000;stroke-width:1px;stroke-linecap:butt;stroke-linejoin:miter;stroke-opacity:1;marker-start:url(#marker5091);marker-end:url(#marker4615-1)"
       d="m 246.47722,580.62097 107.07617,0"
       id="path5083"
       inkscape:connector-curvature="0" />
    <path
       style="fill:#cccccc"
       d="m 410.50746,380.68562 0,-0.82075 1.23112,0 1.23112,0 0,0.82075 0,0.82075 -1.23112,0 -1.23112,0 0,-0.82075 z"
       id="path5215"
       inkscape:connector-curvature="0" />
    <text
       xml:space="preserve"
       style="font-style:normal;font-variant:normal;font-weight:normal;font-stretch:normal;font-size:10px;line-height:100%;font-family:'Times New Roman';-inkscape-font-specification:'Times New Roman, Normal';text-align:start;letter-spacing:0px;word-spacing:0px;writing-mode:lr-tb;text-anchor:start;fill:#000000;fill-opacity:1;stroke:none;stroke-width:1px;stroke-linecap:butt;stroke-linejoin:miter;stroke-opacity:1"
       x="222.73863"
       y="479.10065"
       id="text5217"
       sodipodi:linespacing="100%"><tspan
         sodipodi:role="line"
         id="tspan5219"
         x="222.73863"
         y="479.10065">120</tspan></text>
    <text
       xml:space="preserve"
       style="font-style:normal;font-variant:normal;font-weight:normal;font-stretch:normal;font-size:10px;line-height:100%;font-family:'Times New Roman';-inkscape-font-specification:'Times New Roman, Normal';text-align:start;letter-spacing:0px;word-spacing:0px;writing-mode:lr-tb;text-anchor:start;fill:#000000;fill-opacity:1;stroke:none;stroke-width:1px;stroke-linecap:butt;stroke-linejoin:miter;stroke-opacity:1"
       x="296.47977"
       y="591.22754"
       id="text5221"
       sodipodi:linespacing="100%"><tspan
         sodipodi:role="line"
         id="tspan5223"
         x="296.47977"
         y="591.22754">55</tspan><tspan
         sodipodi:role="line"
         x="296.47977"
         y="601.22754"
         id="tspan5225" /></text>
    <path
       style="fill:none;fill-rule:evenodd;stroke:#000000;stroke-width:1px;stroke-linecap:butt;stroke-linejoin:miter;stroke-opacity:1;marker-start:url(#marker5235);marker-end:url(#marker5359)"
       d="m 371.73614,484.1514 0,41.66879"
       id="path5227"
       inkscape:connector-curvature="0" />
    <text
       xml:space="preserve"
       style="font-style:normal;font-variant:normal;font-weight:normal;font-stretch:normal;font-size:10px;line-height:100%;font-family:'Times New Roman';-inkscape-font-specification:'Times New Roman, Normal';text-align:start;letter-spacing:0px;word-spacing:0px;writing-mode:lr-tb;text-anchor:start;fill:#000000;fill-opacity:1;stroke:none;stroke-width:1px;stroke-linecap:butt;stroke-linejoin:miter;stroke-opacity:1"
       x="374.51407"
       y="506.87982"
       id="text5483"
       sodipodi:linespacing="100%"><tspan
         sodipodi:role="line"
         id="tspan5485"
         x="374.51407"
         y="506.87982">26.5</tspan></text>
    <path
       style="fill:none;fill-rule:evenodd;stroke:#000000;stroke-width:0.98026913px;stroke-linecap:butt;stroke-linejoin:miter;stroke-opacity:1;marker-start:url(#marker6383);marker-end:url(#marker6519)"
       d="m 371.73614,528.79158 0,41.01137"
       id="path6375"
       inkscape:connector-curvature="0" />
    <text
       xml:space="preserve"
       style="font-style:normal;font-variant:normal;font-weight:normal;font-stretch:normal;font-size:10px;line-height:100%;font-family:'Times New Roman';-inkscape-font-specification:'Times New Roman, Normal';text-align:start;letter-spacing:0px;word-spacing:0px;writing-mode:lr-tb;text-anchor:start;fill:#000000;fill-opacity:1;stroke:none;stroke-width:1px;stroke-linecap:butt;stroke-linejoin:miter;stroke-opacity:1"
       x="374.009"
       y="552.08417"
       id="text6655"
       sodipodi:linespacing="100%"><tspan
         sodipodi:role="line"
         id="tspan6657"
         x="374.009"
         y="552.08417">27.5</tspan></text>
    <path
       style="fill:none;fill-rule:evenodd;stroke:#000000;stroke-width:0.97831494px;stroke-linecap:butt;stroke-linejoin:miter;stroke-opacity:1;marker-start:url(#marker6667);marker-end:url(#marker8221)"
       d="m 248.38122,363.96935 50.07685,0"
       id="path8195"
       inkscape:connector-curvature="0" />
    <path
       style="fill:none;fill-rule:evenodd;stroke:#000000;stroke-width:1px;stroke-linecap:butt;stroke-linejoin:miter;stroke-opacity:1;marker-start:url(#marker8401);marker-end:url(#marker8585)"
       d="m 301.60714,363.6122 55.17858,0"
       id="path8393"
       inkscape:connector-curvature="0" />
    <path
       style="fill:none;fill-rule:evenodd;stroke:#000000;stroke-width:1px;stroke-linecap:butt;stroke-linejoin:miter;stroke-opacity:1;marker-start:url(#marker9721)"
       d="m 369.64286,573.61221 7.67858,-0.17858"
       id="path9713"
       inkscape:connector-curvature="0"
       sodipodi:nodetypes="cc" />
    <path
       style="fill:none;fill-rule:evenodd;stroke:#000000;stroke-width:1px;stroke-linecap:butt;stroke-linejoin:miter;stroke-opacity:1;marker-start:url(#marker9721-3)"
       d="m 352.22113,573.58746 -7.5,-0.17858"
       id="path9713-9"
       inkscape:connector-curvature="0"
       sodipodi:nodetypes="cc" />
    <text
       xml:space="preserve"
       style="font-style:normal;font-variant:normal;font-weight:normal;font-stretch:normal;font-size:10px;line-height:100%;font-family:'Times New Roman';-inkscape-font-specification:'Times New Roman, Normal';text-align:start;letter-spacing:0px;word-spacing:0px;writing-mode:lr-tb;text-anchor:start;fill:#000000;fill-opacity:1;stroke:none;stroke-width:1px;stroke-linecap:butt;stroke-linejoin:miter;stroke-opacity:1"
       x="359.28571"
       y="578.61224"
       id="text10930"
       sodipodi:linespacing="100%"><tspan
         sodipodi:role="line"
         id="tspan10932"
         x="359.28571"
         y="578.61224">7</tspan></text>
    <path
       style="fill:none;fill-rule:evenodd;stroke:#000000;stroke-width:1px;stroke-linecap:butt;stroke-linejoin:miter;stroke-opacity:1;marker-start:url(#marker9721-3-7)"
       d="m 355.85725,479.81776 -7.5,-0.17858"
       id="path9713-9-5"
       inkscape:connector-curvature="0"
       sodipodi:nodetypes="cc" />
    <path
       style="fill:none;fill-rule:evenodd;stroke:#000000;stroke-width:1px;stroke-linecap:butt;stroke-linejoin:miter;stroke-opacity:1;marker-start:url(#marker9721-1)"
       d="m 369.05339,479.97422 7.67858,-0.17858"
       id="path9713-0"
       inkscape:connector-curvature="0"
       sodipodi:nodetypes="cc" />
    <text
       xml:space="preserve"
       style="font-style:normal;font-variant:normal;font-weight:normal;font-stretch:normal;font-size:10px;line-height:100%;font-family:'Times New Roman';-inkscape-font-specification:'Times New Roman, Normal';text-align:start;letter-spacing:0px;word-spacing:0px;writing-mode:lr-tb;text-anchor:start;fill:#000000;fill-opacity:1;stroke:none;stroke-width:1px;stroke-linecap:butt;stroke-linejoin:miter;stroke-opacity:1"
       x="359.82141"
       y="482.71933"
       id="text11910"
       sodipodi:linespacing="100%"><tspan
         sodipodi:role="line"
         id="tspan11912"
         x="359.82141"
         y="482.71933">5</tspan></text>
    <path
       style="fill:none;fill-rule:evenodd;stroke:#000000;stroke-width:1px;stroke-linecap:butt;stroke-linejoin:miter;stroke-opacity:1;marker-start:url(#marker11922);marker-end:url(#marker12154)"
       d="m 407.59655,575.82275 15.15229,0"
       id="path11914"
       inkscape:connector-curvature="0" />
    <text
       xml:space="preserve"
       style="font-style:normal;font-variant:normal;font-weight:normal;font-stretch:normal;font-size:10px;line-height:100%;font-family:'Times New Roman';-inkscape-font-specification:'Times New Roman, Normal';text-align:start;letter-spacing:0px;word-spacing:0px;writing-mode:lr-tb;text-anchor:start;fill:#000000;fill-opacity:1;stroke:none;stroke-width:1px;stroke-linecap:butt;stroke-linejoin:miter;stroke-opacity:1"
       x="412.64731"
       y="586.17682"
       id="text12470"
       sodipodi:linespacing="100%"><tspan
         sodipodi:role="line"
         id="tspan12472"
         x="412.64731"
         y="586.17682">7</tspan></text>
    <text
       xml:space="preserve"
       style="font-style:normal;font-variant:normal;font-weight:normal;font-stretch:normal;font-size:10px;line-height:100%;font-family:'Times New Roman';-inkscape-font-specification:'Times New Roman, Normal';text-align:start;letter-spacing:0px;word-spacing:0px;writing-mode:lr-tb;text-anchor:start;fill:#000000;fill-opacity:1;stroke:none;stroke-width:1px;stroke-linecap:butt;stroke-linejoin:miter;stroke-opacity:1"
       x="267.18536"
       y="361.41788"
       id="text13238"
       sodipodi:linespacing="100%"><tspan
         sodipodi:role="line"
         id="tspan13240"
         x="267.18536"
         y="361.41788">27</tspan></text>
    <text
       xml:space="preserve"
       style="font-style:normal;font-variant:normal;font-weight:normal;font-stretch:normal;font-size:10px;line-height:100%;font-family:'Times New Roman';-inkscape-font-specification:'Times New Roman, Normal';text-align:start;letter-spacing:0px;word-spacing:0px;writing-mode:lr-tb;text-anchor:start;fill:#000000;fill-opacity:1;stroke:none;stroke-width:1px;stroke-linecap:butt;stroke-linejoin:miter;stroke-opacity:1"
       x="323.62762"
       y="361.92294"
       id="text13242"
       sodipodi:linespacing="100%"><tspan
         sodipodi:role="line"
         id="tspan13244"
         x="323.62762"
         y="361.92294">28.5</tspan></text>
    <path
       style="fill:none;fill-rule:evenodd;stroke:#000000;stroke-width:1px;stroke-linecap:butt;stroke-linejoin:miter;stroke-opacity:1;marker-start:url(#marker9721-1-4)"
       d="m 416.56578,480.41221 7.67858,-0.17858"
       id="path9713-0-7"
       inkscape:connector-curvature="0"
       sodipodi:nodetypes="cc" />
    <path
       style="fill:none;fill-rule:evenodd;stroke:#000000;stroke-width:1px;stroke-linecap:butt;stroke-linejoin:miter;stroke-opacity:1;marker-start:url(#marker9721-3-7-7)"
       d="m 407.5662,480.43431 -7.5,-0.17858"
       id="path9713-9-5-1"
       inkscape:connector-curvature="0"
       sodipodi:nodetypes="cc" />
    <text
       xml:space="preserve"
       style="font-style:normal;font-variant:normal;font-weight:normal;font-stretch:normal;font-size:10px;line-height:100%;font-family:'Times New Roman';-inkscape-font-specification:'Times New Roman, Normal';text-align:start;letter-spacing:0px;word-spacing:0px;writing-mode:lr-tb;text-anchor:start;fill:#000000;fill-opacity:1;stroke:none;stroke-width:1px;stroke-linecap:butt;stroke-linejoin:miter;stroke-opacity:1"
       x="395.28531"
       y="483.58319"
       id="text14162"
       sodipodi:linespacing="100%"><tspan
         sodipodi:role="line"
         id="tspan14164"
         x="395.28531"
         y="483.58319">3</tspan></text>
    <path
       style="fill:none;fill-rule:evenodd;stroke:#000000;stroke-width:1px;stroke-linecap:butt;stroke-linejoin:miter;stroke-opacity:1;marker-start:url(#marker9721-1-4-5)"
       d="m 425.55593,531.88255 7.67858,-0.17858"
       id="path9713-0-7-8"
       inkscape:connector-curvature="0"
       sodipodi:nodetypes="cc" />
    <path
       style="fill:none;fill-rule:evenodd;stroke:#000000;stroke-width:1px;stroke-linecap:butt;stroke-linejoin:miter;stroke-opacity:1;marker-start:url(#marker9721-3-7-7-1)"
       d="m 411.53006,531.90652 -7.5,-0.17858"
       id="path9713-9-5-1-7"
       inkscape:connector-curvature="0"
       sodipodi:nodetypes="cc" />
    <text
       xml:space="preserve"
       style="font-style:normal;font-variant:normal;font-weight:normal;font-stretch:normal;font-size:10px;line-height:100%;font-family:'Times New Roman';-inkscape-font-specification:'Times New Roman, Normal';text-align:start;letter-spacing:0px;word-spacing:0px;writing-mode:lr-tb;text-anchor:start;fill:#000000;fill-opacity:1;stroke:none;stroke-width:1px;stroke-linecap:butt;stroke-linejoin:miter;stroke-opacity:1"
       x="416.61389"
       y="535.33325"
       id="text16032"
       sodipodi:linespacing="100%"><tspan
         sodipodi:role="line"
         id="tspan16034"
         x="416.61389"
         y="535.33325">4</tspan></text>
    <path
       style="fill:none;fill-rule:evenodd;stroke:#000000;stroke-width:1px;stroke-linecap:butt;stroke-linejoin:miter;stroke-opacity:1;marker-start:url(#marker9017)"
       d="M 362.125,365.61221 362,358.23721"
       id="path16093"
       inkscape:connector-curvature="0"
       sodipodi:nodetypes="cc" />
    <path
       style="fill:none;fill-rule:evenodd;stroke:#000000;stroke-width:1px;stroke-linecap:butt;stroke-linejoin:miter;stroke-opacity:1;marker-end:url(#marker16541)"
       d="m 361.875,391.73721 0,-7.125"
       id="path16533"
       inkscape:connector-curvature="0"
       sodipodi:nodetypes="cc" />
    <text
       xml:space="preserve"
       style="font-style:normal;font-variant:normal;font-weight:normal;font-stretch:normal;font-size:10px;line-height:100%;font-family:'Times New Roman';-inkscape-font-specification:'Times New Roman, Normal';text-align:start;letter-spacing:0px;word-spacing:0px;writing-mode:lr-tb;text-anchor:start;fill:#000000;fill-opacity:1;stroke:none;stroke-width:1px;stroke-linecap:butt;stroke-linejoin:miter;stroke-opacity:1"
       x="357.75"
       y="378.73721"
       id="text17169"
       sodipodi:linespacing="100%"><tspan
         sodipodi:role="line"
         id="tspan17171"
         x="357.75"
         y="378.73721">10</tspan><tspan
         sodipodi:role="line"
         x="357.75"
         y="388.73721"
         id="tspan17173" /></text>
    <path
       style="fill:none;fill-rule:evenodd;stroke:#000000;stroke-width:1px;stroke-linecap:butt;stroke-linejoin:miter;stroke-opacity:1;marker-start:url(#marker9017-3)"
       d="m 233.70404,365.6732 -0.125,-7.375"
       id="path16093-7"
       inkscape:connector-curvature="0"
       sodipodi:nodetypes="cc" />
    <path
       style="fill:none;fill-rule:evenodd;stroke:#000000;stroke-width:1px;stroke-linecap:butt;stroke-linejoin:miter;stroke-opacity:1;marker-end:url(#marker16541-0)"
       d="m 233.75961,389.18063 0,-7.125"
       id="path16533-6"
       inkscape:connector-curvature="0"
       sodipodi:nodetypes="cc" />
    <text
       xml:space="preserve"
       style="font-style:normal;font-variant:normal;font-weight:normal;font-stretch:normal;font-size:10px;line-height:100%;font-family:'Times New Roman';-inkscape-font-specification:'Times New Roman, Normal';text-align:start;letter-spacing:0px;word-spacing:0px;writing-mode:lr-tb;text-anchor:start;fill:#000000;fill-opacity:1;stroke:none;stroke-width:1px;stroke-linecap:butt;stroke-linejoin:miter;stroke-opacity:1"
       x="231.375"
       y="377.48721"
       id="text18453"
       sodipodi:linespacing="100%"><tspan
         sodipodi:role="line"
         id="tspan18455"
         x="231.375"
         y="377.48721">8</tspan><tspan
         sodipodi:role="line"
         x="231.375"
         y="387.48721"
         id="tspan18457" /></text>
    <path
       style="fill:none;fill-rule:evenodd;stroke:#000000;stroke-width:1px;stroke-linecap:butt;stroke-linejoin:miter;stroke-opacity:1"
       d="m 232.125,367.61221 12.875,0"
       id="path18789"
       inkscape:connector-curvature="0" />
    <path
       style="fill:none;fill-rule:evenodd;stroke:#000000;stroke-width:1px;stroke-linecap:butt;stroke-linejoin:miter;stroke-opacity:1"
       d="m 245,380.36221 -12.875,-0.125"
       id="path18791"
       inkscape:connector-curvature="0" />
    <g
       id="g18893">
      <g
         transform="matrix(-1,0,0,-1,613.00779,935.9566)"
         id="g3848">
        <g
           id="g3829">
          <path
             inkscape:connector-curvature="0"
             id="path3373"
             d="m 256.69794,600.59831 -0.0384,-7.43033 -0.2305,4.67049 c -0.12677,2.56877 -0.1726,5.72408 -0.10184,7.0118 l 0.12865,2.34131 -4.92025,-0.0768 -4.92025,-0.0768 -0.0682,-7.57186 -0.0682,-7.57185 6.79415,0 c 5.86843,0 6.79415,0.0579 6.79415,0.42459 0,0.66423 2.60553,0.58758 3.1631,-0.0931 0.23323,-0.2847 0.42229,-0.69868 0.42013,-0.91995 -0.003,-0.33787 -0.0421,-0.33561 -0.24229,0.0141 -0.1311,0.22901 -0.31384,0.33302 -0.40607,0.23113 -0.24685,-0.2727 0.11133,-0.78906 0.54734,-0.78906 0.59533,0 0.7238,0.81624 0.22442,1.42585 -0.45197,0.55173 -0.26766,0.55557 26.61634,0.55557 17.87684,0 27.07148,-0.0961 27.07148,-0.28306 0,-0.15568 -0.14413,-0.28501 -0.32029,-0.28739 -0.21352,-0.003 -0.19217,-0.0958 0.0641,-0.27872 0.57761,-0.41238 0.76868,-0.34237 0.76868,0.28164 0,0.55986 0.21324,0.56534 24.78978,0.63689 l 24.78979,0.0722 0,3.8213 0,3.82131 -26.19903,0.0721 -26.19902,0.0721 0,2.96946 0,2.96946 26.19902,0.0721 26.19903,0.0721 0.0819,0.63688 0.0819,0.63689 -26.92146,0 -26.92147,0 0,-4.2459 0,-4.2459 -26.6077,0 c -26.46913,0 -26.61018,-0.003 -27.08145,-0.5783 -0.41523,-0.50687 -0.42013,-0.55558 -0.0397,-0.3943 0.24681,0.10462 0.43403,0.0488 0.43403,-0.12936 0,-0.22695 6.9418,-0.31334 25.18021,-0.31334 l 25.18022,0 1.14692,-1.69238 c 1.56173,-2.30445 2.11604,-2.30711 3.62348,-0.0174 l 1.1106,1.68698 23.95706,0.0979 c 13.17638,0.0539 24.27413,0.2012 24.66167,0.32744 l 0.70462,0.22954 0,-2.29748 0,-2.29748 -52.6694,0 c -42.06228,0 -52.63255,0.0713 -52.48643,0.35383 0.10064,0.1946 0.56865,0.88477 1.04003,1.5337 0.47138,0.64894 0.85705,1.25397 0.85705,1.34454 0,0.0906 -1.09536,0.16465 -2.43414,0.16465 l -2.43414,0 0,5.23661 0,5.23661 -0.64056,0 -0.64057,0 -0.0383,-7.43032 z m 1.06325,0.35382 c 0,-5.84991 -0.0534,-6.79344 -0.38434,-6.79344 -0.33095,0 -0.38433,0.94353 -0.38433,6.79344 0,5.84991 0.0534,6.79344 0.38433,6.79344 0.33096,0 0.38434,-0.94353 0.38434,-6.79344 z m 57.13822,3.25519 c 0,-2.95641 -0.0632,-3.53825 -0.38434,-3.53825 -0.32113,0 -0.38434,0.58184 -0.38434,3.53825 0,2.9564 0.0632,3.53825 0.38434,3.53825 0.32114,0 0.38434,-0.58185 0.38434,-3.53825 z m 52.52616,3.11366 c 0,-0.37464 -3.0747,-0.42459 -26.13497,-0.42459 -23.06026,0 -26.13496,0.0499 -26.13496,0.42459 0,0.37464 3.0747,0.42459 26.13496,0.42459 23.06027,0 26.13497,-0.05 26.13497,-0.42459 z m -111.20173,-0.70765 c 0,-0.17823 -1.70817,-0.28306 -4.61205,-0.28306 -2.90389,0 -4.61206,0.10483 -4.61206,0.28306 0,0.17822 1.70817,0.28306 4.61206,0.28306 2.90388,0 4.61205,-0.10484 4.61205,-0.28306 z m -2.49819,-0.77702 c -1.30355,-0.0514 -3.43662,-0.0514 -4.74017,0 -1.30355,0.0514 -0.23701,0.0934 2.37008,0.0934 2.60709,0 3.67363,-0.042 2.37009,-0.0934 z m 2.24197,-3.18582 0,-2.8306 -4.61206,0 -4.61205,0 0,2.8306 0,2.8306 4.61205,0 4.61206,0 0,-2.8306 z m 110.43306,-2.68907 c 0,-0.37464 -3.07471,-0.42459 -26.13498,-0.42459 -23.06026,0 -26.13497,0.0499 -26.13497,0.42459 0,0.37464 3.07471,0.42459 26.13497,0.42459 23.06027,0 26.13498,-0.05 26.13498,-0.42459 z m 1.02489,-2.68907 c 0,-2.57899 -0.066,-3.11366 -0.38433,-3.11366 -0.31834,0 -0.38434,0.53467 -0.38434,3.11366 0,2.57899 0.066,3.11366 0.38434,3.11366 0.31834,0 0.38433,-0.53467 0.38433,-3.11366 z m -111.20173,1.83989 c 0,-0.36169 -0.68327,-0.42459 -4.61205,-0.42459 -3.92879,0 -4.61206,0.0629 -4.61206,0.42459 0,0.36169 0.68327,0.42459 4.61206,0.42459 3.92878,0 4.61205,-0.0629 4.61205,-0.42459 z m 58.41934,-0.28306 c 0,-0.26419 -0.24199,-0.42459 -0.64056,-0.42459 -0.39857,0 -0.64056,0.1604 -0.64056,0.42459 0,0.26419 0.24199,0.42459 0.64056,0.42459 0.39857,0 0.64056,-0.1604 0.64056,-0.42459 z m -58.41934,-2.8306 0,-2.40601 -4.61205,0 -4.61206,0 0,2.40601 0,2.40601 4.61206,0 4.61205,0 0,-2.40601 z m 2.56989,-1.28953 c 0.22348,-0.46131 0.18224,-0.55036 -0.25485,-0.55036 -0.38862,0 -0.52146,0.18454 -0.52146,0.72436 0,0.78715 0.34853,0.70903 0.77631,-0.174 z m 54.31211,-1.25801 c 0,-0.37483 -3.28823,-0.42459 -28.05667,-0.42459 -24.76843,0 -28.05665,0.0498 -28.05665,0.42459 0,0.37483 3.28822,0.42459 28.05665,0.42459 24.76844,0 28.05667,-0.0498 28.05667,-0.42459 z m 1.79357,0 c 0,-0.28306 -0.25623,-0.42459 -0.76868,-0.42459 -0.51245,0 -0.76867,0.14153 -0.76867,0.42459 0,0.28306 0.25622,0.42459 0.76867,0.42459 0.51245,0 0.76868,-0.14153 0.76868,-0.42459 z m 52.52616,0 c 0,-0.37464 -3.0747,-0.42459 -26.13497,-0.42459 -23.06026,0 -26.13496,0.05 -26.13496,0.42459 0,0.37464 3.0747,0.42459 26.13496,0.42459 23.06027,0 26.13497,-0.0499 26.13497,-0.42459 z m -111.20173,-0.56612 c 0,-0.36169 -0.68327,-0.42459 -4.61205,-0.42459 -3.92879,0 -4.61206,0.0629 -4.61206,0.42459 0,0.36169 0.68327,0.42459 4.61206,0.42459 3.92878,0 4.61205,-0.0629 4.61205,-0.42459 z m 3.58716,-0.44874 c 0,-0.1424 -0.74946,-0.2589 -1.66547,-0.2589 -1.16127,0 -1.66562,0.10711 -1.666,0.35382 -3.8e-4,0.25655 0.45746,0.32773 1.66546,0.2589 0.9163,-0.0522 1.66601,-0.21142 1.66601,-0.35382 z"
             style="fill:#000000" />
          <path
             inkscape:connector-curvature="0"
             id="path3389"
             d="m 314.34876,607.56257 c -0.14869,-0.27777 -0.23727,-3.09737 -0.15514,-4.93849 0.0402,-0.90059 0.0973,-1.69545 0.1269,-1.76637 0.0971,-0.23241 0.31862,-0.15282 0.41009,0.14736 0.11516,0.37797 0.17748,4.61769 0.0834,5.67631 -0.0874,0.98378 -0.24778,1.28754 -0.46529,0.88119 z"
             style="fill:#808000" />
          <path
             inkscape:connector-curvature="0"
             id="path3391"
             d="m 319.70041,600.28393 c -3.82205,-0.0506 -4.75042,-0.0912 -5.30178,-0.2316 -0.41077,-0.10461 -0.22092,-0.1892 0.63483,-0.28285 2.56772,-0.28102 47.8795,-0.28102 50.44723,0 0.71289,0.078 0.98245,0.16029 0.83129,0.25371 -0.21396,0.13223 -1.73459,0.19687 -6.16137,0.26189 -5.34654,0.0785 -34.49798,0.0777 -40.4502,-10e-4 z"
             style="fill:#808000" />
          <path
             inkscape:connector-curvature="0"
             id="path3393"
             d="m 328.46831,593.79467 c -11.79446,-0.0471 -13.52046,-0.0947 -13.2498,-0.36539 0.29403,-0.29403 5.03238,-0.35934 26.07008,-0.35934 21.03769,0 25.77605,0.0653 26.07008,0.35934 0.22434,0.22435 -1.50371,0.30326 -7.4291,0.33928 -10.40792,0.0633 -20.14006,0.0714 -31.46126,0.0261 z"
             style="fill:#808000" />
          <path
             inkscape:connector-curvature="0"
             id="path3395"
             d="m 271.25596,593.79405 c -12.70561,-0.0479 -14.44272,-0.0928 -14.16874,-0.36682 0.29104,-0.29104 5.4568,-0.35693 27.9837,-0.35693 21.78705,0 27.69094,0.0691 27.9489,0.32705 0.0675,0.0675 -0.0512,0.12873 -0.37133,0.19139 -1.07735,0.21089 -17.84194,0.29404 -41.39253,0.20531 z"
             style="fill:#808000" />
          <path
             inkscape:connector-curvature="0"
             id="path3397"
             d="m 257.25769,607.58265 c -0.16348,-0.30545 -0.21742,-1.9511 -0.21742,-6.63284 0,-5.83166 0.0735,-7.02686 0.41116,-6.68916 0.0636,0.0636 0.13443,0.37144 0.1757,0.76381 0.09,0.85581 0.09,10.9949 0,11.85071 -0.0767,0.72927 -0.21552,0.99509 -0.36944,0.70748 z"
             style="fill:#808000" />
          <path
             inkscape:connector-curvature="0"
             id="path3399"
             d="m 321.54241,607.65236 c -4.53225,-0.058 -5.99455,-0.12315 -6.27396,-0.27951 -0.24299,-0.13598 0.42497,-0.23618 2.09173,-0.31377 2.47241,-0.1151 35.37306,-0.17195 42.56939,-0.0736 5.7919,0.0792 7.09746,0.13022 7.38034,0.28853 0.24808,0.13883 -0.44139,0.23508 -2.23736,0.31234 -2.22259,0.0956 -37.08484,0.14845 -43.53014,0.066 z"
             style="fill:#808000" />
          <path
             inkscape:connector-curvature="0"
             id="path3458"
             d="m 366.89313,600.23659 c -0.15257,-0.18385 -0.24045,-1.82698 -0.19711,-3.68552 0.0437,-1.87152 0.10938,-2.32091 0.33946,-2.32091 0.25059,0 0.30868,0.39276 0.34872,2.35775 0.0594,2.9152 -0.10235,4.11705 -0.49107,3.64868 z"
             style="fill:#800000" />
          <path
             inkscape:connector-curvature="0"
             id="path3545"
             d="m 313.94289,594.87441 -2.54195,3.18665 4.89971,0.0184 z"
             style="fill:#ff0000;fill-rule:evenodd;stroke:#000000;stroke-width:0.41260678px;stroke-linecap:butt;stroke-linejoin:miter;stroke-opacity:1" />
          <path
             inkscape:connector-curvature="0"
             id="path3547"
             d="m 366.91908,600.14845 c -0.11003,-0.17052 -0.18461,-4.51155 -0.0906,-5.27112 0.0849,-0.68594 0.32301,-0.74519 0.41867,-0.1042 0.11309,0.75779 0.0131,5.26375 -0.11971,5.39636 -0.0884,0.0883 -0.14131,0.0829 -0.2084,-0.021 z"
             style="fill:#808000" />
          <rect
             y="598.50317"
             x="261.0408"
             height="0.62627816"
             width="104.66212"
             id="rect3583"
             style="fill:#cccccc" />
          <path
             inkscape:connector-curvature="0"
             id="path3585"
             d="m 366.82531,600.02635 c -0.0563,-0.26244 -0.0994,-0.81098 -0.12541,-1.5946 -0.0106,-0.32083 -0.0107,-1.57937 -7e-5,-1.95373 0.0316,-1.11366 0.0561,-1.52863 0.10913,-1.8477 0.0362,-0.21802 0.0854,-0.33518 0.15862,-0.37824 0.0246,-0.0144 0.0374,-0.0175 0.0722,-0.0171 0.21896,0.002 0.28627,0.35719 0.3256,1.71555 0.0168,0.5802 0.0204,0.79319 0.0239,1.4425 0.005,0.93589 -0.008,1.43938 -0.0503,1.95047 -0.0224,0.26927 -0.0618,0.54277 -0.0966,0.66986 l -0.0118,0.0432 -0.0356,0.002 -0.0356,0.002 0.008,-0.0549 c 0.0343,-0.23509 0.0718,-0.88833 0.0967,-1.68777 0.0469,-1.50217 0.0441,-2.96008 -0.007,-3.46462 -0.0286,-0.28474 -0.10515,-0.49675 -0.18929,-0.52452 -0.0301,-0.01 -0.0527,-4.1e-4 -0.0865,0.0362 -0.0943,0.1023 -0.15589,0.38318 -0.17633,0.80415 -0.0314,0.64656 -0.0253,2.30067 0.0131,3.52974 0.0206,0.6597 0.0524,1.22619 0.0755,1.34319 0.003,0.0176 0.003,0.0179 -0.029,0.0179 l -0.0326,0 -0.007,-0.0335 z"
             style="fill:#808000" />
          <path
             inkscape:connector-curvature="0"
             id="path3587"
             d="m 366.77612,600.05172 c -0.008,-0.022 -0.03,-0.15631 -0.0417,-0.24917 -0.0543,-0.43175 -0.0722,-1.05733 -0.0722,-2.53327 -10e-6,-1.46431 0.0182,-2.10538 0.072,-2.52682 0.0525,-0.41222 0.13884,-0.57794 0.30138,-0.57867 0.0256,-1.1e-4 0.0584,0.004 0.0727,0.009 0.189,0.0631 0.26244,0.41828 0.29637,1.43308 0.02,0.59907 0.0236,2.32781 0.006,3.07712 -0.0155,0.67176 -0.0423,1.05183 -0.0922,1.30737 l -0.0137,0.07 -0.034,0 -0.034,0 0.0155,-0.0635 c 0.10611,-0.43377 0.15143,-1.25924 0.14329,-2.60986 -0.004,-0.60931 -0.008,-0.85709 -0.0238,-1.41646 -0.0324,-1.1302 -0.0851,-1.55328 -0.21085,-1.69225 -0.0418,-0.0462 -0.13544,-0.0636 -0.18968,-0.0353 -0.14687,0.0767 -0.20888,0.42444 -0.25057,1.40519 -0.0248,0.58278 -0.0353,1.12664 -0.0354,1.82674 -1.7e-4,1.02868 0.0288,1.7536 0.0909,2.27284 0.01,0.0803 0.0387,0.26761 0.0461,0.29734 0.003,0.0139 0.002,0.0153 -0.0199,0.0153 -0.0131,0 -0.025,-0.004 -0.0265,-0.008 z"
             style="fill:#808000" />
          <path
             inkscape:connector-curvature="0"
             id="path3589"
             d="m 248.68584,606.82288 c -0.86157,-0.0417 -1.54275,-0.11805 -1.60462,-0.17991 -0.19417,-0.19417 2.15989,-0.31181 5.40788,-0.27026 2.23027,0.0285 3.20456,0.0788 3.56882,0.18411 l 0.1563,0.0452 -0.13737,0.0551 c -0.29606,0.11881 -1.42844,0.17449 -3.90035,0.19179 -1.4184,0.01 -2.9892,-0.002 -3.49066,-0.026 z"
             style="fill:#808000" />
          <path
             inkscape:connector-curvature="0"
             id="path3591"
             d="m 248.79004,599.48018 c -0.58742,-0.0221 -1.16182,-0.0583 -1.27644,-0.0805 -0.48237,-0.0933 -0.6427,-0.31198 -0.34251,-0.46722 0.32525,-0.16819 1.1033,-0.20388 4.43232,-0.20332 4.00346,8.3e-4 4.55871,0.0474 4.55871,0.38367 0,0.17533 -0.16484,0.2453 -0.73312,0.31123 -0.59757,0.0693 -5.24471,0.10862 -6.63896,0.0561 z"
             style="fill:#808000" />
          <path
             inkscape:connector-curvature="0"
             id="path3593"
             d="m 248.04488,593.22101 c -0.68205,-0.0461 -1.00017,-0.15238 -1.00017,-0.33408 0,-0.32663 0.72701,-0.38827 4.58475,-0.38875 3.80912,-4.1e-4 4.51226,0.0566 4.54849,0.36894 0.0238,0.20495 -0.26171,0.29588 -1.1242,0.35807 -0.83256,0.06 -6.10571,0.0569 -7.00887,-0.004 z"
             style="fill:#808000" />
          <path
             inkscape:connector-curvature="0"
             id="path3595"
             d="m 260.02673,594.15468 -1.87558,3.02177 4.22006,0.0521 z"
             style="fill:#ff0000;fill-rule:evenodd;stroke:#000000;stroke-width:0.41260678px;stroke-linecap:butt;stroke-linejoin:miter;stroke-opacity:1" />
        </g>
      </g>
      <path
         id="rect16052"
         d="M 347.74414 343.42383 L 347.74414 343.91602 C 348.11405 343.98454 348.48028 344.07562 348.84375 344.17578 C 348.82705 344.16736 348.8078 344.15931 348.80469 344.14258 C 348.80391 344.13863 348.80707 344.13488 348.80664 344.13086 C 348.80664 344.13086 348.80469 344.12891 348.80469 344.12891 C 348.80169 344.12904 348.79987 344.12878 348.79688 344.12891 C 348.80153 344.12506 348.8062 344.12167 348.81055 344.11719 C 348.81035 344.08425 348.81302 344.05105 348.83008 344.02344 C 348.83708 344.01124 348.85574 344.03201 348.86914 344.03711 C 348.90224 344.06061 348.93705 344.08212 348.96875 344.10742 C 348.97992 344.11634 348.99519 344.13208 349.00781 344.14258 C 349.03744 344.1598 349.07276 344.17913 349.10547 344.19531 C 349.12606 344.17186 349.14307 344.14664 349.17578 344.12695 C 349.29043 344.05785 349.4359 344.06156 349.55859 344.10156 C 349.59289 344.11276 349.62325 344.13188 349.65625 344.14648 C 349.72755 344.19618 349.75833 344.2039 349.80078 344.28516 C 349.83212 344.34514 349.83825 344.4167 349.83594 344.48828 C 349.86571 344.4998 349.89596 344.51013 349.92578 344.52148 C 349.94154 344.51733 349.95689 344.51195 349.97266 344.50781 C 350.10902 344.47201 350.24786 344.4399 350.38477 344.40625 C 350.85123 344.2916 351.01047 344.64963 350.7832 344.87695 C 350.79952 344.87771 350.82119 344.88192 350.83984 344.88281 C 350.85874 344.88354 350.87756 344.88433 350.89648 344.88477 C 350.90073 344.88578 350.89832 344.88577 350.90234 344.88672 C 351.14261 344.89887 351.44285 344.90914 351.56055 344.94141 C 351.73405 344.98891 352.00511 344.96693 352.06445 345.13672 C 352.07111 345.15577 352.06377 345.1745 352.06445 345.19336 C 352.10966 345.20892 352.15672 345.21886 352.20117 345.23633 C 352.22857 345.24708 352.26257 345.25694 352.29102 345.27148 L 352.29102 343.42383 L 347.74414 343.42383 z M 349.3457 344.1875 C 349.313 344.1915 349.279 344.19584 349.25 344.21094 C 349.23009 344.22155 349.22113 344.23703 349.20703 344.25 C 349.26876 344.28006 349.33068 344.31011 349.39258 344.33984 C 349.46698 344.36351 349.54324 344.38148 349.61719 344.40625 C 349.65278 344.41818 349.68751 344.43225 349.72266 344.44531 C 349.72096 344.39032 349.71191 344.33664 349.67188 344.29492 C 349.65407 344.27642 349.63008 344.26315 349.60938 344.24805 C 349.58337 344.23575 349.55845 344.22064 349.53125 344.21094 C 349.47305 344.19024 349.40758 344.1806 349.3457 344.1875 z M 347.74414 344.80859 L 347.74414 345.63477 L 348.27148 345.63477 C 348.18129 345.48533 348.11461 345.31424 348.11133 345.14258 C 348.10168 345.14401 348.0917 345.14523 348.08203 345.14648 C 347.97247 345.16078 347.95687 345.04945 348.06641 345.03516 C 348.10419 345.02988 348.14174 345.02486 348.17969 345.02148 C 347.96672 344.95852 347.81198 344.91455 347.75195 344.81055 C 347.74947 344.80968 347.74662 344.80946 347.74414 344.80859 z M 352.04492 345.30273 C 352.03854 345.31698 352.03176 345.33162 352.02344 345.3457 C 352.03834 345.33202 352.04733 345.3122 352.08203 345.31836 C 352.09047 345.3199 352.09898 345.32075 352.10742 345.32227 C 352.08697 345.31468 352.06552 345.30993 352.04492 345.30273 z M 352.00781 345.37695 C 351.9474 345.46607 351.86026 345.55076 351.80078 345.63086 C 351.796 345.63729 351.78593 345.63202 351.7793 345.63477 L 352.29102 345.63477 L 352.29102 345.4082 C 352.2868 345.41128 352.28352 345.4149 352.2793 345.41797 C 352.27824 345.41814 352.28267 345.42187 352.28125 345.42188 C 352.27981 345.42188 352.27874 345.42004 352.27734 345.41992 C 352.26356 345.43002 352.24808 345.43996 352.23828 345.45117 C 352.18058 345.44417 352.12215 345.43679 352.06445 345.42969 C 352.0224 345.42447 352.01457 345.3989 352.00781 345.37695 z M 351.56055 345.58398 C 351.5367 345.585 351.52044 345.59919 351.51367 345.63477 L 351.7168 345.63477 C 351.66479 345.61661 351.60303 345.58218 351.56055 345.58398 z M 348.78125 345.59766 C 348.71651 345.60922 348.65459 345.61372 348.58203 345.62109 C 348.5682 345.62515 348.55487 345.6308 348.54102 345.63477 L 348.92773 345.63477 C 348.87858 345.62284 348.82963 345.61228 348.78125 345.59766 z "
         style="fill:#e6e6e6;fill-opacity:0" />
      <path
         inkscape:connector-curvature="0"
         id="path18889"
         d="m 349.26662,345.12002 c -0.21636,-0.12095 -0.28125,-0.25599 -0.28125,-0.5853 0,-0.24931 0.0422,-0.38607 0.19186,-0.62209 0.16148,-0.25463 0.17843,-0.31594 0.1071,-0.38727 -0.31259,-0.3126 -3.98083,-0.35279 -28.14271,-0.30838 -11.44687,0.021 -21.08672,0.0546 -21.42187,0.0745 l -0.60938,0.0363 0,-0.18676 c 0,-0.15167 0.0323,-0.19481 0.17188,-0.22965 0.52478,-0.13097 0.52478,-0.68534 0,-0.81631 -0.10599,-0.0265 -0.17188,-0.085 -0.17188,-0.15268 0,-0.10443 1.09624,-0.11156 22.51563,-0.1464 24.28328,-0.0395 30.18841,-0.10097 30.40391,-0.31647 0.0231,-0.0231 -0.19455,-0.38586 -0.48375,-0.80605 -1.34186,-1.9497 -1.40017,-2.04336 -1.32122,-2.12232 0.0557,-0.0557 0.70525,-0.0847 2.4338,-0.10879 l 2.35788,-0.0329 0.016,-5.23437 0.016,-5.23438 0.58316,0 0.58316,0 0.0414,3.51563 c 0.0228,1.93359 0.0444,5.27344 0.0479,7.42187 0.004,2.23524 0.0288,3.81268 0.0587,3.6875 0.0287,-0.12031 0.11483,-1.56875 0.19146,-3.21875 0.14957,-3.22037 0.1928,-7.51452 0.0953,-9.46309 l -0.0545,-1.0881 2.89821,0.0416 c 1.59402,0.0229 3.78737,0.0598 4.87414,0.082 l 1.97591,0.0405 0.0395,2.88105 c 0.0217,1.58458 0.0576,4.96934 0.0797,7.52168 l 0.0402,4.64062 -5.86814,-9.8e-4 c -5.6152,-9.5e-4 -7.14631,-0.0399 -7.47582,-0.19 -0.0823,-0.0375 -0.18059,-0.15021 -0.21844,-0.25049 -0.0402,-0.10642 -0.14272,-0.21089 -0.24635,-0.25096 -0.76614,-0.29626 -2.23354,-0.14446 -2.81169,0.29086 -0.27064,0.20378 -0.52242,0.72866 -0.5208,1.08572 l 0.001,0.28461 0.27833,-0.3125 c 0.22935,-0.25752 0.28944,-0.29601 0.34151,-0.21875 0.10508,0.15592 0.0739,0.30097 -0.10678,0.49678 -0.19744,0.21396 -0.42908,0.28335 -0.60938,0.18256 l 0,-10e-6 z m 7,-1.43824 c 0.201,-0.0686 0.25,-0.1156 0.25,-0.23952 0,-0.24748 -0.21971,-0.31216 -1.0625,-0.31279 -1.08489,-8e-4 -2.28125,0.1993 -2.28125,0.38155 0,0.0922 0.25336,0.18748 0.64436,0.24245 0.556,0.0782 2.14701,0.0316 2.44939,-0.0717 z m 8.90273,-0.24292 c 0.6533,-0.0688 0.89718,-0.17915 0.86673,-0.39217 -0.0503,-0.35203 -0.74836,-0.4143 -4.64446,-0.4143 -3.71722,0 -4.50924,0.0604 -4.62134,0.35254 -0.096,0.25015 0.25416,0.41788 0.99634,0.47724 0.64264,0.0514 6.87976,0.0318 7.40273,-0.0233 z M 354.0337,342.8264 c 1.40346,-0.0794 1.78941,-0.1257 1.93352,-0.23214 0.28593,-0.21121 -0.22591,-0.31722 -1.98544,-0.41122 -1.84575,-0.0986 -43.07712,-0.14917 -48.45029,-0.0594 -4.68692,0.0783 -5.67112,0.14417 -5.67112,0.37955 0,0.21777 1.13559,0.31544 4.34375,0.3736 3.98132,0.0722 48.45745,0.0272 49.82958,-0.0504 z m 12.01417,-2.88572 0,-2.4375 -4.65625,0 -4.65625,0 0,2.4375 0,2.4375 4.65625,0 4.65625,0 0,-2.4375 z m -11.22236,1.79162 c 0.22668,-0.16575 0.24307,-1.04958 0.022,-1.18897 -0.14852,-0.0937 -0.37543,0.13082 -0.61325,0.60673 -0.20134,0.40293 -0.23114,0.57467 -0.1083,0.62423 0.15965,0.0644 0.58925,0.0386 0.69951,-0.042 z m 1.01126,-0.14403 c 0.14716,-0.35221 0.20766,-2.26739 0.20801,-6.58509 4.6e-4,-5.56314 -0.0795,-6.86595 -0.41713,-6.80092 -0.35999,0.0693 -0.40841,1.04476 -0.37392,7.5314 0.0279,5.23609 0.0491,5.76829 0.23908,5.99724 0.12067,0.1454 0.24518,0.0938 0.34396,-0.14263 z m -2.07653,-1.383 c 0.36704,-0.59353 0.68336,-1.12088 0.70293,-1.17187 0.0309,-0.0806 -0.19126,-0.0927 -1.69752,-0.0927 -1.37693,0 -1.7207,0.0161 -1.67284,0.0781 0.0331,0.043 0.46335,0.6066 0.95603,1.25252 0.7109,0.93203 0.91107,1.15776 0.96991,1.09375 0.0408,-0.0443 0.37445,-0.56627 0.74149,-1.15981 z m 11.66263,-3.01494 c 0.46691,-0.0787 0.69755,-0.2446 0.58712,-0.42239 -0.13523,-0.2177 -0.39154,-0.27175 -1.60346,-0.33809 -1.4888,-0.0815 -6.53743,-0.0278 -7.0887,0.0754 -0.40608,0.076 -0.62504,0.23435 -0.55967,0.40472 0.0774,0.20174 0.4814,0.29651 1.47721,0.34654 1.34752,0.0677 6.68468,0.0186 7.1875,-0.0661 z m 0.875,-3.87465 0,-2.875 -4.65625,0 -4.65625,0 0,2.83334 c 0,1.55833 0.0188,2.85208 0.0417,2.875 0.0229,0.0229 2.11823,0.0417 4.65625,0.0417 l 4.61458,0 0,-2.875 z m -2.44384,-3.16604 c 1.50654,-0.081 0.56293,-0.14455 -2.16042,-0.1455 -2.63027,-9.1e-4 -3.60428,0.0492 -2.48949,0.12821 0.74724,0.0529 3.77764,0.0642 4.64991,0.0173 z m 1.05085,-0.58475 c 0.89115,-0.068 1.21051,-0.14419 1.09372,-0.26097 -0.12509,-0.12509 -0.6401,-0.17054 -2.63823,-0.23283 -2.10358,-0.0656 -5.58182,6.1e-4 -6.1853,0.11769 -0.71364,0.13845 -0.48566,0.29052 0.55597,0.37084 0.96909,0.0747 6.21275,0.0786 7.17384,0.005 z"
         style="fill:#808000;fill-opacity:0" />
      <path
         inkscape:connector-curvature="0"
         id="path18891"
         d="m 353.82687,343.69555 c -0.70692,-0.11332 -0.73551,-0.20451 -0.11272,-0.3595 0.47664,-0.11862 2.36368,-0.18319 2.60389,-0.0891 0.2228,0.0873 0.20166,0.25437 -0.0473,0.37368 -0.21328,0.10222 -1.94282,0.15524 -2.44389,0.0749 z"
         style="fill:#808000;fill-opacity:0" />
    </g>
    <path
       style="fill:#808000;fill-opacity:0"
       d="m 353.77523,343.69483 c -0.27232,-0.0399 -0.5481,-0.1271 -0.5481,-0.17324 0,-0.17983 1.51915,-0.3887 2.52558,-0.34725 0.57718,0.0238 0.76182,0.0911 0.73645,0.26862 -0.0315,0.22021 -0.46348,0.29726 -1.62684,0.29016 -0.47399,-0.003 -0.96317,-0.0201 -1.08709,-0.0383 z"
       id="path18917"
       inkscape:connector-curvature="0" />
    <path
       style="fill:none;fill-rule:evenodd;stroke:#000000;stroke-width:1px;stroke-linecap:butt;stroke-linejoin:miter;stroke-opacity:1;marker-start:url(#marker9721-3-7-7-6)"
       d="m 407.28841,363.68594 -7.50001,-0.17858"
       id="path9713-9-5-1-3"
       inkscape:connector-curvature="0"
       sodipodi:nodetypes="cc" />
    <path
       style="fill:none;fill-rule:evenodd;stroke:#000000;stroke-width:1px;stroke-linecap:butt;stroke-linejoin:miter;stroke-opacity:1;marker-start:url(#marker9721-1-4-0)"
       d="m 424.44497,363.75222 7.67858,-0.17858"
       id="path9713-0-7-1"
       inkscape:connector-curvature="0"
       sodipodi:nodetypes="cc" />
    <text
       xml:space="preserve"
       style="font-style:normal;font-variant:normal;font-weight:normal;font-stretch:normal;font-size:10px;line-height:100%;font-family:'Times New Roman';-inkscape-font-specification:'Times New Roman, Normal';text-align:start;letter-spacing:0px;word-spacing:0px;writing-mode:lr-tb;text-anchor:start;fill:#000000;fill-opacity:1;stroke:none;stroke-width:1px;stroke-linecap:butt;stroke-linejoin:miter;stroke-opacity:1"
       x="413.56909"
       y="366.99896"
       id="text21275"
       sodipodi:linespacing="100%"><tspan
         sodipodi:role="line"
         id="tspan21277"
         x="413.56909"
         y="366.99896">7</tspan></text>
    <path
       style="fill:none;fill-rule:evenodd;stroke:#000000;stroke-width:1px;stroke-linecap:butt;stroke-linejoin:miter;stroke-opacity:1;marker-start:url(#marker9017-6)"
       d="m 242.57904,334.0482 -0.125,-7.375"
       id="path16093-3"
       inkscape:connector-curvature="0"
       sodipodi:nodetypes="cc" />
    <path
       style="fill:none;fill-rule:evenodd;stroke:#000000;stroke-width:1px;stroke-linecap:butt;stroke-linejoin:miter;stroke-opacity:1;marker-end:url(#marker16541-9)"
       d="m 242.75961,351.30563 0,-7.125"
       id="path16533-0"
       inkscape:connector-curvature="0"
       sodipodi:nodetypes="cc" />
    <text
       xml:space="preserve"
       style="font-style:normal;font-variant:normal;font-weight:normal;font-stretch:normal;font-size:10px;line-height:100%;font-family:'Times New Roman';-inkscape-font-specification:'Times New Roman, Normal';text-align:start;letter-spacing:0px;word-spacing:0px;writing-mode:lr-tb;text-anchor:start;fill:#000000;fill-opacity:1;stroke:none;stroke-width:1px;stroke-linecap:butt;stroke-linejoin:miter;stroke-opacity:1"
       x="240.125"
       y="342.61221"
       id="text22653"
       sodipodi:linespacing="100%"><tspan
         sodipodi:role="line"
         id="tspan22655"
         x="240.125"
         y="342.61221">3</tspan></text>
    <path
       style="fill:none;fill-rule:evenodd;stroke:#000000;stroke-width:1px;stroke-linecap:butt;stroke-linejoin:miter;stroke-opacity:1;marker-start:url(#marker9017-6-2)"
       d="m 304.20404,326.7982 -0.125,-7.375"
       id="path16093-3-0"
       inkscape:connector-curvature="0"
       sodipodi:nodetypes="cc" />
    <path
       style="fill:none;fill-rule:evenodd;stroke:#000000;stroke-width:1px;stroke-linecap:butt;stroke-linejoin:miter;stroke-opacity:1;marker-end:url(#marker16541-9-1)"
       d="m 304.25961,344.93063 0,-7.125"
       id="path16533-0-9"
       inkscape:connector-curvature="0"
       sodipodi:nodetypes="cc" />
    <text
       xml:space="preserve"
       style="font-style:normal;font-variant:normal;font-weight:normal;font-stretch:normal;font-size:10px;line-height:100%;font-family:'Times New Roman';-inkscape-font-specification:'Times New Roman, Normal';text-align:start;letter-spacing:0px;word-spacing:0px;writing-mode:lr-tb;text-anchor:start;fill:#000000;fill-opacity:1;stroke:none;stroke-width:1px;stroke-linecap:butt;stroke-linejoin:miter;stroke-opacity:1"
       x="301.375"
       y="335.61221"
       id="text24039"
       sodipodi:linespacing="100%"><tspan
         sodipodi:role="line"
         id="tspan24041"
         x="301.375"
         y="335.61221">4</tspan></text>
    <path
       style="fill:none;fill-rule:evenodd;stroke:#000000;stroke-width:1px;stroke-linecap:butt;stroke-linejoin:miter;stroke-opacity:1"
       d="m 362.65739,382.99725 -8.39689,0"
       id="path24043"
       inkscape:connector-curvature="0" />
    <path
       style="fill:none;fill-rule:evenodd;stroke:#000000;stroke-width:1.05079341px;stroke-linecap:butt;stroke-linejoin:miter;stroke-opacity:1"
       d="m 362.74578,367.08735 -4.68458,0"
       id="path24045"
       inkscape:connector-curvature="0" />
  </g>
</svg>
